<?xml version="1.0" encoding="utf-8"?>
<!-- Generator: Adobe Illustrator 23.1.1, SVG Export Plug-In . SVG Version: 6.00 Build 0)  -->
<svg version="1.1" id="レイヤー_1" xmlns="http://www.w3.org/2000/svg" xmlns:xlink="http://www.w3.org/1999/xlink" x="0px"
	 y="0px" viewBox="0 0 31 54.1" style="enable-background:new 0 0 31 54.1;" xml:space="preserve">
<style type="text/css">
	.st0{fill:#FFFFFF;}
	.st1{font-family:'Arial-BoldMT';}
	.st2{font-size:12px;}
	.st3{opacity:0.4;enable-background:new    ;}
	.st8{fill:_COLOR_;}
</style>
<g>
	<g id="_x32_">
		<g>
			<text transform="matrix(1 0 0 1 11.3333 11)" class="st0 st1 st2">_SYMBOL_</text>
			<text transform="matrix(1 0 0 1 12.8333 11)" class="st0 st1 st2">_SYMBOL_</text>
			<text transform="matrix(1 0 0 1 12.0833 10.25)" class="st0 st1 st2">_SYMBOL_</text>
			<text transform="matrix(1 0 0 1 12.0833 11.75)" class="st0 st1 st2">_SYMBOL_</text>
			<text transform="matrix(1 0 0 1 12.0833 11)" class="st1 st2">_SYMBOL_</text>
		</g>
	</g>
	<g>
		<ellipse class="st3" cx="15.6" cy="51.2" rx="6.5" ry="1.3"/>
		<g>
			<path class="st0" d="M29,28.7c0-7.4-6-13.4-13.4-13.4s-13.4,6-13.4,13.4c0,4.8,2.5,9,6.3,11.3c1.2,0.9,6.3,4.8,7.1,9.2l0,0
				c0,0,0,0,0.1,0c0,0,0,0,0.1,0l0,0c0.8-4.5,6.2-8.5,7.2-9.2C26.6,37.6,29,33.5,29,28.7z"/>
			<path class="st0" d="M15.8,50.2h-0.2c-0.5,0-0.9-0.3-1-0.8c-0.5-2.6-2.9-5.7-6.7-8.6c-4.2-2.5-6.7-7.1-6.7-12.1
				c0-7.9,6.5-14.4,14.4-14.4S30,20.8,30,28.7c0,4.9-2.4,9.4-6.4,12.1c-0.6,0.4-6,4.3-6.8,8.5C16.7,49.9,16.3,50.2,15.8,50.2z
				 M15.6,16.3c-6.8,0-12.4,5.6-12.4,12.4c0,4.3,2.2,8.2,5.8,10.4c2,1.5,5.1,4.2,6.7,7.3c1.9-3.7,5.8-6.6,6.7-7.3
				c3.5-2.3,5.6-6.2,5.6-10.5C28,21.9,22.4,16.3,15.6,16.3z"/>
		</g>
		<path id="color" class="st8" d="M29,28.7c0-7.4-6-13.4-13.4-13.4s-13.4,6-13.4,13.4c0,4.8,2.5,9,6.3,11.3c1.2,0.9,6.3,4.8,7.1,9.2l0,0
			c0,0,0,0,0.1,0c0,0,0,0,0.1,0l0,0c0.8-4.5,6.2-8.5,7.2-9.2C26.6,37.6,29,33.5,29,28.7z"/>
		<path class="st0" d="M15.6,34.4c-1.1,0-2,0.9-2,2s0.9,2,2,2s2-0.9,2-2C17.6,35.3,16.7,34.4,15.6,34.4z"/>
		<path class="st0" d="M15.6,33c0.4,0,1.1-2,1.2-2.5c0.5-1.7,0.9-3.9,0.9-5.8c0-2.2-0.6-4.6-2.1-4.6s-2.1,2.4-2.1,4.6
			c0,1.9,0.4,4.1,0.9,5.8C14.5,31.1,15.2,33,15.6,33z"/>
	</g>
</g>
</svg>
