<?xml version="1.0" encoding="utf-8"?>
<!-- Generator: Adobe Illustrator 23.1.1, SVG Export Plug-In . SVG Version: 6.00 Build 0)  -->
<svg version="1.1" id="レイヤー_1" xmlns="http://www.w3.org/2000/svg" xmlns:xlink="http://www.w3.org/1999/xlink" x="0px"
	 y="0px" viewBox="0 0 31 54.1" style="enable-background:new 0 0 31 54.1;" xml:space="preserve">
<style type="text/css">
	.st0{fill:#FFFFFF;}
	.st1{font-family:'Arial-BoldMT';}
	.st2{font-size:12px;}
	.st3{opacity:0.4;enable-background:new    ;}
	.st8{fill:_COLOR_;}
</style>
<g>
	<g id="_x32_">
		<g>
			<text transform="matrix(1 0 0 1 11.3333 11)" class="st0 st1 st2">_SYMBOL_</text>
			<text transform="matrix(1 0 0 1 12.8333 11)" class="st0 st1 st2">_SYMBOL_</text>
			<text transform="matrix(1 0 0 1 12.0833 10.25)" class="st0 st1 st2">_SYMBOL_</text>
			<text transform="matrix(1 0 0 1 12.0833 11.75)" class="st0 st1 st2">_SYMBOL_</text>
			<text transform="matrix(1 0 0 1 12.0833 11)" class="st1 st2">_SYMBOL_</text>
		</g>
	</g>
	<g>
		<ellipse class="st3" cx="15.6" cy="51.2" rx="6.5" ry="1.3"/>
		<g>
			<path class="st0" d="M29.1,28.7c0-7.4-6-13.4-13.4-13.4s-13.4,6-13.4,13.4c0,4.8,2.5,9,6.3,11.3c1.2,0.9,6.3,4.8,7.1,9.2l0,0
				c0,0,0,0,0.1,0c0,0,0,0,0.1,0l0,0c0.8-4.5,6.2-8.5,7.2-9.2C26.6,37.6,29.1,33.5,29.1,28.7z"/>
			<path class="st0" d="M15.9,50.2h-0.1c-0.5,0-1-0.3-1.1-0.8c-0.5-2.6-2.9-5.7-6.7-8.6c-4.2-2.5-6.7-7.1-6.7-12.1
				c0-7.9,6.5-14.4,14.4-14.4c7.9,0,14.4,6.5,14.4,14.4c0,4.8-2.4,9.4-6.4,12.1c-0.6,0.4-6,4.3-6.8,8.6
				C16.8,49.9,16.4,50.2,15.9,50.2z M15.7,16.3c-6.8,0-12.4,5.6-12.4,12.4c0,4.3,2.2,8.2,5.8,10.4c2,1.5,5.1,4.2,6.7,7.3
				c1.9-3.7,5.8-6.6,6.7-7.3c3.5-2.4,5.6-6.3,5.6-10.5C28.1,21.9,22.5,16.3,15.7,16.3z"/>
		</g>
		<path id="color" class="st8" d="M29.1,28.7c0-7.4-6-13.4-13.4-13.4s-13.4,6-13.4,13.4c0,4.8,2.5,9,6.3,11.3c1.2,0.9,6.3,4.8,7.1,9.2l0,0
			c0,0,0,0,0.1,0c0,0,0,0,0.1,0l0,0c0.8-4.5,6.2-8.5,7.2-9.2C26.6,37.6,29.1,33.5,29.1,28.7z"/>
		<g>
			<g>
				<polygon class="st0" points="21.4,35 21.4,35 21.4,35 22.7,36.3 22.2,36.8 20.9,35.5 				"/>
				<path class="st0" d="M8.2,27.3c0.7,0.7,1.6,1,2.5,1l3.5-3.5c0-0.9-0.3-1.8-1-2.5c-1.4-1.4-3.6-1.4-5,0
					C6.8,23.7,6.8,25.9,8.2,27.3z M11.4,23.9c-0.4,0.4-0.9,0.4-1.3,0c-0.4-0.4-0.4-0.9,0-1.3s0.9-0.4,1.3,0S11.8,23.6,11.4,23.9z"/>
				<path class="st0" d="M11.5,28.6L11.5,28.6L11.5,28.6l0.2,0.2l7,6.4l0,0c0.1,0.1,0.4-0.1,0.7-0.4l0.5,0.5c0.1,0.1,0.2,0.1,0.3,0
					l1-1c0.1-0.1,0.1-0.2,0-0.3l-0.5-0.5c0.3-0.4,0.5-0.7,0.4-0.7l-6.6-7.2l0,0l0,0l-0.1,0.1L11.5,28.6z M14.9,29.6l-1.4-1.4
					l0.5-0.5l1.4,1.4L14.9,29.6L14.9,29.6z"/>
			</g>
		</g>
	</g>
</g>
</svg>
