<?xml version="1.0" encoding="utf-8"?>
<!-- Generator: Adobe Illustrator 23.1.1, SVG Export Plug-In . SVG Version: 6.00 Build 0)  -->
<svg version="1.1" id="レイヤー_1" xmlns="http://www.w3.org/2000/svg" xmlns:xlink="http://www.w3.org/1999/xlink" x="0px"
	 y="0px" viewBox="0 0 31 54.1" style="enable-background:new 0 0 31 54.1;" xml:space="preserve">
<style type="text/css">
	.st0{opacity:0.4;enable-background:new    ;}
	.st1{fill:#FFFFFF;}
	.st8{fill:#FF0000;}
</style>
<g>
	<g>
		<ellipse class="st0" cx="15.8" cy="51.2" rx="6.5" ry="1.3"/>
		<g>
			<path class="st1" d="M29.1,28.7c0-7.4-6-13.4-13.4-13.4s-13.4,6-13.4,13.4c0,4.8,2.5,9,6.3,11.3c1.2,0.9,6.3,4.8,7.1,9.2l0,0
				c0,0,0,0,0.1,0c0,0,0,0,0.1,0l0,0c0.8-4.5,6.2-8.5,7.2-9.2C26.6,37.6,29.1,33.5,29.1,28.7z"/>
			<path class="st1" d="M15.9,50.2h-0.1c-0.5,0-1-0.3-1.1-0.8c-0.5-2.6-2.9-5.7-6.7-8.6c-4.2-2.5-6.7-7.1-6.7-12.1
				c0-7.9,6.5-14.4,14.4-14.4c7.9,0,14.4,6.5,14.4,14.4c0,4.8-2.4,9.4-6.4,12.1c-0.6,0.4-6,4.3-6.8,8.6
				C16.8,49.9,16.4,50.2,15.9,50.2z M15.7,16.3c-6.8,0-12.4,5.6-12.4,12.4c0,4.3,2.2,8.2,5.8,10.4c2,1.5,5.1,4.2,6.7,7.3
				c1.9-3.7,5.8-6.6,6.7-7.3c3.5-2.4,5.6-6.3,5.6-10.5C28.1,21.9,22.5,16.3,15.7,16.3z"/>
		</g>
		<path id="color" class="st8" d="M29.1,28.7c0-7.4-6-13.4-13.4-13.4s-13.4,6-13.4,13.4c0,4.8,2.5,9,6.3,11.3c1.2,0.9,6.3,4.8,7.1,9.2l0,0
			c0,0,0,0,0.1,0c0,0,0,0,0.1,0l0,0c0.8-4.5,6.2-8.5,7.2-9.2C26.6,37.6,29.1,33.5,29.1,28.7z"/>
		<polygon class="st1" points="23.2,23 21,20.8 15.6,26.2 10.3,20.8 8,23 13.4,28.4 8,33.8 10.3,36 15.6,30.6 21,36 23.2,33.8 
			17.8,28.4 		"/>
	</g>
</g>
</svg>
