<?xml version="1.0" encoding="utf-8"?>
<!-- Generator: Adobe Illustrator 23.1.1, SVG Export Plug-In . SVG Version: 6.00 Build 0)  -->
<svg version="1.1" id="レイヤー_1" xmlns="http://www.w3.org/2000/svg" xmlns:xlink="http://www.w3.org/1999/xlink" x="0px"
	 y="0px" viewBox="0 0 31 54.1" style="enable-background:new 0 0 31 54.1;" xml:space="preserve">
<style type="text/css">
	.st0{opacity:0.4;enable-background:new    ;}
	.st1{fill:#FFFFFF;}
	.st8{fill:#FF0000;}
</style>
<g>
	<g>
		<ellipse class="st0" cx="15.6" cy="51.1" rx="6.5" ry="1.3"/>
		<g>
			<path class="st1" d="M29,28.6c0-7.4-6-13.4-13.4-13.4s-13.4,6-13.4,13.4c0,4.8,2.5,9,6.3,11.3c1.2,0.9,6.3,4.8,7.1,9.2l0,0
				c0,0,0,0,0.1,0c0,0,0,0,0.1,0l0,0c0.8-4.5,6.2-8.5,7.2-9.2C26.6,37.5,29,33.4,29,28.6z"/>
			<path class="st1" d="M15.8,50.1h-0.2c-0.5,0-0.9-0.3-1-0.8c-0.5-2.6-2.9-5.7-6.7-8.6c-4.2-2.5-6.7-7.1-6.7-12.1
				c0-7.9,6.5-14.4,14.4-14.4S30,20.7,30,28.6c0,4.9-2.4,9.4-6.4,12.1c-0.6,0.4-6,4.3-6.8,8.5C16.7,49.8,16.3,50.1,15.8,50.1z
				 M15.6,16.2c-6.8,0-12.4,5.6-12.4,12.4c0,4.3,2.2,8.2,5.8,10.4c2,1.5,5.1,4.2,6.7,7.3c1.9-3.7,5.8-6.6,6.7-7.3
				c3.5-2.3,5.6-6.2,5.6-10.5C28,21.8,22.4,16.2,15.6,16.2z"/>
		</g>
		<path id="color" class="st8" d="M29,28.6c0-7.4-6-13.4-13.4-13.4s-13.4,6-13.4,13.4c0,4.8,2.5,9,6.3,11.3c1.2,0.9,6.3,4.8,7.1,9.2l0,0
			c0,0,0,0,0.1,0c0,0,0,0,0.1,0l0,0c0.8-4.5,6.2-8.5,7.2-9.2C26.6,37.5,29,33.4,29,28.6z"/>
	</g>
</g>
</svg>
