<?xml version="1.0" encoding="utf-8"?>
<!-- Generator: Adobe Illustrator 23.1.1, SVG Export Plug-In . SVG Version: 6.00 Build 0)  -->
<svg version="1.1" id="レイヤー_1" xmlns="http://www.w3.org/2000/svg" xmlns:xlink="http://www.w3.org/1999/xlink" x="0px"
	 y="0px" viewBox="0 0 31 54.1" style="enable-background:new 0 0 31 54.1;" xml:space="preserve">
<style type="text/css">
	.st0{opacity:0.4;enable-background:new    ;}
	.st1{fill:#FFFFFF;}
	.st8{fill:#FF0000;}
</style>
<g>
	<g>
		<ellipse class="st0" cx="15.6" cy="51.2" rx="6.5" ry="1.3"/>
		<g>
			<path class="st1" d="M29,28.7c0-7.4-6-13.4-13.4-13.4s-13.4,6-13.4,13.4c0,4.8,2.5,9,6.3,11.3c1.2,0.9,6.3,4.8,7.1,9.2l0,0
				c0,0,0,0,0.1,0c0,0,0,0,0.1,0l0,0c0.8-4.5,6.2-8.5,7.2-9.2C26.6,37.6,29,33.5,29,28.7z"/>
			<path class="st1" d="M15.8,50.2h-0.2c-0.5,0-0.9-0.3-1-0.8c-0.5-2.6-2.9-5.7-6.7-8.6c-4.2-2.5-6.7-7.1-6.7-12.1
				c0-7.9,6.5-14.4,14.4-14.4S30,20.8,30,28.7c0,4.9-2.4,9.4-6.4,12.1c-0.6,0.4-6,4.3-6.8,8.5C16.7,49.9,16.3,50.2,15.8,50.2z
				 M15.6,16.3c-6.8,0-12.4,5.6-12.4,12.4c0,4.3,2.2,8.2,5.8,10.4c2,1.5,5.1,4.2,6.7,7.3c1.9-3.7,5.8-6.6,6.7-7.3
				c3.5-2.3,5.6-6.2,5.6-10.5C28,21.9,22.4,16.3,15.6,16.3z"/>
		</g>
		<path id="color" class="st8" d="M29,28.7c0-7.4-6-13.4-13.4-13.4s-13.4,6-13.4,13.4c0,4.8,2.5,9,6.3,11.3c1.2,0.9,6.3,4.8,7.1,9.2l0,0
			c0,0,0,0,0.1,0c0,0,0,0,0.1,0l0,0c0.8-4.5,6.2-8.5,7.2-9.2C26.6,37.6,29,33.5,29,28.7z"/>
		<path class="st1" d="M11.4,33.2l-1.9,3l0.2,1l1-0.2l1.9-3C12.2,33.8,11.8,33.5,11.4,33.2z M19.5,32.2
			C19.6,32.2,19.6,32.1,19.5,32.2c0.1-0.2,0.1-0.3,0.2-0.4c0,0,0,0,0-0.1s0.1-0.2,0.1-0.4l0,0C20,30.2,19.7,29,19,28l1-1.6
			c1.2,0.1,2.2-0.1,2.7-0.9c0.8-1.3-0.2-3.5-2.3-4.8c-2.1-1.4-4.5-1.4-5.3-0.1c-0.5,0.8-0.3,1.8,0.3,2.8l-1,1.6
			c-1.3-0.2-2.5,0-3.4,0.6l0,0c-0.1,0.1-0.2,0.1-0.3,0.2l0,0c-0.1,0.1-0.2,0.2-0.2,0.2s0,0-0.1,0.1s-0.2,0.2-0.3,0.4
			c-1.3,1.9-0.2,4.9,2.4,6.6s5.7,1.5,7-0.5C19.4,32.5,19.5,32.3,19.5,32.2L19.5,32.2z M18.8,23.1c-0.8-0.5-1.2-1.4-0.9-1.9
			c0.3-0.5,1.2-0.5,2,0.1c0.8,0.5,1.2,1.4,0.9,1.9C20.5,23.7,19.6,23.7,18.8,23.1z"/>
	</g>
</g>
</svg>
