<?xml version="1.0" encoding="utf-8"?>
<!-- Generator: Adobe Illustrator 23.1.1, SVG Export Plug-In . SVG Version: 6.00 Build 0)  -->
<svg version="1.1" id="レイヤー_1" xmlns="http://www.w3.org/2000/svg" xmlns:xlink="http://www.w3.org/1999/xlink" x="0px"
	 y="0px" viewBox="0 0 31.3 40.6" style="enable-background:new 0 0 31.3 40.6;" xml:space="preserve">
<style type="text/css">
	.st0{opacity:0.4;enable-background:new    ;}
	.st1{fill:#FFFFFF;stroke:#FFFFFF;stroke-width:2;stroke-linejoin:round;stroke-miterlimit:10;}
	.st8{fill:#FF0000;}
	.st3{fill:#FFFFFF;}
</style>
<g>
	<g>
		<ellipse class="st0" cx="16.2" cy="39.3" rx="6.5" ry="1.3"/>
		<path class="st1" d="M29.4,16.8c0-7.4-6-13.4-13.4-13.4S2.6,9.4,2.6,16.8c0,4.8,2.5,9,6.3,11.3c1.2,0.9,6.3,4.8,7.1,9.2l0,0
			c0,0,0,0,0.1,0c0,0,0,0,0.1,0l0,0c0.8-4.5,6.2-8.5,7.2-9.2C26.9,25.7,29.4,21.6,29.4,16.8z"/>
		<path id="color" class="st8" d="M29.4,16.8c0-7.4-6-13.4-13.4-13.4S2.6,9.4,2.6,16.8c0,4.8,2.5,9,6.3,11.3c1.2,0.9,6.3,4.8,7.1,9.2l0,0
			c0,0,0,0,0.1,0c0,0,0,0,0.1,0l0,0c0.8-4.5,6.2-8.5,7.2-9.2C26.9,25.7,29.4,21.6,29.4,16.8z"/>
		<path class="st3" d="M18.9,23.9l-5,2.6l0.1-2.1c-1.4-0.3-2.6-1-3.6-2c-1.5-1.5-2.3-3.4-2.3-5.5c0-1.1,0.2-2.1,0.6-3.1l0.1-0.2
			l1.8,0.8l-0.1,0.2c-0.2,0.8-0.3,1.5-0.3,2.3c0,1.5,0.6,3,1.7,4.1c0.7,0.7,1.4,1.1,2.3,1.4l0.1-1.6l5.2,2.8L18.9,23.9z"/>
		<path class="st3" d="M23,20l-0.1,0.2l-1.8-0.8l0.1-0.2c0.3-0.7,0.5-1.5,0.5-2.3c0-1.5-0.6-3-1.7-4.1c-0.7-0.7-1.4-1.1-2.3-1.4
			l-0.1,1.7l-5.2-2.8l0.5-0.3l1-0.5l4-2.1l-0.1,2.1c1.4,0.3,2.6,1,3.6,2c1.5,1.5,2.3,3.4,2.3,5.5C23.7,18,23.4,19,23,20z"/>
	</g>
</g>
</svg>
