<!--?xml version="1.0" encoding="utf-8"?-->
<!-- Generator: Adobe Illustrator 15.1.0, SVG Export Plug-In . SVG Version: 6.00 Build 0)  -->

<svg version="1.1" id="_x32_" xmlns="http://www.w3.org/2000/svg" xmlns:xlink="http://www.w3.org/1999/xlink" x="0px" y="0px" width="28.3px" height="50.0px"
	 viewBox="0 0 24.3 42" style="width: 24.3px; height: 42.0px; opacity: 1;" xml:space="preserve">

<style type="text/css">
	.st0{display:none;}
	.st1{display:none;fill:#4B4B4B;}
	.st2{fill:#FFFFFF;}
	.st3{font-family:'Arial-BoldMT';}
	.st4{font-size:14px;fill:_COLOR_V_;}
	.st5{opacity:0.4;enable-background:new    ;}
	.st6{fill:_COLOR_V_;}
</style>
<g>
	<path class="st0" d="M35.2,20.3c0.2,0.3,0.2,0.6,0,0.9c-0.1,0.3-0.4,0.4-0.8,0.4H12.1v-18h22.4c0.3,0,0.6,0.2,0.8,0.4
		c0.1,0.3,0.1,0.6,0,0.9l-4.8,7.2c-0.2,0.3-0.2,0.7,0,0.9L35.2,20.3z"/>
	<rect x="4.9" y="3.6" class="st0" width="4.8" height="38.4"/>
	<path class="st1" d="M35.2,20.3c0.2,0.3,0.2,0.6,0,0.9c-0.1,0.3-0.4,0.4-0.8,0.4H12.1v-18h22.4c0.3,0,0.6,0.2,0.8,0.4
		c0.1,0.3,0.1,0.6,0,0.9l-4.8,7.2c-0.2,0.3-0.2,0.7,0,0.9L35.2,20.3z"/>
	<rect x="4.9" y="3.6" class="st1" width="4.8" height="38.4"/>
</g>
<ellipse class="st5" cx="12.3" cy="40.9" rx="6.1" ry="1.1"/>
<g>
	<g>
		<path class="st6" d="M20.1,6.1H4.5c-0.9,0-1.6,0.7-1.6,1.6v17.2l9.4,12.5l9.4-12.5V7.7C21.7,6.8,21,6.1,20.1,6.1z"/>
		<path class="st2" d="M20.1,6.1c0.9,0,1.6,0.7,1.6,1.6v17.2l-9.4,12.5L2.9,24.9V7.7c0-0.9,0.7-1.6,1.6-1.6H20.1 M20.1,4.1H4.5
			c-2,0-3.6,1.6-3.6,3.6v17.2v0.7l0.4,0.5l9.4,12.5l1.6,2.1l1.6-2.1l9.4-12.5l0.4-0.5v-0.7V7.7C23.7,5.7,22.1,4.1,20.1,4.1L20.1,4.1
			z"/>
		<g>
			<path class="st2" d="M6.9,8.5h10.9c0.9,0,1.6,0.7,1.6,1.6V21c0,0.9-0.7,1.6-1.6,1.6H6.9c-0.9,0-1.6-0.7-1.6-1.6V10.1
				C5.3,9.2,6,8.5,6.9,8.5z"/>
		</g>
	</g>
</g>
	<text transform="matrix(1 0 0 1 5.5 20.5)" class="st3 st4">_SYMBOL_</text>
</svg>
