<svg xmlns="http://www.w3.org/2000/svg" width="109" height="35.5" viewBox="0 0 109 35.5">
  <defs>
    <style>
      .cls-1, .cls-3 {
        fill: #fff;
      }

      .cls-1 {
        font-size: 11px;
        font-family: HiraKakuProN-W6, Hiragino Kaku Gothic ProN;
      }

      .cls-2 {
        fill: #803aac;
      }
    </style>
  </defs>
  <g id="グループ_460" data-name="グループ 460" transform="translate(-244 -356)">
    <text id="CSVで出力" class="cls-1" transform="translate(244 378)"><tspan x="0" y="0">CSVで出力</tspan></text>
    <g id="グループ_459" data-name="グループ 459">
      <circle id="楕円形_98" data-name="楕円形 98" class="cls-2" cx="17.75" cy="17.75" r="17.75" transform="translate(317.5 356)"/>
      <g id="csv-file-format-extension" transform="translate(328.357 365.9)">
        <path id="パス_335" data-name="パス 335" class="cls-3" d="M44.5,5.664h-.38V3.829a.273.273,0,0,0,0-.035.3.3,0,0,0-.074-.2L40.986.106l0,0a.3.3,0,0,0-.062-.052L40.9.04A.325.325,0,0,0,40.84.014L40.823.009A.312.312,0,0,0,40.752,0h-7.5a.622.622,0,0,0-.621.621V5.664h-.38a.888.888,0,0,0-.888.887v4.615a.888.888,0,0,0,.888.888h.38v3.159a.622.622,0,0,0,.621.621H43.495a.622.622,0,0,0,.621-.621V12.054h.38a.888.888,0,0,0,.887-.888V6.552A.887.887,0,0,0,44.5,5.664ZM33.249.621h7.193V3.8a.311.311,0,0,0,.31.31h2.743V5.664H33.249Zm4.675,8.424c-.771-.268-1.273-.695-1.273-1.369,0-.791.66-1.4,1.754-1.4a2.835,2.835,0,0,1,1.183.234l-.234.846a2.2,2.2,0,0,0-.97-.22c-.454,0-.674.206-.674.447,0,.3.261.427.86.654.818.3,1.2.729,1.2,1.383,0,.777-.6,1.438-1.871,1.438a3.038,3.038,0,0,1-1.314-.282l.213-.867a2.671,2.671,0,0,0,1.163.289c.481,0,.736-.2.736-.5S38.48,9.244,37.923,9.045Zm-5.463-.3a2.364,2.364,0,0,1,2.531-2.463,2.733,2.733,0,0,1,1.142.206l-.213.832a2.272,2.272,0,0,0-.881-.172A1.394,1.394,0,0,0,33.562,8.68a1.385,1.385,0,0,0,1.486,1.513,2.618,2.618,0,0,0,.873-.151l.158.819a2.984,2.984,0,0,1-1.19.2A2.205,2.205,0,0,1,32.461,8.742Zm11.034,6.3H33.249V12.054H43.495ZM42.8,10.991H41.577L40.091,6.355H41.24L41.8,8.316c.158.55.3,1.08.413,1.658h.02c.117-.557.261-1.108.42-1.637l.592-1.981h1.115Z" transform="translate(-31.36)"/>
      </g>
    </g>
  </g>
</svg>
