<svg xmlns="http://www.w3.org/2000/svg" width="53.74" height="53.74" viewBox="0 0 53.74 53.74">
  <defs>
    <style>
      .cls-1 {
        fill: #3a7cac;
      }

      .cls-2 {
        fill: #fff;
      }
    </style>
  </defs>
  <g id="グループ_731" data-name="グループ 731" transform="translate(-305 -318.517)">
    <g id="グループ_644" data-name="グループ 644" transform="translate(305.541 318.058)">
      <circle id="楕円形_84" data-name="楕円形 84" class="cls-1" cx="19" cy="19" r="19" transform="translate(-0.541 27.329) rotate(-45)"/>
      <g id="export_1_" data-name="export (1)" transform="translate(15.075 17.849)">
        <path id="パス_180" data-name="パス 180" class="cls-2" d="M16.379,23.348H13.728v1.573h2.651c.788,0,1.4.4,1.4.749v6.976c0,.347-.612.749-1.4.749H6.357c-.788,0-1.4-.4-1.4-.749V25.671c0-.347.612-.749,1.4-.749H9.008V23.348H6.357c-1.667,0-2.973,1.02-2.973,2.323v6.976c0,1.3,1.306,2.323,2.973,2.323H16.379c1.667,0,2.973-1.02,2.973-2.323V25.671C19.352,24.368,18.046,23.348,16.379,23.348Z" transform="translate(0 -17.226)"/>
        <path id="パス_181" data-name="パス 181" class="cls-2" d="M22.743,3.921a.784.784,0,0,0,.556-.23l.985-.985v8a.787.787,0,0,0,1.573,0V2.653L26.9,3.691a.786.786,0,0,0,1.112-1.112L25.659.23A.783.783,0,0,0,25.1,0h-.012a.783.783,0,0,0-.556.23L22.186,2.578a.787.787,0,0,0,.556,1.343Z" transform="translate(-13.702 0)"/>
      </g>
    </g>
  </g>
</svg>
