<svg xmlns="http://www.w3.org/2000/svg" width="53.74" height="53.74" viewBox="0 0 53.74 53.74">
  <defs>
    <style>
      .cls-1 {
        fill: #803aac;
      }

      .cls-2 {
        fill: #fff;
      }
    </style>
  </defs>
  <g id="グループ_560" data-name="グループ 560" transform="translate(0.379 1.705)">
    <g id="グループ_293" data-name="グループ 293" transform="translate(-0.252 0.249)">
      <path id="パス_156" data-name="パス 156" class="cls-1" d="M19.193,0A18.541,18.541,0,0,1,38,18.807,19.471,19.471,0,0,1,18.807,38,18.541,18.541,0,0,1,0,19.193,19.471,19.471,0,0,1,19.193,0Z" transform="translate(-0.128 24.916) rotate(-45)"/>
    </g>
    <g id="pdf-file-format-symbol" transform="translate(-12.883 15.875)">
      <path id="パス_285" data-name="パス 285" class="cls-2" d="M118.313,259.344c0-.5-.349-.8-.966-.8a2.111,2.111,0,0,0-.511.049v1.616a1.914,1.914,0,0,0,.414.032C117.907,260.237,118.313,259.9,118.313,259.344Z" transform="translate(-82.437 -249.771)"/>
      <path id="パス_286" data-name="パス 286" class="cls-2" d="M256.916,259.019a2.576,2.576,0,0,0-.56.049v3.58a2.25,2.25,0,0,0,.431.025,1.7,1.7,0,0,0,1.851-1.916A1.569,1.569,0,0,0,256.916,259.019Z" transform="translate(-217.224 -250.232)"/>
      <path id="パス_287" data-name="パス 287" class="cls-2" d="M47,6.683h-.449V4.519a.317.317,0,0,0,0-.041.36.36,0,0,0-.087-.237L42.862.125l0,0a.364.364,0,0,0-.073-.061L42.762.047a.378.378,0,0,0-.072-.03L42.67.01A.366.366,0,0,0,42.586,0H33.733A.733.733,0,0,0,33,.733V6.683h-.449A1.047,1.047,0,0,0,31.5,7.731v5.446a1.047,1.047,0,0,0,1.047,1.047H33v3.728a.733.733,0,0,0,.733.733h12.09a.734.734,0,0,0,.733-.733V14.224H47a1.047,1.047,0,0,0,1.047-1.047V7.731A1.047,1.047,0,0,0,47,6.683ZM33.733.733H42.22V4.482a.366.366,0,0,0,.366.366h3.236V6.684H33.733Zm8.995,9.75a2.773,2.773,0,0,1-.91,2.216,3.925,3.925,0,0,1-2.524.706,10.754,10.754,0,0,1-1.4-.081V7.95a11.07,11.07,0,0,1,1.673-.114,3.522,3.522,0,0,1,2.24.584A2.421,2.421,0,0,1,42.728,10.483Zm-9.555,2.866V7.95a10.169,10.169,0,0,1,1.672-.114,2.623,2.623,0,0,1,1.672.439A1.6,1.6,0,0,1,37.1,9.542a1.747,1.747,0,0,1-.5,1.3,2.536,2.536,0,0,1-1.778.577,3.1,3.1,0,0,1-.422-.025v1.956H33.173Zm12.65,4.405H33.733v-3.53h12.09v3.53Zm1.062-8.862h-2.1v1.25h1.965v1.007H44.782v2.2H43.54V7.877h3.344Z"/>
    </g>
  </g>
</svg>
