<svg xmlns="http://www.w3.org/2000/svg" width="53.74" height="53.74" viewBox="0 0 53.74 53.74">
  <defs>
    <style>
      .cls-1 {
        fill: #803aac;
      }

      .cls-2 {
        fill: #fff;
      }
    </style>
  </defs>
  <g id="グループ_557" data-name="グループ 557" transform="translate(0.128 2.492)">
    <circle id="楕円形_83" data-name="楕円形 83" class="cls-1" cx="19" cy="19" r="19" transform="translate(-0.128 24.378) rotate(-45)"/>
    <g id="csv-file-format-extension" transform="translate(18.843 15.317)">
      <path id="パス_335" data-name="パス 335" class="cls-2" d="M47.092,6.783h-.455v-2.2a.328.328,0,0,0,0-.042.365.365,0,0,0-.088-.241L42.888.127l0,0a.361.361,0,0,0-.074-.062L42.786.048a.389.389,0,0,0-.073-.031l-.02-.007A.374.374,0,0,0,42.608,0H33.622a.744.744,0,0,0-.744.744V6.783h-.455A1.063,1.063,0,0,0,31.36,7.846v5.527a1.063,1.063,0,0,0,1.063,1.063h.455V18.22a.744.744,0,0,0,.744.744H45.893a.745.745,0,0,0,.744-.744V14.436h.455a1.063,1.063,0,0,0,1.063-1.063V7.846A1.063,1.063,0,0,0,47.092,6.783ZM33.622.744h8.614v3.8a.372.372,0,0,0,.372.372h3.285V6.783H33.622Zm5.6,10.088C38.3,10.511,37.7,10,37.7,9.193c0-.948.791-1.673,2.1-1.673a3.4,3.4,0,0,1,1.417.28l-.28,1.013a2.633,2.633,0,0,0-1.162-.264c-.544,0-.807.247-.807.536,0,.354.313.511,1.03.783.98.362,1.442.873,1.442,1.656,0,.931-.717,1.722-2.241,1.722a3.638,3.638,0,0,1-1.574-.338l.255-1.038a3.2,3.2,0,0,0,1.393.346c.577,0,.882-.239.882-.6C40.151,11.268,39.887,11.071,39.22,10.832Zm-6.542-.363A2.831,2.831,0,0,1,35.71,7.52a3.273,3.273,0,0,1,1.368.247l-.256,1a2.721,2.721,0,0,0-1.055-.205A1.67,1.67,0,0,0,34,10.4a1.658,1.658,0,0,0,1.78,1.812,3.135,3.135,0,0,0,1.046-.181l.19.98a3.574,3.574,0,0,1-1.425.239A2.641,2.641,0,0,1,32.678,10.469Zm13.214,7.549H33.622V14.436H45.893Zm-.831-4.855H43.6l-1.78-5.552h1.376l.675,2.348c.189.659.362,1.293.495,1.985h.025c.14-.667.313-1.326.5-1.961L45.6,7.611h1.335Z" transform="translate(-31.36)"/>
    </g>
  </g>
</svg>
