<svg id="グループ_318" data-name="グループ 318" xmlns="http://www.w3.org/2000/svg" width="49.902" height="49.902" viewBox="0 0 49.902 49.902">
  <defs>
    <style>
      .cls-1 {
        fill: #3a7cac;
      }

      .cls-2 {
        fill: #fff;
      }
    </style>
  </defs>
  <g id="グループ_316" data-name="グループ 316" transform="translate(0 0)">
    <g id="グループ_315" data-name="グループ 315">
      <circle id="楕円形_86" data-name="楕円形 86" class="cls-1" cx="17.643" cy="17.643" r="17.643" transform="translate(0 24.951) rotate(-45)"/>
    </g>
  </g>
  <g id="グループ_317" data-name="グループ 317" transform="translate(16.041 16.713)">
    <path id="パス_149" data-name="パス 149" class="cls-2" d="M1084.419,440.846l2.466-5.631.205-.468a.411.411,0,0,1,.376-.246h11.6a.411.411,0,0,0,.411-.411v-1.659h0v-1.975a.411.411,0,0,0-.411-.411h-5.8a.411.411,0,0,0-.35.2l-.72,1.168a.411.411,0,0,1-.35.2h-7.807a.411.411,0,0,0-.411.411v8.667a.408.408,0,0,0,.015.086v.01A.408.408,0,0,0,1084.419,440.846Z" transform="translate(-1083.632 -430.046)"/>
    <path id="パス_150" data-name="パス 150" class="cls-2" d="M1104.864,479.063h-14.951a.411.411,0,0,0-.376.246l-3.221,7.353-.765,1.747a.411.411,0,0,0,.376.575h14.951a.411.411,0,0,0,.376-.246l3.986-9.1A.411.411,0,0,0,1104.864,479.063Z" transform="translate(-1085.298 -473.415)"/>
  </g>
</svg>
