<svg xmlns="http://www.w3.org/2000/svg" width="49.403" height="49.403" viewBox="0 0 49.403 49.403">
  <defs>
    <style>
      .cls-1 {
        fill: #3a7cac;
      }

      .cls-2 {
        fill: #fff;
      }
    </style>
  </defs>
  <g id="グループ_295" data-name="グループ 295" transform="translate(0.252 -0.249)">
    <g id="グループ_293" data-name="グループ 293" transform="translate(0 0)">
      <path id="パス_156" data-name="パス 156" class="cls-1" d="M17.466-.177A17.044,17.044,0,0,1,34.755,17.112,17.9,17.9,0,0,1,17.112,34.755,17.044,17.044,0,0,1-.177,17.466,17.9,17.9,0,0,1,17.466-.177Z" transform="translate(0 24.951) rotate(-45)"/>
    </g>
    <g id="グループ_294" data-name="グループ 294" transform="translate(15.051 17.674)">
      <path id="パス_135" data-name="パス 135" class="cls-2" d="M50.761,191.3a1.606,1.606,0,0,0,1.1-.415l-5.326-5.326-.369.265q-.6.44-.97.687a5.959,5.959,0,0,1-.991.5,3.019,3.019,0,0,1-1.154.257h-.021a3.019,3.019,0,0,1-1.154-.257,5.951,5.951,0,0,1-.991-.5q-.372-.246-.97-.687l-.368-.266-5.327,5.327a1.607,1.607,0,0,0,1.1.415Z" transform="translate(-33.643 -176.748)"/>
      <path id="パス_136" data-name="パス 136" class="cls-2" d="M32.14,149.458a5.559,5.559,0,0,1-1.06-.913v8.1l4.694-4.694Q34.365,150.97,32.14,149.458Z" transform="translate(-30.864 -143.999)"/>
      <path id="パス_137" data-name="パス 137" class="cls-2" d="M153.379,149.458q-2.143,1.451-3.643,2.5l4.692,4.692v-8.1A5.78,5.78,0,0,1,153.379,149.458Z" transform="translate(-135.847 -143.999)"/>
      <path id="パス_138" data-name="パス 138" class="cls-2" d="M46.323,109.1H30.882a1.5,1.5,0,0,0-1.243.545A2.117,2.117,0,0,0,29.2,111a2.451,2.451,0,0,0,.577,1.432,5.2,5.2,0,0,0,1.227,1.211q.357.252,2.15,1.495c.646.447,1.207.837,1.689,1.174.411.287.766.535,1.059.741l.157.112.289.208q.341.246.566.4t.546.341a3.19,3.19,0,0,0,.6.283,1.671,1.671,0,0,0,.524.094h.021a1.67,1.67,0,0,0,.524-.094,3.182,3.182,0,0,0,.6-.283q.32-.189.546-.341t.566-.4l.289-.208.157-.112,1.061-.738,3.848-2.672a4.989,4.989,0,0,0,1.28-1.29A2.775,2.775,0,0,0,48,110.773a1.692,1.692,0,0,0-1.679-1.678Z" transform="translate(-29.204 -109.095)"/>
    </g>
  </g>
</svg>
