<svg xmlns="http://www.w3.org/2000/svg" width="21.408" height="21.655" viewBox="0 0 21.408 21.655"><defs><style>.a{fill:#707070;}</style></defs><path class="a" d="M16.968,125.942l-1.133-.475c-.26.374-.535.757-.809,1.129l1.519.636v10.157l-5.839-2.445v-6.887c-.251-.326-.542-.707-.846-1.116v8l-5.585,2.339V127.126l4.4-1.841c-.284-.415-.539-.809-.743-1.157l-5.007,2.1v13.092l7.361-3.084,6.685,2.8,7.362-3.084V122.859Zm6.009,9.109-5.585,2.339V127.233l5.585-2.339Z" transform="translate(-2.922 -117.663)"/><path class="a" d="M133.823,10.751a53.958,53.958,0,0,0,3.583-4.986,3.9,3.9,0,0,0-.759-4.6,4,4,0,0,0-5.65,0,3.9,3.9,0,0,0-.758,4.6A53.922,53.922,0,0,0,133.823,10.751Zm0-9.183A2.427,2.427,0,1,1,131.4,4,2.428,2.428,0,0,1,133.823,1.568Z" transform="translate(-124.43)"/></svg>