<svg xmlns="http://www.w3.org/2000/svg" width="21.662" height="19.33" viewBox="0 0 21.662 19.33"><defs><style>.a{fill:#707070;}</style></defs><g transform="translate(-15 -20.277)"><path class="a" d="M72.611,33.017l-.726-.726a1.3,1.3,0,0,0-1.833,0l-.94.94V21.56a1.285,1.285,0,0,0-1.287-1.283H66.806A1.285,1.285,0,0,0,65.52,21.56V33.228l-.94-.94a1.3,1.3,0,0,0-1.833,0l-.727.726a1.3,1.3,0,0,0,0,1.833L66.4,39.229a1.309,1.309,0,0,0,1.84,0l4.379-4.379A1.3,1.3,0,0,0,72.611,33.017Z" transform="translate(-36.33 0)"/><path class="a" d="M15.381,26.866l.727.727a1.3,1.3,0,0,0,1.833,0l.94-.94V38.324a1.285,1.285,0,0,0,1.287,1.283h1.019a1.285,1.285,0,0,0,1.286-1.283V26.656l.94.94a1.3,1.3,0,0,0,1.833,0l.727-.726a1.3,1.3,0,0,0,0-1.833L21.6,20.654a1.31,1.31,0,0,0-1.84,0l-4.378,4.378A1.3,1.3,0,0,0,15.381,26.866Z" transform="translate(0)"/></g></svg>