<svg xmlns="http://www.w3.org/2000/svg" width="35.5" height="35.5" viewBox="0 0 35.5 35.5">
  <defs>
    <style>
      .cls-1 {
        fill: #803aac;
      }

      .cls-2 {
        fill: #fff;
      }
    </style>
  </defs>
  <g id="グループ_461" data-name="グループ 461" transform="translate(-317.5 -489)">
    <circle id="楕円形_99" data-name="楕円形 99" class="cls-1" cx="17.75" cy="17.75" r="17.75" transform="translate(317.5 489)"/>
    <g id="pdf-file-format-symbol" transform="translate(328.685 498.914)">
      <path id="パス_332" data-name="パス 332" class="cls-2" d="M118.087,259.221c0-.426-.3-.68-.818-.68a1.785,1.785,0,0,0-.433.041v1.368a1.626,1.626,0,0,0,.35.027C117.743,259.977,118.087,259.7,118.087,259.221Z" transform="translate(-114.385 -251.115)"/>
      <path id="パス_333" data-name="パス 333" class="cls-2" d="M256.83,259.019a2.186,2.186,0,0,0-.474.041v3.031a1.9,1.9,0,0,0,.365.021,1.436,1.436,0,0,0,1.567-1.622A1.329,1.329,0,0,0,256.83,259.019Z" transform="translate(-249.898 -251.579)"/>
      <path id="パス_334" data-name="パス 334" class="cls-2" d="M44.628,5.659h-.38V3.826a.267.267,0,0,0,0-.035.3.3,0,0,0-.074-.2L41.121.106l0,0a.308.308,0,0,0-.062-.052L41.037.04a.32.32,0,0,0-.061-.026L40.959.009A.31.31,0,0,0,40.887,0h-7.5a.621.621,0,0,0-.62.62V5.659h-.38a.887.887,0,0,0-.887.887v4.611a.887.887,0,0,0,.887.887h.38V15.2a.621.621,0,0,0,.62.62H43.628a.621.621,0,0,0,.62-.62V12.043h.38a.887.887,0,0,0,.887-.887V6.546A.887.887,0,0,0,44.628,5.659ZM33.391.621h7.186V3.795a.31.31,0,0,0,.31.31h2.74V5.659H33.391Zm7.616,8.255a2.348,2.348,0,0,1-.77,1.877,3.323,3.323,0,0,1-2.137.6,9.106,9.106,0,0,1-1.189-.069V6.732a9.373,9.373,0,0,1,1.416-.1,2.982,2.982,0,0,1,1.9.495A2.05,2.05,0,0,1,41.007,8.876ZM32.917,11.3V6.732a8.611,8.611,0,0,1,1.416-.1,2.221,2.221,0,0,1,1.416.371,1.353,1.353,0,0,1,.494,1.072,1.479,1.479,0,0,1-.426,1.1,2.147,2.147,0,0,1-1.505.488,2.623,2.623,0,0,1-.357-.021V11.3H32.917Zm10.711,3.73H33.391V12.043H43.628v2.989Zm.9-7.5H42.746V8.587H44.41V9.44H42.746V11.3H41.7V6.67h2.832Z" transform="translate(-31.504)"/>
    </g>
  </g>
</svg>
