<svg xmlns="http://www.w3.org/2000/svg" width="35.5" height="35.5" viewBox="0 0 35.5 35.5">
  <defs>
    <style>
      .cls-1 {
        fill: #3a7cac;
      }

      .cls-2 {
        fill: #fff;
      }
    </style>
  </defs>
  <g id="グループ_466" data-name="グループ 466" transform="translate(-317.5 -578.4)">
    <circle id="楕円形_94" data-name="楕円形 94" class="cls-1" cx="17.75" cy="17.75" r="17.75" transform="translate(317.5 578.4)"/>
    <g id="pdf-file-format-symbol" transform="translate(296.496 587.327)">
      <path id="パス_285" data-name="パス 285" class="cls-2" d="M118.162,259.262c0-.452-.314-.721-.867-.721a1.9,1.9,0,0,0-.459.044v1.45a1.719,1.719,0,0,0,.371.029C117.8,260.064,118.162,259.765,118.162,259.262Z" transform="translate(-82.733 -250.668)"/>
      <path id="パス_286" data-name="パス 286" class="cls-2" d="M256.859,259.019a2.311,2.311,0,0,0-.5.044v3.213a2.017,2.017,0,0,0,.386.022,1.523,1.523,0,0,0,1.661-1.72A1.409,1.409,0,0,0,256.859,259.019Z" transform="translate(-218.005 -251.131)"/>
      <path id="パス_287" data-name="パス 287" class="cls-2" d="M45.418,6h-.4V4.056a.284.284,0,0,0,0-.037.323.323,0,0,0-.078-.213L41.7.112l0,0a.327.327,0,0,0-.066-.055L41.611.042a.339.339,0,0,0-.065-.027L41.528.009A.328.328,0,0,0,41.452,0H33.5a.658.658,0,0,0-.658.658V6h-.4a.94.94,0,0,0-.94.94v4.889a.94.94,0,0,0,.94.94h.4v3.347a.658.658,0,0,0,.658.658H44.358a.659.659,0,0,0,.658-.658V12.769h.4a.94.94,0,0,0,.94-.94V6.94A.94.94,0,0,0,45.418,6ZM33.5.658h7.619V4.023a.329.329,0,0,0,.329.329h2.905V6H33.5Zm8.075,8.753a2.49,2.49,0,0,1-.817,1.99,3.524,3.524,0,0,1-2.266.634,9.654,9.654,0,0,1-1.261-.073V7.137a9.938,9.938,0,0,1,1.5-.1,3.162,3.162,0,0,1,2.011.525A2.173,2.173,0,0,1,41.579,9.411ZM33,11.983V7.137a9.129,9.129,0,0,1,1.5-.1,2.355,2.355,0,0,1,1.5.394,1.435,1.435,0,0,1,.524,1.137,1.568,1.568,0,0,1-.452,1.166,2.277,2.277,0,0,1-1.6.518,2.781,2.781,0,0,1-.379-.022v1.756H33Zm11.356,3.954H33.5V12.769H44.358v3.169Zm.953-7.955H43.423V9.1h1.764v.9H43.423v1.975H42.309V7.072h3Z"/>
    </g>
  </g>
</svg>
