<svg xmlns="http://www.w3.org/2000/svg" width="292" height="231.586" viewBox="0 0 292 231.586"><g transform="translate(0 -6)"><path d="M286.966,6H5.034A5.033,5.033,0,0,0,0,11.034V232.552a5.033,5.033,0,0,0,5.034,5.035H286.966A5.033,5.033,0,0,0,292,232.552V11.034A5.033,5.033,0,0,0,286.966,6Zm-5.034,221.517H10.069V16.069H281.931Z"/><path d="M38.468,73.074A28.037,28.037,0,1,0,10.431,45.037,28.066,28.066,0,0,0,38.468,73.074Zm0-46.005A17.968,17.968,0,1,1,20.5,45.042,17.991,17.991,0,0,1,38.468,27.069Z" transform="translate(42.084 44.379)"/><path d="M11.037,138.79a5.022,5.022,0,0,0,3.323-1.254L96.487,65.231l51.865,51.86a5.034,5.034,0,1,0,7.119-7.119l-24.2-24.2,46.222-50.617,56.693,51.971a5.035,5.035,0,0,0,6.8-7.426L180.573,24.321A5.193,5.193,0,0,0,176.948,23a5.044,5.044,0,0,0-3.494,1.636l-49.308,54L100.268,54.765a5.039,5.039,0,0,0-6.887-.222L7.709,129.975a5.035,5.035,0,0,0,3.328,8.815Z" transform="translate(24.205 68.589)"/></g></svg>