<svg xmlns="http://www.w3.org/2000/svg" width="53.74" height="53.74" viewBox="0 0 53.74 53.74">
  <defs>
    <style>
      .cls-1 {
        fill: #3a7cac;
      }

      .cls-2 {
        fill: #fff;
      }
    </style>
  </defs>
  <g id="グループ_556" data-name="グループ 556" transform="translate(0.379 1.705)">
    <path id="パス_156" data-name="パス 156" class="cls-1" d="M19.193,0A18.541,18.541,0,0,1,38,18.807,19.471,19.471,0,0,1,18.807,38,18.541,18.541,0,0,1,0,19.193,19.471,19.471,0,0,1,19.193,0Z" transform="translate(-0.379 25.165) rotate(-45)"/>
    <path id="_Pngtree_pin_1138554" data-name="—Pngtree—pin_1138554" class="cls-2" d="M135.115,34.293l-1.95,3.01.207.985.982-.21L136.3,35.07A7.737,7.737,0,0,1,135.115,34.293Zm8.254-1.051c.013-.027.021-.057.033-.085a2.8,2.8,0,0,0,.128-.331c.006-.02.008-.041.015-.059q.054-.187.091-.378V32.37a4.805,4.805,0,0,0-.855-3.382l1.028-1.587a2.678,2.678,0,0,0,2.7-.91c.855-1.318-.185-3.512-2.32-4.9s-4.56-1.449-5.413-.133a2.692,2.692,0,0,0,.271,2.846l-1.03,1.587a4.77,4.77,0,0,0-3.43.593.041.041,0,0,0-.016.007,3.463,3.463,0,0,0-.308.235c-.016.013-.034.025-.047.038a2.8,2.8,0,0,0-.251.252c-.019.022-.044.042-.062.065a2.871,2.871,0,0,0-.269.357c-1.282,1.976-.188,4.965,2.439,6.677s5.8,1.495,7.077-.481A3.083,3.083,0,0,0,143.369,33.242Zm-.755-9.223c-.822-.534-1.223-1.377-.894-1.886s1.261-.483,2.08.051,1.221,1.379.894,1.886S143.437,24.554,142.615,24.019Z" transform="translate(-113.008 -4.28)"/>
  </g>
</svg>
