<svg id="グループ_306" data-name="グループ 306" xmlns="http://www.w3.org/2000/svg" width="49.902" height="49.902" viewBox="0 0 49.902 49.902">
  <defs>
    <style>
      .cls-1 {
        fill: #3a7cac;
      }

      .cls-2 {
        fill: #fff;
      }
    </style>
  </defs>
  <g id="グループ_305" data-name="グループ 305" transform="translate(0 0)">
    <g id="グループ_304" data-name="グループ 304" transform="translate(0)">
      <circle id="楕円形_84" data-name="楕円形 84" class="cls-1" cx="17.643" cy="17.643" r="17.643" transform="translate(0 24.951) rotate(-45)"/>
    </g>
  </g>
  <path id="パス_143" data-name="パス 143" class="cls-2" d="M515.15,466.439a7.644,7.644,0,0,0-5.368-2.241,7.465,7.465,0,0,0-5.368,2.241c-3.168,3.3-3.459,7.677.022,12.3,2.57,3.417,4.046,5.177,5.126,5.878a.3.3,0,0,0,.44,0c1.08-.7,2.4-2.584,5.126-5.878C517.935,475.354,518.14,469.43,515.15,466.439Zm-5.368,8.74a3.339,3.339,0,1,1,3.34-3.339A3.339,3.339,0,0,1,509.782,475.179Z" transform="translate(-484.649 -449.576)"/>
</svg>
