<svg xmlns="http://www.w3.org/2000/svg" width="53.74" height="53.74" viewBox="0 0 53.74 53.74">
  <defs>
    <style>
      .cls-1 {
        fill: #3aaca3;
      }

      .cls-2 {
        fill: #fff;
      }
    </style>
  </defs>
  <g id="グループ_560" data-name="グループ 560" transform="translate(0.379 1.705)">
    <g id="グループ_293" data-name="グループ 293" transform="translate(-0.252 0.249)">
      <path id="パス_156" data-name="パス 156" class="cls-1" d="M19.193,0A18.541,18.541,0,0,1,38,18.807,19.471,19.471,0,0,1,18.807,38,18.541,18.541,0,0,1,0,19.193,19.471,19.471,0,0,1,19.193,0Z" transform="translate(-0.128 24.916) rotate(-45)"/>
    </g>
    <g id="汎用的なレポート用紙のアイコン素材" transform="translate(34.88 18.205) rotate(90)">
      <path id="パス_327" data-name="パス 327" class="cls-2" d="M11.873,16.759H2.623A2.627,2.627,0,0,1,0,14.134V2.624A2.626,2.626,0,0,1,2.623,0H9.248c.05,0,.1,0,.148,0a5.238,5.238,0,0,1,5.1,5.1c0,.048,0,.1,0,.146v8.887A2.627,2.627,0,0,1,11.873,16.759ZM9.757,3.871V1.345a3.959,3.959,0,0,0-.409-.032c-.032,0-.066,0-.1,0H2.623A1.312,1.312,0,0,0,1.311,2.624v11.51a1.313,1.313,0,0,0,1.313,1.314h9.25a1.313,1.313,0,0,0,1.313-1.314V5.247c0-.032,0-.066,0-.1a3.969,3.969,0,0,0-.032-.409H10.626A.869.869,0,0,1,9.757,3.871Z"/>
      <path id="パス_328" data-name="パス 328" class="cls-2" d="M0,0H7.258V.879H0V.005H0Z" transform="translate(8.778 6.176) rotate(90)"/>
      <path id="パス_329" data-name="パス 329" class="cls-2" d="M7.258.879H0V.005H0V0H7.258Z" transform="translate(6.597 6.176) rotate(90)"/>
      <path id="パス_330" data-name="パス 330" class="cls-2" d="M0,.005V0H7.258V.879H0V.005Z" transform="translate(4.416 6.176) rotate(90)"/>
      <path id="パス_331" data-name="パス 331" class="cls-2" d="M0,.879V.005H0V0H3.916V.879Z" transform="translate(11.069 9.513) rotate(90)"/>
    </g>
  </g>
</svg>
