<svg xmlns="http://www.w3.org/2000/svg" width="53.74" height="53.74" viewBox="0 0 53.74 53.74">
  <defs>
    <style>
      .cls-1 {
        fill: #3aaca3;
      }

      .cls-2 {
        fill: #fff;
      }
    </style>
  </defs>
  <g id="グループ_556" data-name="グループ 556" transform="translate(0.379 1.705)">
    <path id="パス_156" data-name="パス 156" class="cls-1" d="M19.193,0A18.541,18.541,0,0,1,38,18.807,19.471,19.471,0,0,1,18.807,38,18.541,18.541,0,0,1,0,19.193,19.471,19.471,0,0,1,19.193,0Z" transform="translate(-0.379 25.165) rotate(-45)"/>
    <g id="グループ_450" data-name="グループ 450" transform="translate(-309.39 -435.997)">
      <g id="はがきの無料アイコン_1" data-name="はがきの無料アイコン 1" transform="translate(328.811 452.139)">
        <path id="パス_321" data-name="パス 321" class="cls-2" d="M59.975,0H48.946a1.585,1.585,0,0,0-1.583,1.584V15.834a1.585,1.585,0,0,0,1.583,1.583H59.975a1.585,1.585,0,0,0,1.584-1.583V1.584A1.586,1.586,0,0,0,59.975,0ZM48.884,1.584a.062.062,0,0,1,.062-.062H59.975a.062.062,0,0,1,.062.062V15.834a.063.063,0,0,1-.062.063H48.946a.063.063,0,0,1-.062-.063Z" transform="translate(-47.363 0)"/>
      </g>
      <path id="person-1824147" class="cls-2" d="M584.409,564.509a2.223,2.223,0,1,0,2.223,2.223A2.223,2.223,0,0,0,584.409,564.509Zm2,4.4a2.944,2.944,0,0,1-3.989,0,4.072,4.072,0,0,0-1.777,3.4c0,.02,0,.04,0,.059h7.537c0-.02,0-.04,0-.059a4.072,4.072,0,0,0-1.775-3.4Z" transform="translate(-248.286 -107.594)"/>
    </g>
  </g>
</svg>
