<svg xmlns="http://www.w3.org/2000/svg" width="16.939" height="16.939" viewBox="0 0 16.939 16.939"><defs><style>.a{fill:#707070;}</style></defs><path class="a" d="M55.077,58.773l-.663-.663-.832.832a1.718,1.718,0,1,1-1.326-1.326l.832-.832-.663-.663c-.458-.458-5.176-.458-5.634,0L39.474,63.44a1.172,1.172,0,0,0,0,1.657L46.1,71.725a1.172,1.172,0,0,0,1.657,0l7.318-7.318C55.535,63.949,55.535,59.231,55.077,58.773Z" transform="translate(-39.131 -55.129)"/><path class="a" d="M358.5,43.465a.469.469,0,0,0,.663,0l3.535-3.535a.469.469,0,0,0-.663-.663L358.5,42.8A.469.469,0,0,0,358.5,43.465Z" transform="translate(-345.892 -39.131)"/></svg>