<svg xmlns="http://www.w3.org/2000/svg" width="12.738" height="12.738" viewBox="0 0 12.738 12.738">
  <defs>
    <style>
      .cls-1 {
        fill: #b8b8b8;
      }
    </style>
  </defs>
  <g id="tag-2" transform="translate(-39.131 -39.131)">
    <path id="パス_109" data-name="パス 109" class="cls-1" d="M51.122,58.031l-.5-.5L50,58.158a1.292,1.292,0,1,1-1-1l.626-.626-.5-.5a8.822,8.822,0,0,0-4.236,0l-5.5,5.5a.881.881,0,0,0,0,1.246l4.984,4.984a.881.881,0,0,0,1.246,0l5.5-5.5A8.823,8.823,0,0,0,51.122,58.031Z" transform="translate(0 -16.16)"/>
    <path id="パス_110" data-name="パス 110" class="cls-1" d="M358.463,42.39a.352.352,0,0,0,.5,0l2.658-2.658a.352.352,0,1,0-.5-.5l-2.658,2.658A.353.353,0,0,0,358.463,42.39Z" transform="translate(-309.853 0)"/>
  </g>
</svg>
