<svg id="グループ_312" data-name="グループ 312" xmlns="http://www.w3.org/2000/svg" width="49.901" height="49.902" viewBox="0 0 49.901 49.902">
  <defs>
    <style>
      .cls-1 {
        fill: #3a7cac;
      }

      .cls-2 {
        fill: #fff;
      }
    </style>
  </defs>
  <g id="グループ_310" data-name="グループ 310" transform="translate(0 0)">
    <g id="グループ_309" data-name="グループ 309" transform="translate(0 0)">
      <circle id="楕円形_85" data-name="楕円形 85" class="cls-1" cx="17.643" cy="17.643" r="17.643" transform="translate(0 24.951) rotate(-45)"/>
    </g>
  </g>
  <g id="グループ_311" data-name="グループ 311" transform="translate(15.584 15.747)">
    <path id="パス_145" data-name="パス 145" class="cls-2" d="M1089.164,98.085l-.741-.741-.93.93a1.921,1.921,0,1,1-1.482-1.482l.93-.93-.741-.741c-.512-.511-5.787-.511-6.3,0l-8.182,8.183a1.31,1.31,0,0,0,0,1.853l7.411,7.411a1.31,1.31,0,0,0,1.853,0l8.182-8.182C1089.676,103.872,1089.676,98.6,1089.164,98.085Z" transform="translate(-1071.335 -94.01)"/>
    <path id="パス_146" data-name="パス 146" class="cls-2" d="M1192.464,93.274a.524.524,0,0,0,.741,0l3.952-3.952a.524.524,0,0,0-.741-.741l-3.952,3.952A.524.524,0,0,0,1192.464,93.274Z" transform="translate(-1178.371 -88.427)"/>
  </g>
</svg>
