<svg xmlns="http://www.w3.org/2000/svg" width="53.74" height="53.74" viewBox="0 0 53.74 53.74">
  <defs>
    <style>
      .cls-1 {
        fill: #3a7cac;
      }

      .cls-2 {
        fill: #fff;
      }
    </style>
  </defs>
  <g id="グループ_558" data-name="グループ 558" transform="translate(0.541 -0.459)">
    <circle id="楕円形_84" data-name="楕円形 84" class="cls-1" cx="19" cy="19" r="19" transform="translate(-0.541 27.329) rotate(-45)"/>
    <g id="tag-2" transform="translate(18.159 19.142)">
      <path id="パス_109" data-name="パス 109" class="cls-2" d="M54.724,58.707l-.648-.648-.814.814a1.68,1.68,0,1,1-1.3-1.3l.814-.814-.648-.648c-.447-.447-5.061-.447-5.509,0l-7.156,7.156a1.146,1.146,0,0,0,0,1.62l6.481,6.481a1.146,1.146,0,0,0,1.62,0l7.156-7.156C55.171,63.768,55.171,59.154,54.724,58.707Z" transform="translate(-39.131 -55.143)"/>
      <path id="パス_110" data-name="パス 110" class="cls-2" d="M358.494,43.369a.458.458,0,0,0,.648,0l3.456-3.456a.458.458,0,0,0-.648-.648l-3.457,3.456A.459.459,0,0,0,358.494,43.369Z" transform="translate(-346.169 -39.131)"/>
    </g>
  </g>
</svg>
