<svg xmlns="http://www.w3.org/2000/svg" width="53.74" height="53.74" viewBox="0 0 53.74 53.74">
  <defs>
    <style>
      .cls-1, .cls-5 {
        fill: #3a7cac;
      }

      .cls-2, .cls-3 {
        fill: #fff;
      }

      .cls-3 {
        fill-rule: evenodd;
      }

      .cls-4, .cls-5 {
        stroke: none;
      }
    </style>
  </defs>
  <g id="グループ_557" data-name="グループ 557" transform="translate(0.128 2.492)">
    <circle id="楕円形_83" data-name="楕円形 83" class="cls-1" cx="19" cy="19" r="19" transform="translate(-0.128 24.378) rotate(-45)"/>
    <g id="tag-2" transform="translate(17.489 16.04)">
      <path id="パス_109" data-name="パス 109" class="cls-2" d="M54.456,58.657l-.637-.637-.8.8a1.651,1.651,0,1,1-1.274-1.274l.8-.8-.637-.637c-.44-.44-4.975-.44-5.414,0l-7.033,7.033a1.126,1.126,0,0,0,0,1.592l6.37,6.37a1.126,1.126,0,0,0,1.592,0l7.033-7.033C54.9,63.631,54.9,59.1,54.456,58.657Z" transform="translate(-38.131 -55.154)"/>
      <path id="パス_110" data-name="パス 110" class="cls-2" d="M358.491,43.3a.45.45,0,0,0,.637,0l3.4-3.4a.45.45,0,0,0-.637-.637l-3.4,3.4A.451.451,0,0,0,358.491,43.3Z" transform="translate(-345.378 -39.131)"/>
    </g>
    <g id="Layer_x0020_1" transform="translate(27.583 25.024)">
      <g id="パス_189" data-name="パス 189" class="cls-3" transform="translate(-20 -20)">
        <path class="cls-4" d="M 24.77771949768066 29.05255317687988 L 23.87483787536621 29.05255317687988 C 23.59273910522461 29.05255317687988 23.36847305297852 28.84346961975098 23.34517097473145 28.56840515136719 L 23.20774078369141 27.8262882232666 C 23.01455688476562 27.76603317260742 22.82770347595215 27.68725204467773 22.63938903808594 27.58668518066406 L 22.02220916748047 28.03554344177246 L 21.99543952941895 28.05502319335938 L 21.96582794189453 28.06982231140137 C 21.86105918884277 28.1222038269043 21.76407814025879 28.14766311645508 21.66931915283203 28.14766311645508 C 21.52369117736816 28.14766311645508 21.39253044128418 28.08752250671387 21.30142021179199 27.98079872131348 L 20.66177940368652 27.35942268371582 L 20.65971946716309 27.35741233825684 L 20.65767860412598 27.35538291931152 C 20.57562828063965 27.27334213256836 20.40407943725586 27.04397201538086 20.58273887634277 26.68671226501465 L 20.59657859802246 26.65902328491211 L 20.6145191192627 26.63380241394043 L 21.07008934020996 25.99315643310547 C 20.97901344299316 25.81685829162598 20.90174865722656 25.63574600219727 20.83699989318848 25.44679832458496 L 20.08414649963379 25.30738067626953 C 19.80908203125 25.28407859802246 19.59999847412109 25.05981254577637 19.59999847412109 24.77771377563477 L 19.59999847412109 23.87483215332031 C 19.59999847412109 23.59246063232422 19.80950927734375 23.3680305480957 20.0849666595459 23.34509468078613 L 20.84796714782715 23.20636749267578 C 20.90708351135254 23.02041816711426 20.98217582702637 22.83666610717773 21.07099151611328 22.66065979003906 L 20.6145191192627 22.01875305175781 L 20.59657859802246 21.99352264404297 L 20.58272933959961 21.96583366394043 C 20.42963027954102 21.65962791442871 20.52800369262695 21.4249382019043 20.67320823669434 21.30045318603516 L 21.29875373840332 20.67489814758301 C 21.38996315002441 20.56620979309082 21.52226448059082 20.5048828125 21.66931915283203 20.5048828125 C 21.76407814025879 20.5048828125 21.86105918884277 20.53034210205078 21.96582794189453 20.58272361755371 L 21.9935188293457 20.59657287597656 L 22.01874923706055 20.6145133972168 L 22.66066551208496 21.07098770141602 C 22.83667945861816 20.98217391967773 23.02043342590332 20.90707969665527 23.20637321472168 20.84796714782715 L 23.34510040283203 20.08497047424316 C 23.3680362701416 19.80951309204102 23.59246635437012 19.60000228881836 23.87483787536621 19.60000228881836 L 24.77771949768066 19.60000228881836 C 25.06009101867676 19.60000228881836 25.28452110290527 19.80951309204102 25.30745697021484 20.08497047424316 L 25.4461841583252 20.84796714782715 C 25.63212394714355 20.90707969665527 25.81587791442871 20.98217391967773 25.99189186096191 21.07098770141602 L 26.63380813598633 20.6145133972168 L 26.65903854370117 20.59657287597656 L 26.68672943115234 20.58272361755371 C 26.7914981842041 20.53034210205078 26.88949775695801 20.5048828125 26.9863395690918 20.5048828125 C 27.12579917907715 20.5048828125 27.25685882568359 20.55913352966309 27.35536956787109 20.65765380859375 L 27.35741806030273 20.65970230102539 L 27.35943794250488 20.66178321838379 L 27.98248481750488 21.30316352844238 C 28.12597274780273 21.4283332824707 28.22182273864746 21.66183471679688 28.06982803344727 21.96583366394043 L 28.05597877502441 21.99352264404297 L 28.03803825378418 22.01875305175781 L 27.58157539367676 22.66065788269043 C 27.67039108276367 22.83667373657227 27.74548530578613 23.02042770385742 27.80459213256836 23.20636749267578 L 28.56759071350098 23.34509468078613 C 28.84304809570312 23.3680305480957 29.05255889892578 23.59246063232422 29.05255889892578 23.87483215332031 L 29.05255889892578 24.77771377563477 C 29.05255889892578 25.05981254577637 28.84347534179688 25.28407859802246 28.56841087341309 25.30738067626953 L 27.81556129455566 25.44679832458496 C 27.75082778930664 25.63570785522461 27.67354393005371 25.81686592102051 27.58247566223145 25.99315643310547 L 28.03803825378418 26.63380241394043 L 28.05597877502441 26.65902328491211 L 28.0698184967041 26.68671226501465 C 28.24848937988281 27.04400253295898 28.07690811157227 27.27337265014648 27.99484825134277 27.35540390014648 L 27.35536956787109 27.99489212036133 C 27.25685882568359 28.09341239929199 27.12579917907715 28.14766311645508 26.9863395690918 28.14766311645508 C 26.88949775695801 28.14766311645508 26.7914981842041 28.1222038269043 26.68672943115234 28.06982231140137 L 26.65711784362793 28.05502319335938 L 26.63034820556641 28.03554344177246 L 26.01316833496094 27.58668518066406 C 25.82485389709473 27.68725204467773 25.63800048828125 27.76603317260742 25.44481658935547 27.8262882232666 L 25.30738639831543 28.56840515136719 C 25.28408432006836 28.84346961975098 25.05981826782227 29.05255317687988 24.77771949768066 29.05255317687988 Z M 24.32627868652344 23.69173240661621 C 23.98231887817383 23.69173240661621 23.69173812866211 23.98231315612793 23.69173812866211 24.32627296447754 C 23.69173812866211 24.67023277282715 23.98231887817383 24.96081352233887 24.32627868652344 24.96081352233887 C 24.67023849487305 24.96081352233887 24.96082878112793 24.67023277282715 24.96082878112793 24.32627296447754 C 24.96082878112793 23.98231315612793 24.67023849487305 23.69173240661621 24.32627868652344 23.69173240661621 Z"/>
        <path class="cls-5" d="M 24.77771949768066 28.65255355834961 C 24.85295867919922 28.65255355834961 24.90938949584961 28.59611320495605 24.90938949584961 28.52088356018066 L 25.09748840332031 27.50514221191406 C 25.43606948852539 27.42990303039551 25.73701858520508 27.29823303222656 26.03797912597656 27.11013221740723 L 26.8656177520752 27.7120532989502 C 26.90688896179199 27.73268890380859 26.94817352294922 27.74766731262207 26.9863395690918 27.74766731262207 C 27.01775360107422 27.74766731262207 27.04705238342285 27.73752975463867 27.07252883911133 27.7120532989502 L 27.71205902099609 27.07251358032227 C 27.76849937438965 27.01609230041504 27.74967956542969 26.94084358215332 27.71205902099609 26.8656120300293 L 27.11014938354492 26.01916313171387 C 27.27943801879883 25.73701286315918 27.41110801696777 25.4360523223877 27.50514793395996 25.09748268127441 L 28.52088928222656 24.90938377380371 C 28.59612846374512 24.90938377380371 28.65255928039551 24.85295295715332 28.65255928039551 24.77771377563477 L 28.65255928039551 23.87483215332031 C 28.65255928039551 23.79959297180176 28.59612846374512 23.74316215515137 28.52088928222656 23.74316215515137 L 27.4863395690918 23.55506324768066 C 27.41110801696777 23.23530387878418 27.27943801879883 22.9155330657959 27.11014938354492 22.63338279724121 L 27.71205902099609 21.78694343566895 C 27.74967956542969 21.71170234680176 27.76849937438965 21.63645362854004 27.71205902099609 21.59884262084961 L 27.07252883911133 20.94049263000488 C 27.04705619812012 20.91501998901367 27.01774787902832 20.90487861633301 26.9863395690918 20.90487861633301 C 26.94816970825195 20.90487861633301 26.90689468383789 20.91985511779785 26.8656177520752 20.94049263000488 L 26.01916885375977 21.54241371154785 C 25.73701858520508 21.37312316894531 25.4172477722168 21.24145317077637 25.09748840332031 21.16621208190918 L 24.90938949584961 20.13167381286621 C 24.90938949584961 20.05643272399902 24.85295867919922 20.00000381469727 24.77771949768066 20.00000381469727 L 23.87483787536621 20.00000381469727 C 23.79959869384766 20.00000381469727 23.74316787719727 20.05643272399902 23.74316787719727 20.13167381286621 L 23.55506896972656 21.16621208190918 C 23.23530960083008 21.24145317077637 22.9155387878418 21.37312316894531 22.63338851928711 21.54241371154785 L 21.78693962097168 20.94049263000488 C 21.74566841125488 20.91985702514648 21.70438575744629 20.90487861633301 21.6693229675293 20.90487861633301 C 21.64046478271484 20.90487861633301 21.61582374572754 20.91501617431641 21.59883880615234 20.94049263000488 L 20.94049835205078 21.59884262084961 C 20.88406944274902 21.63645362854004 20.90287780761719 21.71170234680176 20.94049835205078 21.78694343566895 L 21.54241943359375 22.63338279724121 C 21.37311935424805 22.9155330657959 21.24145889282227 23.23530387878418 21.16621780395508 23.55506324768066 L 20.13166809082031 23.74316215515137 C 20.05642890930176 23.74316215515137 19.99999809265137 23.79959297180176 19.99999809265137 23.87483215332031 L 19.99999809265137 24.77771377563477 C 19.99999809265137 24.85295295715332 20.05642890930176 24.90938377380371 20.13166809082031 24.90938377380371 L 21.14740943908691 25.09748268127441 C 21.24145889282227 25.4360523223877 21.37311935424805 25.73701286315918 21.54241943359375 26.01916313171387 L 20.94049835205078 26.8656120300293 C 20.90287780761719 26.94084358215332 20.88406944274902 27.01609230041504 20.94049835205078 27.07251358032227 L 21.59883880615234 27.7120532989502 C 21.61582183837891 27.73752593994141 21.64046859741211 27.74766731262207 21.6693229675293 27.74766731262207 C 21.70438766479492 27.74766731262207 21.74566268920898 27.73269081115723 21.78693962097168 27.7120532989502 L 22.61457824707031 27.11013221740723 C 22.9155387878418 27.29823303222656 23.21648788452148 27.42990303039551 23.55506896972656 27.50514221191406 L 23.74316787719727 28.52088356018066 C 23.74316787719727 28.59611320495605 23.79959869384766 28.65255355834961 23.87483787536621 28.65255355834961 L 24.77771949768066 28.65255355834961 M 24.32627868652344 22.16313362121582 C 24.92819786071777 22.16313362121582 25.47367858886719 22.40766334533691 25.84987831115723 22.80267333984375 C 26.24488830566406 23.19768333435059 26.48941802978516 23.7243537902832 26.48941802978516 24.32627296447754 C 26.48941802978516 24.92819213867188 26.24488830566406 25.47367286682129 25.84987831115723 25.84987258911133 C 25.47367858886719 26.24488258361816 24.92819786071777 26.48941230773926 24.32627868652344 26.48941230773926 C 23.7243595123291 26.48941230773926 23.19768905639648 26.24488258361816 22.80267906188965 25.84987258911133 C 22.40766906738281 25.47367286682129 22.16313934326172 24.92819213867188 22.16313934326172 24.32627296447754 C 22.16313934326172 23.7243537902832 22.40766906738281 23.19768333435059 22.80267906188965 22.80267333984375 C 23.19768905639648 22.40766334533691 23.7243595123291 22.16313362121582 24.32627868652344 22.16313362121582 M 24.32627868652344 26.28250312805176 C 24.87176895141602 26.28250312805176 25.3608283996582 26.05678367614746 25.71821784973145 25.71820259094238 C 26.05678939819336 25.36081314086914 26.28250885009766 24.87175369262695 26.28250885009766 24.32627296447754 C 26.28250885009766 23.78078269958496 26.05678939819336 23.29173278808594 25.71821784973145 22.9343433380127 C 25.3608283996582 22.59576225280762 24.87176895141602 22.37004280090332 24.32627868652344 22.37004280090332 C 23.78078842163086 22.37004280090332 23.29173851013184 22.59576225280762 22.93434906005859 22.9343433380127 C 22.59576797485352 23.29173278808594 22.37004852294922 23.78078269958496 22.37004852294922 24.32627296447754 C 22.37004852294922 24.87175369262695 22.59576797485352 25.36081314086914 22.93434906005859 25.71820259094238 C 23.29173851013184 26.05678367614746 23.78078842163086 26.28250312805176 24.32627868652344 26.28250312805176 M 24.32627868652344 23.29173278808594 C 24.89057922363281 23.29173278808594 25.3608283996582 23.76197242736816 25.3608283996582 24.32627296447754 C 25.3608283996582 24.89057350158691 24.89057922363281 25.36081314086914 24.32627868652344 25.36081314086914 C 23.76197814941406 25.36081314086914 23.29173851013184 24.89057350158691 23.29173851013184 24.32627296447754 C 23.29173851013184 23.76197242736816 23.76197814941406 23.29173278808594 24.32627868652344 23.29173278808594 M 24.77771949768066 29.45255279541016 L 23.87483787536621 29.45255279541016 C 23.39680099487305 29.45255279541016 23.00169372558594 29.09066963195801 22.9491138458252 28.62645721435547 L 22.85645866394043 28.12612533569336 C 22.7973461151123 28.10302734375 22.7385368347168 28.07826995849609 22.679931640625 28.05180549621582 L 22.25747871398926 28.35904312133789 L 22.20392799377441 28.39798355102539 L 22.14470863342285 28.42759323120117 C 21.98311805725098 28.50839233398438 21.8276195526123 28.54766273498535 21.66931915283203 28.54766273498535 C 21.41615295410156 28.54766273498535 21.1790771484375 28.44149398803711 21.01324844360352 28.25851631164551 L 20.3830680847168 27.64633369445801 L 20.37893867492676 27.6423225402832 L 20.37485885620117 27.63825225830078 C 20.14436912536621 27.40779304504395 19.98394775390625 26.98980331420898 20.22497940063477 26.50780296325684 L 20.25265884399414 26.45244216918945 L 20.28853797912598 26.40199279785156 L 20.60724067687988 25.95381927490234 C 20.58430480957031 25.90261268615723 20.56235885620117 25.85099029541016 20.54135894775391 25.79885673522949 L 20.02609443664551 25.70343780517578 C 19.56188201904297 25.65085792541504 19.19999885559082 25.25575065612793 19.19999885559082 24.77771377563477 L 19.19999885559082 23.87483215332031 C 19.19999885559082 23.39616775512695 19.56289291381836 23.00064468383789 20.02798080444336 22.94889450073242 L 20.54799461364746 22.85434722900391 C 20.56763076782227 22.80344772338867 20.58832359313965 22.7528247833252 20.61001205444336 22.70262908935547 L 20.28853797912598 22.25056266784668 L 20.25264930725098 22.20010375976562 L 20.2249584197998 22.14471244812012 C 19.98505783081055 21.66490936279297 20.13128089904785 21.24533653259277 20.40122222900391 21.00675010681152 L 21.00722885131836 20.40073204040527 C 21.17330551147461 20.21364784240723 21.41307067871094 20.10488319396973 21.66931915283203 20.10488319396973 C 21.82765960693359 20.10488319396973 21.98318862915039 20.14417266845703 22.14477920532227 20.22498321533203 L 22.20012855529785 20.25266265869141 L 22.25055885314941 20.28853225708008 L 22.70263671875 20.61001014709473 C 22.75283241271973 20.58832359313965 22.8034553527832 20.56763076782227 22.8543529510498 20.54799652099609 L 22.94890022277832 20.02798461914062 C 23.00065040588379 19.56289482116699 23.39617347717285 19.20000267028809 23.87483787536621 19.20000267028809 L 24.77771949768066 19.20000267028809 C 25.25638389587402 19.20000267028809 25.65190696716309 19.56289482116699 25.70365715026855 20.02798461914062 L 25.79820442199707 20.54799652099609 C 25.84910202026367 20.56763076782227 25.89972496032715 20.58832359313965 25.94992065429688 20.61001014709473 L 26.40199851989746 20.28853225708008 L 26.45245933532715 20.25264358520508 L 26.50784873962402 20.22495269775391 C 26.6694393157959 20.1441535949707 26.82594871520996 20.10488319396973 26.9863395690918 20.10488319396973 C 27.23263931274414 20.10488319396973 27.46414947509766 20.20074272155762 27.63821792602539 20.37480354309082 L 27.64231872558594 20.37891387939453 L 27.64635848999023 20.3830738067627 L 28.25787162780762 21.01258087158203 C 28.52360153198242 21.25214576721191 28.66554641723633 21.6688175201416 28.42759895324707 22.14471244812012 L 28.3999080657959 22.20009231567383 L 28.36402893066406 22.25056266784668 L 28.04255485534668 22.70263862609863 C 28.06425285339355 22.75285911560059 28.08492088317871 22.80342483520508 28.10456466674805 22.85434722900391 L 28.62457656860352 22.94889450073242 C 29.08966445922852 23.00064468383789 29.45255851745605 23.39616775512695 29.45255851745605 23.87483215332031 L 29.45255851745605 24.77771377563477 C 29.45255851745605 25.25575065612793 29.09067535400391 25.65085792541504 28.62646293640137 25.70343780517578 L 28.11120414733887 25.79885673522949 C 28.09021377563477 25.8509635925293 28.0682487487793 25.90263175964355 28.04532241821289 25.95381546020508 L 28.36402893066406 26.40200233459473 L 28.39989852905273 26.45244216918945 L 28.42757797241211 26.50780296325684 C 28.66862869262695 26.98984336853027 28.5081787109375 27.4078426361084 28.27764892578125 27.63830375671387 L 27.63821792602539 28.27773284912109 C 27.46414947509766 28.45180320739746 27.23263931274414 28.54766273498535 26.9863395690918 28.54766273498535 C 26.82590866088867 28.54766273498535 26.66936874389648 28.50837326049805 26.50777816772461 28.42756271362305 L 26.44859886169434 28.39796257019043 L 26.39507865905762 28.35904312133789 L 25.97262573242188 28.05180549621582 C 25.91402053833008 28.07826995849609 25.85521125793457 28.10302734375 25.79609870910645 28.12612533569336 L 25.70344352722168 28.62645721435547 C 25.65086364746094 29.09066963195801 25.25575637817383 29.45255279541016 24.77771949768066 29.45255279541016 Z M 24.32627868652344 24.09173202514648 C 24.20352935791016 24.09173202514648 24.09173774719238 24.20352363586426 24.09173774719238 24.32627296447754 C 24.09173774719238 24.44902229309082 24.20352935791016 24.56081390380859 24.32627868652344 24.56081390380859 C 24.44903945922852 24.56081390380859 24.56082916259766 24.44902229309082 24.56082916259766 24.32627296447754 C 24.56082916259766 24.20352363586426 24.44903945922852 24.09173202514648 24.32627868652344 24.09173202514648 Z"/>
      </g>
    </g>
  </g>
</svg>
