<svg id="グループ_301" data-name="グループ 301" xmlns="http://www.w3.org/2000/svg" width="49.901" height="49.902" viewBox="0 0 49.901 49.902">
  <defs>
    <style>
      .cls-1 {
        fill: #3a7cac;
      }

      .cls-2 {
        fill: #fff;
      }
    </style>
  </defs>
  <g id="グループ_298" data-name="グループ 298" transform="translate(0 0)">
    <circle id="楕円形_83" data-name="楕円形 83" class="cls-1" cx="17.643" cy="17.643" r="17.643" transform="translate(0 24.951) rotate(-45)"/>
  </g>
  <g id="グループ_300" data-name="グループ 300" transform="translate(15.165 15.188)">
    <g id="グループ_299" data-name="グループ 299">
      <path id="パス_140" data-name="パス 140" class="cls-2" d="M750.854-239.986l-3.022-3.023a1.577,1.577,0,0,0-2.222.042l-1.522,1.523-.3-.168a15.156,15.156,0,0,1-3.663-2.649,15.238,15.238,0,0,1-2.654-3.669c-.057-.1-.111-.2-.164-.294l1.022-1.02.5-.5a1.574,1.574,0,0,0,.041-2.222l-3.022-3.023a1.574,1.574,0,0,0-2.222.042l-.852.857.023.023a4.915,4.915,0,0,0-.7,1.238,5.13,5.13,0,0,0-.312,1.256c-.4,3.309,1.113,6.332,5.216,10.435,5.672,5.671,10.242,5.243,10.439,5.222a5.1,5.1,0,0,0,1.259-.316,4.916,4.916,0,0,0,1.234-.7l.018.016.863-.845A1.577,1.577,0,0,0,750.854-239.986Z" transform="translate(-731.723 255.431)"/>
    </g>
  </g>
</svg>
