<svg xmlns="http://www.w3.org/2000/svg" width="12.747" height="13.87" viewBox="0 0 12.747 13.87">
  <defs>
    <style>
      .cls-1 {
        fill: #5bb0ed;
      }
    </style>
  </defs>
  <g id="_" data-name="→｜" transform="translate(-709.4 -329.7)">
    <g id="グループ_727" data-name="グループ 727" transform="translate(711.248 331.773)">
      <path id="パス_380" data-name="パス 380" class="cls-1" d="M723.572,345.154l-1.675,1.814a.967.967,0,0,1-.725.311,1.073,1.073,0,0,1-1.071-1.054,1.059,1.059,0,0,1,.294-.743l3.489-3.489a1.086,1.086,0,0,1,1.485,0l3.489,3.489a1.063,1.063,0,0,1-.76,1.8.978.978,0,0,1-.743-.311l-1.675-1.814v7.289a1.058,1.058,0,0,1-1.054,1.054,1.069,1.069,0,0,1-1.054-1.054v-7.289Z" transform="translate(-720.1 -341.7)"/>
    </g>
    <path id="パス_381" data-name="パス 381" class="cls-1" d="M721.007,331.773H710.54a1.041,1.041,0,1,1,0-2.073h10.467a1.041,1.041,0,1,1,0,2.073Z"/>
  </g>
</svg>
