<svg xmlns="http://www.w3.org/2000/svg" width="9.028" height="13.87" viewBox="0 0 9.028 13.87">
  <defs>
    <style>
      .cls-1 {
        fill: #5bb0ed;
      }
    </style>
  </defs>
  <g id="_" data-name="↔" transform="translate(-601.4 -329.6)">
    <g id="グループ_728" data-name="グループ 728" transform="translate(601.4 329.6)">
      <path id="パス_382" data-name="パス 382" class="cls-1" d="M606.965,340.024l1.671-1.809a.965.965,0,0,1,.724-.31,1.07,1.07,0,0,1,1.068,1.051,1.056,1.056,0,0,1-.293.741l-3.48,3.48a1.083,1.083,0,0,1-1.482,0l-3.48-3.48a1.06,1.06,0,0,1,.758-1.792.976.976,0,0,1,.741.31l1.671,1.809v-9.373a1.055,1.055,0,0,1,1.051-1.051,1.067,1.067,0,0,1,1.051,1.051v9.373Z" transform="translate(-601.4 -329.6)"/>
    </g>
    <g id="グループ_729" data-name="グループ 729" transform="translate(601.4 329.6)">
      <path id="パス_383" data-name="パス 383" class="cls-1" d="M604.863,333.046l-1.671,1.809a.965.965,0,0,1-.724.31,1.07,1.07,0,0,1-1.068-1.051,1.056,1.056,0,0,1,.293-.741l3.48-3.48a1.083,1.083,0,0,1,1.482,0l3.48,3.48a1.06,1.06,0,0,1-.758,1.792.975.975,0,0,1-.741-.31l-1.671-1.809v9.373a1.055,1.055,0,0,1-1.051,1.051,1.067,1.067,0,0,1-1.051-1.051Z" transform="translate(-601.4 -329.6)"/>
    </g>
  </g>
</svg>
