<svg xmlns="http://www.w3.org/2000/svg" width="20.155" height="21.334" viewBox="0 0 20.155 21.334">
  <defs>
    <style>
      .cls-1 {
        fill: #666;
      }
    </style>
  </defs>
  <path id="_Pngtree_bell_1226641" data-name="—Pngtree—bell_1226641" class="cls-1" d="M117.672,87.788l-1.389-1.08a1.013,1.013,0,0,1-.394-.805V80.921a6.422,6.422,0,0,0-3.919-5.912,6.449,6.449,0,0,0-.862-.294v-.7a1.636,1.636,0,0,0-3.273,0v.7a6.5,6.5,0,0,0-.862.294,6.413,6.413,0,0,0-3.919,5.912V85.9a1.014,1.014,0,0,1-.394.805l-1.389,1.081a1.529,1.529,0,0,0,.939,2.738h14.522a1.528,1.528,0,0,0,.94-2.737m-2.094-.175,1.389,1.08a.383.383,0,0,1-.235.685H102.21a.383.383,0,0,1-.235-.685l1.389-1.08A2.153,2.153,0,0,0,104.2,85.9V80.92a5.27,5.27,0,1,1,10.54,0V85.9a2.154,2.154,0,0,0,.837,1.711m-6.107-14.087a.489.489,0,0,1,.489.488v.422h-.977v-.422a.489.489,0,0,1,.489-.488M109.472,73.526ZM107.3,91.546a2.167,2.167,0,1,0,4.335,0V91.5H107.3v.043M107.3,91.546Zm-3.483-16.553a.574.574,0,0,0-.722-.892,10.119,10.119,0,0,0-3.7,6.757.574.574,0,0,0,.507.633.537.537,0,0,0,.063,0,.572.572,0,0,0,.569-.51,8.934,8.934,0,0,1,3.285-5.992M103.821,74.992Zm14.517,2.078a10.137,10.137,0,0,0-2.5-2.971.574.574,0,0,0-.722.892,8.928,8.928,0,0,1,3.284,5.992.573.573,0,0,0,.569.511.547.547,0,0,0,.064,0,.574.574,0,0,0,.507-.633,10.029,10.029,0,0,0-1.206-3.787M118.339,77.07Z" transform="translate(-99.394 -72.379)"/>
</svg>
