<svg xmlns="http://www.w3.org/2000/svg" width="18.283" height="19.304" viewBox="0 0 18.283 19.304">
  <defs>
    <style>
      .cls-1 {
        fill: #707070;
      }
    </style>
  </defs>
  <g id="コメント_感想の吹き出しアイコン_25" data-name="コメント･感想の吹き出しアイコン 25" transform="translate(-13.539)">
    <path id="パス_302" data-name="パス 302" class="cls-1" d="M30.969,13.4c.035-.046.072-.09.106-.137.013-.018.023-.037.036-.055a4.016,4.016,0,0,0,.712-2.283V4.041A4.046,4.046,0,0,0,27.781,0h-10.2a4.046,4.046,0,0,0-4.042,4.041v6.879a4.046,4.046,0,0,0,4.042,4.042h5.158l4.532,4.163a.68.68,0,0,0,1.139-.493l.043-3.726a4.019,4.019,0,0,0,1.641-.674c.022-.015.042-.033.064-.049.07-.051.14-.1.206-.158s.121-.107.18-.163c.025-.023.051-.045.076-.069.059-.058.114-.12.17-.182.022-.025.046-.048.068-.073C30.9,13.493,30.932,13.443,30.969,13.4ZM18.225,9.9a.514.514,0,0,1,.513-.514h4.283a.514.514,0,1,1,0,1.027H18.739A.514.514,0,0,1,18.225,9.9Zm.513-3.209h7.884a.513.513,0,0,1,0,1.027H18.739a.513.513,0,0,1,0-1.027Zm7.884-1.668H18.739a.514.514,0,0,1,0-1.027h7.884a.514.514,0,0,1,0,1.027Z"/>
  </g>
</svg>
