<svg id="設定の歯車アイコン素材_6" data-name="設定の歯車アイコン素材 6" xmlns="http://www.w3.org/2000/svg" width="19" height="19" viewBox="0 0 19 19">
  <defs>
    <style>
      .cls-1 {
        fill: #707070;
      }
    </style>
  </defs>
  <path id="パス_312" data-name="パス 312" class="cls-1" d="M17.54,7.57l-1.059-.065a7.219,7.219,0,0,0-.634-1.532l.7-.794a1.555,1.555,0,0,0-.065-2.13l-.534-.534a1.555,1.555,0,0,0-2.13-.065l-.794.7a7.216,7.216,0,0,0-1.532-.634L11.43,1.46A1.555,1.555,0,0,0,9.878,0H9.122A1.555,1.555,0,0,0,7.57,1.46L7.506,2.519a7.208,7.208,0,0,0-1.532.634l-.794-.7a1.555,1.555,0,0,0-2.13.065l-.534.535A1.555,1.555,0,0,0,2.45,5.18l.7.794a7.213,7.213,0,0,0-.634,1.532L1.46,7.57A1.555,1.555,0,0,0,0,9.122v.756A1.555,1.555,0,0,0,1.46,11.43l1.059.065a7.211,7.211,0,0,0,.634,1.532l-.7.794a1.555,1.555,0,0,0,.065,2.13l.534.535a1.555,1.555,0,0,0,2.13.065l.794-.7a7.209,7.209,0,0,0,1.532.634L7.57,17.54A1.555,1.555,0,0,0,9.122,19h.756a1.555,1.555,0,0,0,1.552-1.46l.065-1.059a7.214,7.214,0,0,0,1.532-.634l.794.7a1.555,1.555,0,0,0,2.13-.065l.534-.534a1.555,1.555,0,0,0,.065-2.13l-.7-.794a7.22,7.22,0,0,0,.634-1.532l1.059-.065A1.555,1.555,0,0,0,19,9.878V9.122A1.555,1.555,0,0,0,17.54,7.57ZM11.562,9.5A2.062,2.062,0,1,1,9.5,7.438,2.062,2.062,0,0,1,11.562,9.5Z"/>
</svg>
