<svg xmlns="http://www.w3.org/2000/svg" width="84" height="35.5" viewBox="0 0 84 35.5">
  <defs>
    <style>
      .cls-1, .cls-3 {
        fill: #fff;
      }

      .cls-1 {
        font-size: 11px;
        font-family: HiraKakuProN-W6, Hiragino Kaku Gothic ProN;
      }

      .cls-2 {
        fill: #3aaca3;
      }
    </style>
  </defs>
  <g id="グループ_454" data-name="グループ 454" transform="translate(-269 -415)">
    <text id="はがき" class="cls-1" transform="translate(269 437)"><tspan x="0" y="0">はがき</tspan></text>
    <g id="グループ_453" data-name="グループ 453">
      <circle id="楕円形_96" data-name="楕円形 96" class="cls-2" cx="17.75" cy="17.75" r="17.75" transform="translate(317.5 415)"/>
      <g id="はがきの無料アイコン_1" data-name="はがきの無料アイコン 1" transform="translate(281.448 424.139)">
        <path id="パス_321" data-name="パス 321" class="cls-3" d="M59.185,0H48.847a1.486,1.486,0,0,0-1.484,1.485V14.843a1.486,1.486,0,0,0,1.484,1.484H59.185a1.486,1.486,0,0,0,1.484-1.484V1.485A1.486,1.486,0,0,0,59.185,0Zm-10.4,1.485a.058.058,0,0,1,.058-.059H59.185a.059.059,0,0,1,.059.059V14.843a.059.059,0,0,1-.059.059H48.847a.059.059,0,0,1-.058-.059Z" transform="translate(0 0)"/>
        <path id="パス_322" data-name="パス 322" class="cls-3" d="M129.5,87.75v0h2.458V84.726H129.5V87.75Z" transform="translate(-79.518 -82.024)"/>
        <path id="パス_323" data-name="パス 323" class="cls-3" d="M232.77,86.17v.005h1.176V84.726H232.77V86.17Z" transform="translate(-179.494 -82.024)"/>
        <path id="パス_324" data-name="パス 324" class="cls-3" d="M289.2,86.17v.005h1.176V84.726H289.2V86.17Z" transform="translate(-234.124 -82.024)"/>
        <path id="パス_325" data-name="パス 325" class="cls-3" d="M345.633,86.17v.005h1.176V84.726h-1.176V86.17Z" transform="translate(-288.758 -82.024)"/>
        <path id="パス_326" data-name="パス 326" class="cls-3" d="M133.5,388.906v1.048h0v0h7.813v-1.053Z" transform="translate(-83.39 -376.504)"/>
      </g>
    </g>
  </g>
</svg>
