<svg xmlns="http://www.w3.org/2000/svg" width="22.183" height="15.385" viewBox="0 0 22.183 15.385">
  <defs>
    <style>
      .cls-1 {
        fill: #707070;
      }
    </style>
  </defs>
  <path id="_Pngtree_people_1042237" data-name="—Pngtree—people_1042237" class="cls-1" d="M11.128,180.769a2.662,2.662,0,1,0-2.692-2.662A2.673,2.673,0,0,0,11.128,180.769Zm6.783,2.557a3.069,3.069,0,1,0,0-6.136,3.069,3.069,0,0,0-3.113,3.053A3.1,3.1,0,0,0,17.911,183.326Zm6.8-2.557a2.662,2.662,0,1,0-2.692-2.662A2.673,2.673,0,0,0,24.709,180.769Zm.271,1.173h-.541a4.022,4.022,0,0,0-3.775,2.617,5.708,5.708,0,0,1,2.662,2.692h5.008a.674.674,0,0,0,.677-.677v-.617A4.028,4.028,0,0,0,24.979,181.942ZM15.144,184.5a4.038,4.038,0,0,0-3.745-2.557h-.541a4.028,4.028,0,0,0-4.031,4.016v.617a.674.674,0,0,0,.677.677h4.858A5.572,5.572,0,0,1,15.144,184.5Zm3.249.18H17.46a4.531,4.531,0,0,0-4.527,4.527v.812a.809.809,0,0,0,.812.812h8.392a.809.809,0,0,0,.812-.812v-.812A4.577,4.577,0,0,0,18.392,184.68Z" transform="translate(-6.827 -175.445)"/>
</svg>
