<svg xmlns="http://www.w3.org/2000/svg" viewBox="0 0 251.85 51.1">
  <defs>
    <style>
      .a {
        fill: #fff;
      }

      .b {
        fill: none;
        stroke: #fff;
        stroke-miterlimit: 10;
        stroke-width: 0.25px;
      }
    </style>
  </defs>
  <title>アートボード</title>
  <g>
    <g>
      <polygon class="a" points="85.98 28.42 117.9 28.43 119.35 24.35 87.42 24.37 85.98 28.42"/>
      <polygon class="a" points="23.08 15.61 47.6 15.62 46.48 18.76 16.12 35.13 14.69 39.13 35 28.83 43.25 39.14 44.71 35.03 38.2 27.21 49.55 21.46 52.97 11.97 24.37 12 23.08 15.61"/>
      <polygon class="a" points="84.88 21.44 88.25 11.97 56.37 12 55.08 15.61 82.92 15.62 81.8 18.77 65 27.83 62.07 24.17 60.59 28.27 69.29 39.14 70.75 35.03 67.11 30.48 84.9 21.46 84.88 21.44"/>
      <polygon class="a" points="135.2 11.95 131.1 11.95 121.41 39.13 125.5 39.13 129.48 27.98 149.6 28 150.9 24.35 130.77 24.38 135.2 11.95"/>
      <g>
        <polygon class="a" points="235.86 19.34 237.16 15.7 202.11 15.72 200.82 19.33 207.73 19.34 206.59 22.5 197.61 28.33 201.82 28.33 210.44 23.14 211.81 19.34 224.05 19.34 222.69 23.15 228.45 28.33 232.66 28.33 226.91 22.81 226.89 22.81 228.14 19.34 235.86 19.34"/>
        <polygon class="a" points="214.43 12 210.34 12 209.22 15.15 213.29 15.15 214.43 12"/>
        <polygon class="a" points="222.75 12 218.66 12 217.54 15.15 221.62 15.15 222.75 12"/>
        <polygon class="a" points="230.78 12 226.69 12 225.57 15.15 229.65 15.15 230.78 12"/>
        <polygon class="a" points="215.48 32.37 216.01 30.87 224.03 30.87 225.16 27.7 217.14 27.7 217.63 26.33 220.86 26.33 221.99 23.16 211.11 23.16 209.98 26.33 213.54 26.33 213.05 27.7 204.74 27.7 203.61 30.87 211.92 30.87 211.39 32.37 196.17 32.37 195.04 35.53 210.26 35.53 208.98 39.13 213.06 39.13 214.35 35.53 230.16 35.53 231.29 32.37 215.48 32.37"/>
      </g>
      <g>
        <polygon class="a" points="162.25 21.4 155.37 21.4 154.24 24.57 157.03 24.57 151.84 39.14 190.34 39.14 191.65 35.53 157.22 35.52 162.25 21.4"/>
        <path class="a" d="M180.07,23.53l-.38,1.08h-4l.38-1.08H172l-.39,1.08h-7.23l-.9,2.52h7.24l-.56,1.58H161.2l-.89,2.52h8.94l-.23.65h4.09l.24-.65h4l-.24.67h4.09l.24-.67h8.89l.89-2.48h-8.89l.56-1.6h7.3l.88-2.48h-7.29l.39-1.08Zm-1.84,5.17h-4l.56-1.59h4Z"/>
        <polygon class="a" points="165.79 15.87 163.51 22.27 177.72 22.23 178.6 19.75 168.49 19.75 168.99 18.37 179.1 18.35 181.37 12.01 167.14 12 166.25 14.47 176.41 14.47 175.91 15.87 165.79 15.87"/>
        <polygon class="a" points="167.98 34.78 172.04 34.78 172.9 32.42 168.81 32.42 167.98 34.78"/>
        <polygon class="a" points="176.05 34.86 180.12 34.86 180.97 32.5 176.88 32.5 176.05 34.86"/>
        <polygon class="a" points="165.62 12.02 161.54 12.01 158.94 19.34 163.02 19.34 165.62 12.02"/>
        <polygon class="a" points="194.9 18.35 197.17 12.01 182.94 12 182.04 14.47 192.21 14.47 191.71 15.87 181.59 15.87 179.31 22.27 193.52 22.23 194.41 19.75 184.29 19.75 184.78 18.37 194.9 18.35"/>
      </g>
    </g>
    <path class="a" d="M251.85,0H0V51.1H251.85Zm-3.7,47.48H3.62V3.62H248.15Z"/>
  </g>
  <rect class="b" x="-15.81" y="-22.61" width="283.46" height="113.39"/>
</svg>
