<svg xmlns="http://www.w3.org/2000/svg" width="35.5" height="35.5" viewBox="0 0 35.5 35.5">
  <defs>
    <style>
      .cls-1 {
        fill: #3a7cac;
      }

      .cls-2 {
        fill: #fff;
      }
    </style>
  </defs>
  <g id="グループ_434" data-name="グループ 434" transform="translate(-317.5 -222.4)">
    <circle id="楕円形_97" data-name="楕円形 97" class="cls-1" cx="17.75" cy="17.75" r="17.75" transform="translate(317.5 222.4)"/>
    <g id="export_1_" data-name="export (1)" transform="translate(324.931 231.9)">
      <path id="パス_180" data-name="パス 180" class="cls-2" d="M14.925,23.348H12.57v1.4h2.355c.7,0,1.243.358,1.243.665v6.2c0,.308-.543.665-1.243.665h-8.9c-.7,0-1.243-.358-1.243-.665v-6.2c0-.308.543-.666,1.243-.666H8.379v-1.4H6.025c-1.481,0-2.641.906-2.641,2.063v6.2c0,1.157,1.16,2.063,2.641,2.063h8.9c1.48,0,2.641-.906,2.641-2.063v-6.2C17.565,24.254,16.405,23.348,14.925,23.348Z" transform="translate(0 -17.911)"/>
      <path id="パス_181" data-name="パス 181" class="cls-2" d="M22.655,3.482a.7.7,0,0,0,.494-.2l.875-.875V9.51a.7.7,0,0,0,1.4,0V2.356l.922.922a.7.7,0,0,0,.988-.988L25.244.2a.7.7,0,0,0-.494-.2H24.74a.7.7,0,0,0-.494.2L22.161,2.29a.7.7,0,0,0,.494,1.192Z" transform="translate(-14.247)"/>
    </g>
  </g>
</svg>
