<svg xmlns="http://www.w3.org/2000/svg" width="19" height="19.54" viewBox="0 0 19 19.54"><defs><style>.a{fill:#aaa;}</style></defs><g transform="translate(-7.073)"><path class="a" d="M121.326,3.951a1.106,1.106,0,0,0,1.105-1.106V1.105a1.106,1.106,0,0,0-2.211,0v1.74A1.106,1.106,0,0,0,121.326,3.951Z" transform="translate(-108.829)"/><path class="a" d="M334.949,3.951a1.106,1.106,0,0,0,1.105-1.106V1.105a1.106,1.106,0,0,0-2.211,0v1.74A1.106,1.106,0,0,0,334.949,3.951Z" transform="translate(-314.299)"/><path class="a" d="M23.411,41.287h-.684v1.27a2.077,2.077,0,1,1-4.154,0v-1.27h-4v1.27a2.077,2.077,0,1,1-4.154,0v-1.27H9.735a2.662,2.662,0,0,0-2.662,2.662V56.589a2.662,2.662,0,0,0,2.662,2.662H23.411a2.662,2.662,0,0,0,2.662-2.662V43.949A2.662,2.662,0,0,0,23.411,41.287Zm.567,14.834a1.235,1.235,0,0,1-1.234,1.234H10.4a1.235,1.235,0,0,1-1.234-1.234V46.233H23.978v9.889Z" transform="translate(0 -39.711)"/><path class="a" d="M141.951,224.2h3.367a.161.161,0,0,0,.166-.167v-.705a.161.161,0,0,0-.166-.167h-2.069l1.653-2a2.2,2.2,0,0,0,.582-1.452,1.7,1.7,0,0,0-1.841-1.753,1.731,1.731,0,0,0-1.858,1.5.174.174,0,0,0,.028.131.16.16,0,0,0,.1.065l.778.159.032,0a.155.155,0,0,0,.156-.141.7.7,0,0,1,.733-.681.67.67,0,0,1,.715.714,1.33,1.33,0,0,1-.371.868l-2.11,2.629a.212.212,0,0,0-.067.17v.661A.161.161,0,0,0,141.951,224.2Z" transform="translate(-129.568 -209.629)"/><path class="a" d="M264.686,222.416a2.019,2.019,0,0,0,4.027,0,1.76,1.76,0,0,0-.7-1.448,1.6,1.6,0,0,0,.572-1.232,1.883,1.883,0,0,0-3.762,0,1.6,1.6,0,0,0,.572,1.232A1.762,1.762,0,0,0,264.686,222.416Zm2.01-3.429a.708.708,0,0,1,.732.732.728.728,0,1,1-1.455,0A.7.7,0,0,1,266.7,218.987Zm0,2.5a.882.882,0,1,1-.856.882A.827.827,0,0,1,266.7,221.49Z" transform="translate(-247.782 -209.63)"/></g></svg>