<svg xmlns="http://www.w3.org/2000/svg" width="84" height="35.5" viewBox="0 0 84 35.5">
  <defs>
    <style>
      .cls-1, .cls-3 {
        fill: #fff;
      }

      .cls-1 {
        font-size: 11px;
        font-family: HiraKakuProN-W6, Hiragino Kaku Gothic ProN;
      }

      .cls-2 {
        fill: #3aaca3;
      }
    </style>
  </defs>
  <g id="グループ_458" data-name="グループ 458" transform="translate(-269 -552)">
    <text id="シール" class="cls-1" transform="translate(269 575)"><tspan x="0" y="0">シール</tspan></text>
    <g id="グループ_457" data-name="グループ 457">
      <circle id="楕円形_127" data-name="楕円形 127" class="cls-2" cx="17.75" cy="17.75" r="17.75" transform="translate(317.5 552)"/>
      <g id="汎用的なレポート用紙のアイコン素材" transform="translate(343.148 563.656) rotate(90)">
        <path id="パス_327" data-name="パス 327" class="cls-3" d="M10.887,15.367H2.405A2.409,2.409,0,0,1,0,12.96V2.406A2.408,2.408,0,0,1,2.405,0H8.48c.046,0,.092,0,.136,0A4.8,4.8,0,0,1,13.29,4.677c0,.044,0,.09,0,.134V12.96A2.409,2.409,0,0,1,10.887,15.367ZM8.946,3.549V1.233A3.63,3.63,0,0,0,8.571,1.2c-.029,0-.06,0-.091,0H2.405a1.2,1.2,0,0,0-1.2,1.2V12.96a1.2,1.2,0,0,0,1.2,1.205h8.482a1.2,1.2,0,0,0,1.2-1.205V4.811c0-.029,0-.06,0-.089a3.639,3.639,0,0,0-.029-.375H9.743A.8.8,0,0,1,8.946,3.549Z"/>
        <path id="パス_328" data-name="パス 328" class="cls-3" d="M0,0H6.655V.806H0V0H0Z" transform="translate(8.049 5.663) rotate(90)"/>
        <path id="パス_329" data-name="パス 329" class="cls-3" d="M6.655.806H0V0H0V0H6.655Z" transform="translate(6.049 5.663) rotate(90)"/>
        <path id="パス_330" data-name="パス 330" class="cls-3" d="M0,0V0H6.655V.806H0V0Z" transform="translate(4.049 5.663) rotate(90)"/>
        <path id="パス_331" data-name="パス 331" class="cls-3" d="M0,.806V0H0V0H3.591V.806Z" transform="translate(10.15 8.723) rotate(90)"/>
      </g>
    </g>
  </g>
</svg>
