<svg xmlns="http://www.w3.org/2000/svg" width="128.216" height="36.576" viewBox="0 0 128.216 36.576">
  <defs>
    <style>
      .cls-1 {
        fill: #fff;
      }

      .cls-2 {
        fill: #2a3f54;
      }
    </style>
  </defs>
  <g id="グループ_403" data-name="グループ 403" transform="translate(-24.365 -176.378)">
    <g id="グループ_401" data-name="グループ 401" transform="translate(24.365 176.378)">
      <g id="グループ_400" data-name="グループ 400" transform="translate(7.477 6.086)">
        <path id="パス_250" data-name="パス 250" class="cls-1" d="M110.344,202.8l16.251.006.74-2.08-16.257.013Z" transform="translate(-74.05 -194.416)"/>
        <path id="パス_251" data-name="パス 251" class="cls-1" d="M43.324,190.2l12.486,0-.572,1.6-15.454,8.337-.731,2.037,10.34-5.244,4.2,5.246.743-2.092-3.315-3.979,5.779-2.93,1.744-4.828-14.563.014Z" transform="translate(-39.053 -188.341)"/>
        <path id="パス_252" data-name="パス 252" class="cls-1" d="M94.614,193.171l1.716-4.82-16.233.014L79.44,190.2l14.175,0-.571,1.606-8.55,4.612L83,194.559l-.753,2.088,4.43,5.533.743-2.092-1.853-2.318,9.055-4.591Z" transform="translate(-58.879 -188.341)"/>
        <path id="パス_253" data-name="パス 253" class="cls-1" d="M152.8,188.332h-2.085l-4.934,13.837h2.082l2.025-5.676,10.243.005.663-1.857-10.25.014Z" transform="translate(-91.444 -188.332)"/>
        <g id="グループ_398" data-name="グループ 398" transform="translate(91.818 0.023)">
          <path id="パス_254" data-name="パス 254" class="cls-1" d="M241.448,193.932l.663-1.857-17.846.014-.657,1.837h3.517l-.577,1.612-4.574,2.968h2.142l4.389-2.642.7-1.937,6.231,0-.694,1.938,2.932,2.64h2.142l-2.926-2.813h-.012l.638-1.764Z" transform="translate(-220.667 -190.193)"/>
          <path id="パス_255" data-name="パス 255" class="cls-1" d="M236.234,188.378h-2.081l-.57,1.6,2.075,0Z" transform="translate(-226.367 -188.378)"/>
          <path id="パス_256" data-name="パス 256" class="cls-1" d="M244.561,188.378H242.48l-.57,1.6,2.075,0Z" transform="translate(-230.455 -188.378)"/>
          <path id="パス_257" data-name="パス 257" class="cls-1" d="M252.587,188.378h-2.081l-.57,1.6,2.075,0Z" transform="translate(-234.395 -188.378)"/>
          <path id="パス_258" data-name="パス 258" class="cls-1" d="M229.812,204.227l.272-.762h4.08l.575-1.611h-4.08l.245-.7h1.645l.575-1.611H227.59l-.576,1.613h1.811l-.249.7h-4.233l-.576,1.613H228l-.272.762h-7.746l-.576,1.613h7.747l-.654,1.833h2.082l.654-1.833h8.049l.575-1.611Z" transform="translate(-219.408 -193.859)"/>
        </g>
        <g id="グループ_399" data-name="グループ 399" transform="translate(69.824 0.025)">
          <path id="パス_259" data-name="パス 259" class="cls-1" d="M181.506,197.777H178l-.576,1.613h1.422l-2.642,7.422,19.6,0,.666-1.839-17.526,0Z" transform="translate(-176.205 -192.993)"/>
          <path id="パス_260" data-name="パス 260" class="cls-1" d="M194.734,199.909l-.2.549H192.5l.2-.549h-2.085l-.194.549h-3.685l-.454,1.281,3.686,0-.286.8h-4.554l-.454,1.281,4.555-.005-.117.329h2.082l.118-.331,2.036,0-.12.339h2.082l.122-.341,4.529,0,.449-1.264h-4.526l.289-.811,3.715,0,.449-1.264h-3.712l.2-.55Zm-.935,2.629h-2.036l.287-.806,2.037,0Z" transform="translate(-180.362 -194.04)"/>
          <path id="パス_261" data-name="パス 261" class="cls-1" d="M189.036,190.347l-1.165,3.258,7.238-.017.449-1.263h-5.15l.253-.7,5.147-.012,1.158-3.23h-7.244l-.456,1.258h5.175l-.254.71Z" transform="translate(-181.932 -188.38)"/>
          <path id="パス_262" data-name="パス 262" class="cls-1" d="M192.343,210h2.071l.437-1.2h-2.081Z" transform="translate(-184.128 -198.401)"/>
          <path id="パス_263" data-name="パス 263" class="cls-1" d="M200.413,210.078h2.071l.437-1.2h-2.081Z" transform="translate(-188.089 -198.441)"/>
          <path id="パス_264" data-name="パス 264" class="cls-1" d="M186.705,188.394l-2.077,0-1.323,3.729h2.075Z" transform="translate(-179.691 -188.385)"/>
          <path id="パス_265" data-name="パス 265" class="cls-1" d="M211.607,191.612l1.158-3.23h-7.244l-.456,1.258h5.175l-.254.71h-5.151L203.67,193.6l7.238-.017.449-1.263h-5.15l.253-.7Z" transform="translate(-189.688 -188.38)"/>
        </g>
      </g>
      <path id="パス_266" data-name="パス 266" class="cls-1" d="M152.581,176.378H24.365v26.014H152.581ZM150.7,200.549H26.208V178.221H150.7Z" transform="translate(-24.365 -176.378)"/>
    </g>
    <path id="パス_267" data-name="パス 267" class="cls-1" d="M89.177,241.932l59.691.018,2.718-6.505-59.712.04Z" transform="translate(-31.817 -28.996)"/>
    <g id="グループ_402" data-name="グループ 402" transform="translate(64.636 207.349)">
      <path id="パス_268" data-name="パス 268" class="cls-2" d="M105.458,241.206a.591.591,0,0,1,.122.489.81.81,0,0,1-.287.464.749.749,0,0,1-.5.2h-1.124a.2.2,0,0,1-.159-.064.206.206,0,0,1-.036-.174.274.274,0,0,1,.095-.168.271.271,0,0,1,.18-.064h1.124a.179.179,0,0,0,.079-.021l.085-.04a.143.143,0,0,0,.04-.064.5.5,0,0,1,.021-.064.2.2,0,0,0,0-.076q-.009-.034-.021-.07-.257-.257-.513-.522t-.507-.528a.564.564,0,0,1-.122-.489.717.717,0,0,1,.1-.257.952.952,0,0,1,.18-.214.726.726,0,0,1,.507-.2h.977a.217.217,0,0,1,.165.064.184.184,0,0,1,.043.168.3.3,0,0,1-.1.18.282.282,0,0,1-.183.064h-.977a.219.219,0,0,0-.153.055.273.273,0,0,0-.073.134.547.547,0,0,0-.006.076.062.062,0,0,0,.024.052s.087.095.26.272S105.12,240.852,105.458,241.206Z" transform="translate(-103.468 -238.259)"/>
      <path id="パス_269" data-name="パス 269" class="cls-2" d="M112.907,239.355a.874.874,0,0,1,.373.079.791.791,0,0,1,.446.531.9.9,0,0,1,.012.391l-.312,1.766a.273.273,0,0,1-.1.174.283.283,0,0,1-.183.064.207.207,0,0,1-.162-.064.2.2,0,0,1-.04-.174l.312-1.766a.49.49,0,0,0-.006-.2.419.419,0,0,0-.082-.165.428.428,0,0,0-.147-.113.451.451,0,0,0-.2-.043h-.232a.534.534,0,0,0-.211.043.706.706,0,0,0-.183.113.685.685,0,0,0-.141.165.566.566,0,0,0-.076.2l-.312,1.766a.263.263,0,0,1-.1.174.284.284,0,0,1-.171.064.217.217,0,0,1-.165-.064.193.193,0,0,1-.043-.174l.312-1.766a.49.49,0,0,0-.006-.2.42.42,0,0,0-.082-.165.429.429,0,0,0-.147-.113.451.451,0,0,0-.2-.043h-.238a.569.569,0,0,0-.385.15.673.673,0,0,0-.22.363l-.318,1.778a.273.273,0,0,1-.1.174.283.283,0,0,1-.183.064.2.2,0,0,1-.159-.064.2.2,0,0,1-.037-.174l.365-2.058a.755.755,0,0,1,.16-.3,2.053,2.053,0,0,1,.157-.144,1.378,1.378,0,0,1,.8-.264h.238a.851.851,0,0,1,.412.1.883.883,0,0,1,.3.257,1.367,1.367,0,0,1,.376-.257,1.041,1.041,0,0,1,.443-.1Z" transform="translate(-106.39 -238.264)"/>
      <path id="パス_270" data-name="パス 270" class="cls-2" d="M191.2,239.355a.874.874,0,0,1,.373.079.791.791,0,0,1,.446.531.9.9,0,0,1,.012.391l-.312,1.766a.273.273,0,0,1-.1.174.283.283,0,0,1-.183.064.207.207,0,0,1-.162-.064.2.2,0,0,1-.04-.174l.312-1.766a.49.49,0,0,0-.006-.2.419.419,0,0,0-.082-.165.429.429,0,0,0-.147-.113.451.451,0,0,0-.2-.043h-.232a.534.534,0,0,0-.211.043.706.706,0,0,0-.183.113.686.686,0,0,0-.141.165.566.566,0,0,0-.076.2l-.312,1.766a.263.263,0,0,1-.1.174.284.284,0,0,1-.171.064.217.217,0,0,1-.165-.064.193.193,0,0,1-.043-.174l.312-1.766a.49.49,0,0,0-.006-.2.42.42,0,0,0-.082-.165.429.429,0,0,0-.147-.113.451.451,0,0,0-.2-.043h-.238a.569.569,0,0,0-.385.15.672.672,0,0,0-.22.363l-.318,1.778a.272.272,0,0,1-.1.174.283.283,0,0,1-.183.064.2.2,0,0,1-.159-.064.2.2,0,0,1-.037-.174l.365-2.058a.755.755,0,0,1,.16-.3,2.057,2.057,0,0,1,.157-.144,1.378,1.378,0,0,1,.8-.264h.238a.851.851,0,0,1,.412.1.883.883,0,0,1,.3.257,1.367,1.367,0,0,1,.376-.257,1.041,1.041,0,0,1,.443-.1Z" transform="translate(-144.825 -238.264)"/>
      <path id="パス_271" data-name="パス 271" class="cls-2" d="M121.028,239.355a.7.7,0,0,1,.272.055.552.552,0,0,1,.217.159.64.64,0,0,1,.122.531l-.36,2.022a.285.285,0,0,1-.092.174.26.26,0,0,1-.177.064.264.264,0,0,1-.144-.037.148.148,0,0,1-.07-.1,1.15,1.15,0,0,1-.55.141h-.281a.918.918,0,0,1-.379-.076.763.763,0,0,1-.443-.528.931.931,0,0,1-.009-.391,1.273,1.273,0,0,1,.773-.919,1.123,1.123,0,0,1,.406-.076h.623a.2.2,0,0,0,.141-.049h-.006a.219.219,0,0,0,.067-.141l.018-.079a.289.289,0,0,0,0-.11.161.161,0,0,0-.046-.086.19.19,0,0,0-.171-.073h-1.087a.2.2,0,0,1-.162-.067.2.2,0,0,1-.04-.171.3.3,0,0,1,.1-.174.282.282,0,0,1,.183-.064Zm-.318,2.383a.583.583,0,0,0,.22-.373l.1-.531a.42.42,0,0,1-.086.015q-.043,0-.092,0h-.623a.6.6,0,0,0-.394.147.622.622,0,0,0-.217.367.444.444,0,0,0,.089.37.411.411,0,0,0,.339.156h.281a.554.554,0,0,0,.2-.04A.579.579,0,0,0,120.71,241.738Z" transform="translate(-111.151 -238.264)"/>
      <path id="パス_272" data-name="パス 272" class="cls-2" d="M127.507,239.355a.2.2,0,0,1,.159.064.192.192,0,0,1,.03.174.289.289,0,0,1-.094.171.266.266,0,0,1-.18.067h-.391a.565.565,0,0,0-.2.037.606.606,0,0,0-.184.11.645.645,0,0,0-.219.367l-.318,1.778a.273.273,0,0,1-.1.174.283.283,0,0,1-.183.064.215.215,0,0,1-.153-.064.184.184,0,0,1-.049-.174l.446-2.529a.287.287,0,0,1,.11-.174.282.282,0,0,1,.171-.064.223.223,0,0,1,.138.04.2.2,0,0,1,.07.107,1.124,1.124,0,0,1,.556-.147Z" transform="translate(-114.343 -238.264)"/>
      <path id="パス_273" data-name="パス 273" class="cls-2" d="M131.8,240.839a.2.2,0,0,1,.153.064.184.184,0,0,1,.043.168.268.268,0,0,1-.1.174.279.279,0,0,1-.174.064h-.269a1.1,1.1,0,0,1-.455-.092.923.923,0,0,1-.339-.254.949.949,0,0,1-.189-.379,1.12,1.12,0,0,1-.012-.467l.487-2.666a.3.3,0,0,1,.1-.175.285.285,0,0,1,.184-.064.212.212,0,0,1,.155.064.179.179,0,0,1,.04.175l-.169.852h.788a.207.207,0,0,1,.162.064.185.185,0,0,1,.034.174.281.281,0,0,1-.1.171.275.275,0,0,1-.183.067h-.788l-.232,1.338a.608.608,0,0,0,0,.278.59.59,0,0,0,.113.229.571.571,0,0,0,.2.156.633.633,0,0,0,.275.058Z" transform="translate(-116.709 -237.213)"/>
      <path id="パス_274" data-name="パス 274" class="cls-2" d="M137.928,241.206a.592.592,0,0,1,.122.489.813.813,0,0,1-.287.464.749.749,0,0,1-.5.2h-1.124a.2.2,0,0,1-.159-.064.206.206,0,0,1-.036-.174.274.274,0,0,1,.095-.168.27.27,0,0,1,.18-.064h1.124a.175.175,0,0,0,.079-.021l.086-.04a.147.147,0,0,0,.04-.064.5.5,0,0,1,.021-.064.2.2,0,0,0,0-.076c-.007-.022-.013-.046-.021-.07q-.257-.257-.513-.522t-.507-.528a.564.564,0,0,1-.122-.489.717.717,0,0,1,.1-.257.952.952,0,0,1,.18-.214.726.726,0,0,1,.507-.2h.977a.218.218,0,0,1,.165.064.185.185,0,0,1,.043.168.3.3,0,0,1-.1.18.282.282,0,0,1-.183.064h-.977a.218.218,0,0,0-.153.055.273.273,0,0,0-.073.134.479.479,0,0,0-.006.076.062.062,0,0,0,.024.052s.087.095.26.272S137.589,240.852,137.928,241.206Z" transform="translate(-119.408 -238.259)"/>
      <path id="パス_275" data-name="パス 275" class="cls-2" d="M143.006,239.355a.959.959,0,0,1,.788.354.9.9,0,0,1,.192.382,1.11,1.11,0,0,1,.009.455l-.049.281a.289.289,0,0,1-.1.174.28.28,0,0,1-.186.07h-1.674l-.018.1a.6.6,0,0,0,0,.278.568.568,0,0,0,.116.229.6.6,0,0,0,.2.156.618.618,0,0,0,.269.058h.629a.189.189,0,0,1,.156.064.2.2,0,0,1,.034.168.285.285,0,0,1-.092.174.26.26,0,0,1-.177.064h-.629a1.081,1.081,0,0,1-.452-.092.93.93,0,0,1-.336-.254.949.949,0,0,1-.189-.379,1.119,1.119,0,0,1-.012-.467l.11-.623a1.364,1.364,0,0,1,.5-.843v.006a1.419,1.419,0,0,1,.434-.266A1.31,1.31,0,0,1,143.006,239.355Zm.507,1.191a.623.623,0,0,0-.122-.507.566.566,0,0,0-.47-.208.8.8,0,0,0-.538.208.856.856,0,0,0-.2.235.806.806,0,0,0-.1.272l-.012.049H143.5Z" transform="translate(-122.124 -238.264)"/>
      <path id="パス_276" data-name="パス 276" class="cls-2" d="M149.62,239.355a.868.868,0,0,1,.376.079.819.819,0,0,1,.281.214.811.811,0,0,1,.162.318.9.9,0,0,1,.012.391l-.312,1.766a.268.268,0,0,1-.1.174.272.272,0,0,1-.168.064.225.225,0,0,1-.171-.064.193.193,0,0,1-.043-.174l.312-1.766a.49.49,0,0,0-.006-.2.42.42,0,0,0-.082-.165.428.428,0,0,0-.147-.113.451.451,0,0,0-.2-.043h-.379a.547.547,0,0,0-.208.04.659.659,0,0,0-.18.11.686.686,0,0,0-.141.165.674.674,0,0,0-.082.2l-.318,1.778a.278.278,0,0,1-.095.174.271.271,0,0,1-.18.064.217.217,0,0,1-.165-.064.193.193,0,0,1-.043-.174l.338-1.915a1.282,1.282,0,0,1,.066-.251,1.145,1.145,0,0,1,.31-.366,1.583,1.583,0,0,1,.236-.124,1.313,1.313,0,0,1,.547-.111Z" transform="translate(-125.202 -238.264)"/>
      <path id="パス_277" data-name="パス 277" class="cls-2" d="M156.866,240.973v-.006a.211.211,0,0,1-.012.183.321.321,0,0,1-.147.147.257.257,0,0,1-.183.006.183.183,0,0,1-.123-.116l-.685-1.4h-.3l-.231,1.281a.293.293,0,0,1-.089.174.264.264,0,0,1-.186.064.2.2,0,0,1-.159-.064.2.2,0,0,1-.037-.174l.66-3.619a.315.315,0,0,1,.1-.175.26.26,0,0,1,.177-.064.2.2,0,0,1,.168.064.2.2,0,0,1,.027.175l-.343,1.867h.373q.177-.115.36-.232c.122-.078.58-.383.7-.46a.288.288,0,0,1,.183-.037.164.164,0,0,1,.134.079.3.3,0,0,1,.006.2.252.252,0,0,1-.122.156l-.033.022c-.11.069-.514.332-.6.389l-.305.2Z" transform="translate(-128.623 -237.213)"/>
      <path id="パス_278" data-name="パス 278" class="cls-2" d="M163.59,239.359a.178.178,0,0,1,.089.141.317.317,0,0,1-.04.183l-2.255,3.5a.332.332,0,0,1-.162.122.2.2,0,0,1-.18-.012h.006a.174.174,0,0,1-.107-.14.38.38,0,0,1,.058-.214l.746-1.146-.339-1.051q-.168-.519-.333-1.051a.227.227,0,0,1,.021-.189.449.449,0,0,1,.15-.147.184.184,0,0,1,.174-.009.218.218,0,0,1,.107.131l.568,1.778q.293-.44.574-.886t.574-.892a.359.359,0,0,1,.165-.128A.207.207,0,0,1,163.59,239.359Z" transform="translate(-131.681 -238.25)"/>
      <path id="パス_279" data-name="パス 279" class="cls-2" d="M169.255,239.709a.905.905,0,0,1,.192.382,1.1,1.1,0,0,1,.009.455l-.11.623a1.324,1.324,0,0,1-.174.467,1.522,1.522,0,0,1-.751.632,1.313,1.313,0,0,1-.48.092,1.081,1.081,0,0,1-.452-.092.9.9,0,0,1-.333-.254.972.972,0,0,1-.186-.379,1.119,1.119,0,0,1-.012-.467l.11-.623a1.349,1.349,0,0,1,.171-.455,1.489,1.489,0,0,1,.324-.382h-.006a1.334,1.334,0,0,1,.434-.266,1.359,1.359,0,0,1,.477-.089,1.1,1.1,0,0,1,.446.089A.887.887,0,0,1,169.255,239.709Zm-1.234,2.181a.746.746,0,0,0,.287-.058.973.973,0,0,0,.455-.385.842.842,0,0,0,.113-.278l.11-.623a.621.621,0,0,0-.122-.507.59.59,0,0,0-.483-.208.844.844,0,0,0-.538.208.9.9,0,0,0-.2.235.817.817,0,0,0-.1.272l-.11.623a.609.609,0,0,0,0,.278.569.569,0,0,0,.116.229.61.61,0,0,0,.2.156A.6.6,0,0,0,168.021,241.89Z" transform="translate(-134.626 -238.264)"/>
      <path id="パス_280" data-name="パス 280" class="cls-2" d="M173.383,244.335a.219.219,0,0,1,.174.073.211.211,0,0,1,.046.183.325.325,0,0,1-.113.189.3.3,0,0,1-.2.073.218.218,0,0,1-.177-.073.213.213,0,0,1-.037-.189.307.307,0,0,1,.305-.257Z" transform="translate(-137.636 -240.709)"/>
      <path id="パス_281" data-name="パス 281" class="cls-2" d="M177.507,239.832a.746.746,0,0,0-.287.058.967.967,0,0,0-.254.153.9.9,0,0,0-.192.226.781.781,0,0,0-.1.278l-.11.623a.609.609,0,0,0,0,.278.568.568,0,0,0,.116.229.61.61,0,0,0,.2.156.6.6,0,0,0,.266.058h.519a.2.2,0,0,1,.159.064.194.194,0,0,1,.037.168.278.278,0,0,1-.095.174.271.271,0,0,1-.18.064h-.519a1.1,1.1,0,0,1-.455-.092.9.9,0,0,1-.336-.254.972.972,0,0,1-.186-.379,1.12,1.12,0,0,1-.012-.467l.11-.623a1.324,1.324,0,0,1,.174-.461,1.553,1.553,0,0,1,.321-.379,1.526,1.526,0,0,1,.425-.257,1.289,1.289,0,0,1,.486-.095h.519a.207.207,0,0,1,.162.064.186.186,0,0,1,.034.174.281.281,0,0,1-.1.171.275.275,0,0,1-.183.067Z" transform="translate(-139.103 -238.264)"/>
      <path id="パス_282" data-name="パス 282" class="cls-2" d="M183.822,239.709a.9.9,0,0,1,.192.382,1.1,1.1,0,0,1,.009.455l-.11.623a1.325,1.325,0,0,1-.174.467,1.523,1.523,0,0,1-.751.632,1.311,1.311,0,0,1-.48.092,1.081,1.081,0,0,1-.452-.092.9.9,0,0,1-.333-.254.972.972,0,0,1-.186-.379,1.12,1.12,0,0,1-.012-.467l.11-.623a1.361,1.361,0,0,1,.171-.455,1.488,1.488,0,0,1,.324-.382h-.006a1.334,1.334,0,0,1,.434-.266,1.358,1.358,0,0,1,.476-.089,1.1,1.1,0,0,1,.446.089A.887.887,0,0,1,183.822,239.709Zm-1.234,2.181a.746.746,0,0,0,.287-.058.974.974,0,0,0,.455-.385.843.843,0,0,0,.113-.278l.11-.623a.621.621,0,0,0-.122-.507.59.59,0,0,0-.483-.208.844.844,0,0,0-.538.208.9.9,0,0,0-.2.235.816.816,0,0,0-.1.272l-.11.623a.608.608,0,0,0,0,.278.569.569,0,0,0,.116.229.61.61,0,0,0,.2.156A.6.6,0,0,0,182.588,241.89Z" transform="translate(-141.777 -238.264)"/>
    </g>
  </g>
</svg>
