<svg xmlns="http://www.w3.org/2000/svg" width="155.339" height="31.517" viewBox="0 0 155.339 31.517">
  <defs>
    <style>
      .cls-1 {
        fill: #2a3f54;
      }
    </style>
  </defs>
  <g id="グループ_223" data-name="グループ 223" transform="translate(-24.365 -30.989)">
    <g id="グループ_222" data-name="グループ 222" transform="translate(33.424 38.362)">
      <path id="パス_90" data-name="パス 90" class="cls-1" d="M110.344,57.85l19.689.007.9-2.52-19.7.015Z" transform="translate(-66.372 -47.693)"/>
      <path id="パス_91" data-name="パス 91" class="cls-1" d="M44.227,45.206l15.127.005-.693,1.935-18.723,10.1-.885,2.468L51.58,53.362l5.088,6.355.9-2.534-4.017-4.821,7-3.55,2.113-5.849-17.643.017Z" transform="translate(-39.053 -42.951)"/>
      <path id="パス_92" data-name="パス 92" class="cls-1" d="M97.824,48.8,99.9,42.963l-19.667.017-.8,2.226,17.174.005-.691,1.946L85.563,52.745l-1.807-2.261-.913,2.529,5.367,6.7.9-2.534-2.245-2.808,10.97-5.563Z" transform="translate(-54.529 -42.951)"/>
      <path id="パス_93" data-name="パス 93" class="cls-1" d="M154.28,42.943h-2.525l-5.978,16.764H148.3l2.453-6.876,12.41.006.8-2.25-12.418.017Z" transform="translate(-79.95 -42.943)"/>
      <g id="グループ_220" data-name="グループ 220" transform="translate(111.241 0.028)">
        <path id="パス_94" data-name="パス 94" class="cls-1" d="M245.568,48.936l.8-2.25-21.621.017-.8,2.226h4.26l-.7,1.953-5.541,3.6h2.6l5.317-3.2.849-2.347,7.549,0-.84,2.348L241,54.48h2.6l-3.545-3.409h-.014l.773-2.138Z" transform="translate(-220.391 -44.406)"/>
        <path id="パス_95" data-name="パス 95" class="cls-1" d="M236.795,42.989h-2.521l-.69,1.943,2.513,0Z" transform="translate(-224.84 -42.989)"/>
        <path id="パス_96" data-name="パス 96" class="cls-1" d="M245.122,42.989H242.6l-.69,1.943,2.513,0Z" transform="translate(-228.031 -42.989)"/>
        <path id="パス_97" data-name="パス 97" class="cls-1" d="M253.148,42.989h-2.521l-.69,1.943,2.513,0Z" transform="translate(-231.107 -42.989)"/>
        <path id="パス_98" data-name="パス 98" class="cls-1" d="M232.013,59.829l.329-.924h4.943l.7-1.952H233.04l.3-.845h1.993l.7-1.952h-6.705l-.7,1.954h2.194l-.3.844h-5.129l-.7,1.954h5.13l-.329.923h-9.385l-.7,1.954h9.385L228,64h2.522l.792-2.221h9.752l.7-1.952Z" transform="translate(-219.408 -47.268)"/>
      </g>
      <g id="グループ_221" data-name="グループ 221" transform="translate(84.594 0.03)">
        <path id="パス_99" data-name="パス 99" class="cls-1" d="M182.628,52.388h-4.246l-.7,1.954h1.723l-3.2,8.992,23.744,0,.807-2.227-21.233,0Z" transform="translate(-176.205 -46.592)"/>
        <path id="パス_100" data-name="パス 100" class="cls-1" d="M196.863,54.52l-.237.666h-2.467l.237-.666H191.87l-.236.665h-4.465l-.55,1.552,4.466,0-.346.973h-5.518l-.55,1.552,5.518-.006-.141.4h2.522l.143-.4,2.467,0-.146.41h2.522l.147-.413,5.487-.006.544-1.53h-5.483l.35-.984,4.5-.006.544-1.53h-4.5l.237-.666Zm-1.133,3.186h-2.467l.348-.977,2.468,0Z" transform="translate(-179.45 -47.409)"/>
        <path id="パス_101" data-name="パス 101" class="cls-1" d="M189.282,45.374l-1.411,3.947,8.769-.02.544-1.53h-6.24l.307-.848,6.236-.014,1.4-3.913h-8.776l-.553,1.524h6.27l-.308.861Z" transform="translate(-180.676 -42.992)"/>
        <path id="パス_102" data-name="パス 102" class="cls-1" d="M192.343,64.865h2.509l.529-1.459H192.86Z" transform="translate(-182.39 -50.814)"/>
        <path id="パス_103" data-name="パス 103" class="cls-1" d="M200.413,64.945h2.509l.529-1.459h-2.521Z" transform="translate(-185.482 -50.845)"/>
        <path id="パス_104" data-name="パス 104" class="cls-1" d="M187.425,43.006l-2.516,0-1.6,4.518h2.514Z" transform="translate(-178.926 -42.995)"/>
        <path id="パス_105" data-name="パス 105" class="cls-1" d="M213.286,46.906l1.4-3.913h-8.776l-.553,1.524h6.27l-.308.861h-6.241l-1.411,3.947,8.769-.02.544-1.53h-6.24l.307-.848Z" transform="translate(-186.73 -42.992)"/>
      </g>
    </g>
    <path id="パス_106" data-name="パス 106" class="cls-1" d="M179.7,30.989H24.365V62.506H179.7Zm-2.282,29.284H26.6V33.222H177.422Z" transform="translate(0 0)"/>
  </g>
</svg>
