<svg xmlns="http://www.w3.org/2000/svg" width="35.5" height="35.5" viewBox="0 0 35.5 35.5">
  <defs>
    <style>
      .cls-1 {
        fill: #3a7cac;
      }

      .cls-2 {
        fill: #fff;
      }
    </style>
  </defs>
  <g id="グループ_428" data-name="グループ 428" transform="translate(-317.5 -387.4)">
    <circle id="楕円形_96" data-name="楕円形 96" class="cls-1" cx="17.75" cy="17.75" r="17.75" transform="translate(317.5 387.4)"/>
    <g id="tag-2" transform="translate(327.34 397.672)">
      <path id="パス_109" data-name="パス 109" class="cls-2" d="M53.9,58.552l-.614-.614-.77.77a1.591,1.591,0,1,1-1.227-1.227l.77-.77-.614-.614c-.424-.424-4.793-.424-5.217,0l-6.776,6.777a1.085,1.085,0,0,0,0,1.534l6.137,6.137a1.085,1.085,0,0,0,1.534,0L53.9,63.768C54.32,63.345,54.32,58.975,53.9,58.552Z" transform="translate(-39.131 -55.177)"/>
      <path id="パス_110" data-name="パス 110" class="cls-2" d="M358.487,43.145a.434.434,0,0,0,.614,0l3.273-3.273a.434.434,0,0,0-.614-.614l-3.273,3.273A.434.434,0,0,0,358.487,43.145Z" transform="translate(-346.815 -39.131)"/>
    </g>
  </g>
</svg>
