<svg xmlns="http://www.w3.org/2000/svg" width="23.262" height="23.262" viewBox="0 0 23.262 23.262"><defs><style>.a{fill:#fff;}</style></defs><g transform="translate(-39.131 -39.131)"><path class="a" d="M61.029,59.891l-.91-.91-1.143,1.143a2.36,2.36,0,1,1-1.82-1.82L58.3,57.16l-.91-.91c-.628-.628-7.108-.628-7.736,0L39.6,66.3a1.609,1.609,0,0,0,0,2.275l9.1,9.1a1.609,1.609,0,0,0,2.275,0l10.05-10.05C61.657,67,61.657,60.519,61.029,59.891Z" transform="translate(0 -15.756)"/><path class="a" d="M358.548,45.083a.644.644,0,0,0,.91,0l4.854-4.854a.644.644,0,0,0-.91-.91l-4.854,4.854A.644.644,0,0,0,358.548,45.083Z" transform="translate(-302.108 0)"/></g></svg>