<svg xmlns="http://www.w3.org/2000/svg" width="117" height="35.5" viewBox="0 0 117 35.5">
  <defs>
    <style>
      .cls-1, .cls-3, .cls-4 {
        fill: #fff;
      }

      .cls-1 {
        font-size: 11px;
        font-family: HiraKakuProN-W6, Hiragino Kaku Gothic ProN;
      }

      .cls-2, .cls-6 {
        fill: #3a7cac;
      }

      .cls-4 {
        fill-rule: evenodd;
      }

      .cls-5, .cls-6 {
        stroke: none;
      }
    </style>
  </defs>
  <g id="グループ_427" data-name="グループ 427" transform="translate(-236 -442.4)">
    <text id="タグ一括設定" class="cls-1" transform="translate(236 465)"><tspan x="0" y="0">タグ一括設定</tspan></text>
    <g id="グループ_426" data-name="グループ 426">
      <circle id="楕円形_95" data-name="楕円形 95" class="cls-2" cx="17.75" cy="17.75" r="17.75" transform="translate(317.5 442.4)"/>
      <g id="tag-2" transform="translate(326.616 451.948)">
        <path id="パス_109" data-name="パス 109" class="cls-3" d="M53.377,58.454l-.592-.592-.743.743a1.535,1.535,0,1,1-1.184-1.184l.743-.743-.592-.592c-.409-.409-4.624-.409-5.033,0l-6.538,6.538a1.047,1.047,0,0,0,0,1.48l5.921,5.921a1.047,1.047,0,0,0,1.48,0l6.538-6.538C53.786,63.078,53.786,58.863,53.377,58.454Z" transform="translate(-39.131 -55.198)"/>
        <path id="パス_110" data-name="パス 110" class="cls-3" d="M358.482,43a.419.419,0,0,0,.592,0l3.158-3.158a.419.419,0,1,0-.592-.592l-3.158,3.158A.419.419,0,0,0,358.482,43Z" transform="translate(-347.221 -39.131)"/>
      </g>
      <g id="Layer_x0020_1" transform="translate(316 440.3)">
        <g id="パス_189" data-name="パス 189" class="cls-4">
          <path class="cls-5" d="M 24.44132041931152 28.2933406829834 L 23.60202217102051 28.2933406829834 C 23.40279769897461 28.2933406829834 23.24475288391113 28.14444160461426 23.23064613342285 27.94942474365234 L 23.08811187744141 27.17976570129395 C 22.86797523498535 27.11728096008301 22.65808486938477 27.02883529663086 22.44440078735352 26.90853500366211 L 21.80817222595215 27.37125205993652 L 21.79143142700195 27.38343048095703 L 21.77292060852051 27.39268112182617 C 21.69285202026367 27.43271064758301 21.62052154541016 27.45217132568359 21.55179214477539 27.45217132568359 C 21.45128631591797 27.45217132568359 21.36108779907227 27.41025733947754 21.29934501647949 27.33602905273438 L 20.70007133483887 26.75388145446777 C 20.62596130371094 26.67979049682617 20.52478218078613 26.52219200134277 20.65066146850586 26.27042198181152 L 20.65932083129883 26.25311088562012 L 20.6705322265625 26.23734092712402 L 21.1375617980957 25.5805835723877 C 21.02927780151367 25.38085174560547 20.94118309020996 25.17462921142578 20.87099647521973 24.95660400390625 L 20.09391784667969 24.81269645690918 C 19.89890098571777 24.7985897064209 19.75000190734863 24.64054489135742 19.75000190734863 24.44132041931152 L 19.75000190734863 23.60202217102051 C 19.75000190734863 23.40263366699219 19.89914512634277 23.2444896697998 20.09440040588379 23.23061180114746 L 20.88308525085449 23.08720970153809 C 20.94558143615723 22.87380218505859 21.0319709777832 22.66236114501953 21.13798141479492 22.46335220336914 L 20.6705322265625 21.80601119995117 L 20.65931129455566 21.79024124145508 L 20.65066146850586 21.77292060852051 C 20.51950263977051 21.51057815551758 20.63892364501953 21.35977745056152 20.70535087585449 21.30163192749023 L 21.29781341552734 20.70916938781738 C 21.35959053039551 20.6337776184082 21.45044708251953 20.59117126464844 21.55179214477539 20.59117126464844 C 21.62052154541016 20.59117126464844 21.69285202026367 20.61063194274902 21.77292060852051 20.65066146850586 L 21.79024124145508 20.65931129455566 L 21.80601119995117 20.6705322265625 L 22.46335220336914 21.13798141479492 C 22.66236114501953 21.0319709777832 22.87380218505859 20.94558143615723 23.08720970153809 20.88308525085449 L 23.23061180114746 20.09440040588379 C 23.2444896697998 19.89914512634277 23.40263366699219 19.75000190734863 23.60202217102051 19.75000190734863 L 24.44132041931152 19.75000190734863 C 24.64070892333984 19.75000190734863 24.79885292053223 19.89914512634277 24.81273078918457 20.09440040588379 L 24.95613288879395 20.88308715820312 C 25.16956901550293 20.94558906555176 25.38097190856934 21.03196334838867 25.57999420166016 21.13797950744629 L 26.23734092712402 20.6705322265625 L 26.25311088562012 20.65932083129883 L 26.27042198181152 20.65066146850586 C 26.35049057006836 20.61063194274902 26.42376136779785 20.59117126464844 26.49444198608398 20.59117126464844 C 26.59152221679688 20.59117126464844 26.6827507019043 20.62892150878906 26.75132179260254 20.69748115539551 L 27.33978652954102 21.30321311950684 C 27.40653610229492 21.36248397827148 27.52266693115234 21.51292610168457 27.39268112182617 21.77292060852051 L 27.38403129577637 21.79024124145508 L 27.37281036376953 21.80601119995117 L 26.90536117553711 22.46335220336914 C 27.01137161254883 22.66236114501953 27.0977611541748 22.87380218505859 27.16025733947754 23.08720970153809 L 27.94894218444824 23.23061180114746 C 28.14419746398926 23.2444896697998 28.2933406829834 23.40263366699219 28.2933406829834 23.60202217102051 L 28.2933406829834 24.44132041931152 C 28.2933406829834 24.64054489135742 28.14444160461426 24.7985897064209 27.94942474365234 24.81269645690918 L 27.1723461151123 24.95660400390625 C 27.10215950012207 25.17462921142578 27.01406478881836 25.38085174560547 26.90578079223633 25.5805835723877 L 27.37281036376953 26.23734092712402 L 27.3840217590332 26.25311088562012 L 27.39268112182617 26.27042198181152 C 27.5185604095459 26.52219200134277 27.41738128662109 26.67979049682617 27.34586143493652 26.75132179260254 L 26.75134086608887 27.34585189819336 C 26.6827507019043 27.41442108154297 26.59152221679688 27.45217132568359 26.49444198608398 27.45217132568359 C 26.42376136779785 27.45217132568359 26.35049057006836 27.43271064758301 26.27042198181152 27.39268112182617 L 26.25191116333008 27.38342094421387 L 26.23518180847168 27.37125205993652 L 25.59894371032715 26.90853500366211 C 25.38526916503906 27.02883148193359 25.17537689208984 27.11727523803711 24.95523071289062 27.17976379394531 L 24.81269645690918 27.94942474365234 C 24.7985897064209 28.14444160461426 24.64054489135742 28.2933406829834 24.44132041931152 28.2933406829834 Z M 24.02167129516602 23.30997085571289 C 23.63589096069336 23.30997085571289 23.30997085571289 23.63589096069336 23.30997085571289 24.02167129516602 C 23.30997085571289 24.40745162963867 23.63589096069336 24.73337173461914 24.02167129516602 24.73337173461914 C 24.40745162963867 24.73337173461914 24.73337173461914 24.40745162963867 24.73337173461914 24.02167129516602 C 24.73337173461914 23.63589096069336 24.40745162963867 23.30997085571289 24.02167129516602 23.30997085571289 Z"/>
          <path class="cls-6" d="M 24.44132041931152 28.0433406829834 C 24.51127052307129 28.0433406829834 24.563720703125 27.99089050292969 24.563720703125 27.92094039916992 L 24.73858070373535 26.97673034667969 C 25.05332183837891 26.90678215026855 25.33309173583984 26.78438186645508 25.61285209655762 26.60953140258789 L 26.38222122192383 27.16907119750977 C 26.42058563232422 27.18825340270996 26.45895767211914 27.20217514038086 26.49443817138672 27.20217514038086 C 26.52363967895508 27.20217514038086 26.55087661743164 27.19275093078613 26.57456207275391 27.16907119750977 L 27.16907119750977 26.57456207275391 C 27.22152137756348 26.5221004486084 27.20404052734375 26.45216178894043 27.16907119750977 26.38222122192383 L 26.60953140258789 25.59537124633789 C 26.76690101623535 25.33309173583984 26.88930130004883 25.05332183837891 26.97673034667969 24.73858070373535 L 27.92094039916992 24.563720703125 C 27.99089050292969 24.563720703125 28.0433406829834 24.51127052307129 28.0433406829834 24.44132041931152 L 28.0433406829834 23.60202217102051 C 28.0433406829834 23.53207206726074 27.99089050292969 23.47962188720703 27.92094039916992 23.47962188720703 L 26.95924186706543 23.30476188659668 C 26.88930130004883 23.00751113891602 26.76690101623535 22.71026039123535 26.60953140258789 22.44797134399414 L 27.16907119750977 21.66113090515137 C 27.20404052734375 21.5911808013916 27.22152137756348 21.52124214172363 27.16907119750977 21.48627090454102 L 26.57456207275391 20.87427139282227 C 26.55088043212891 20.85059547424316 26.52363395690918 20.84116744995117 26.49443817138672 20.84116744995117 C 26.45895576477051 20.84116744995117 26.42058944702148 20.85508728027344 26.38222122192383 20.87427139282227 L 25.59537124633789 21.43381118774414 C 25.33309173583984 21.27644157409668 25.03583145141602 21.1540412902832 24.73858070373535 21.0841007232666 L 24.563720703125 20.12240219116211 C 24.563720703125 20.05245208740234 24.51127052307129 20.00000190734863 24.44132041931152 20.00000190734863 L 23.60202217102051 20.00000190734863 C 23.53207206726074 20.00000190734863 23.47962188720703 20.05245208740234 23.47962188720703 20.12240219116211 L 23.30476188659668 21.0841007232666 C 23.00751113891602 21.1540412902832 22.71026039123535 21.27644157409668 22.44797134399414 21.43381118774414 L 21.66113090515137 20.87427139282227 C 21.62276268005371 20.85508918762207 21.58438682556152 20.84116744995117 21.55179405212402 20.84116744995117 C 21.52496719360352 20.84116744995117 21.50205993652344 20.8505916595459 21.48627090454102 20.87427139282227 L 20.87427139282227 21.48627090454102 C 20.82182121276855 21.52124214172363 20.83930206298828 21.5911808013916 20.87427139282227 21.66113090515137 L 21.43381118774414 22.44797134399414 C 21.27644157409668 22.71026039123535 21.1540412902832 23.00751113891602 21.0841007232666 23.30476188659668 L 20.12240219116211 23.47962188720703 C 20.05245208740234 23.47962188720703 20.00000190734863 23.53207206726074 20.00000190734863 23.60202217102051 L 20.00000190734863 24.44132041931152 C 20.00000190734863 24.51127052307129 20.05245208740234 24.563720703125 20.12240219116211 24.563720703125 L 21.06661224365234 24.73858070373535 C 21.1540412902832 25.05332183837891 21.27644157409668 25.33309173583984 21.43381118774414 25.59537124633789 L 20.87427139282227 26.38222122192383 C 20.83930206298828 26.45216178894043 20.82182121276855 26.5221004486084 20.87427139282227 26.57456207275391 L 21.48627090454102 27.16907119750977 C 21.5020580291748 27.19274711608887 21.52497100830078 27.20217514038086 21.55179405212402 27.20217514038086 C 21.58438873291016 27.20217514038086 21.62275695800781 27.18825531005859 21.66113090515137 27.16907119750977 L 22.43049049377441 26.60953140258789 C 22.71026039123535 26.78438186645508 22.99002075195312 26.90678215026855 23.30476188659668 26.97673034667969 L 23.47962188720703 27.92094039916992 C 23.47962188720703 27.99089050292969 23.53207206726074 28.0433406829834 23.60202217102051 28.0433406829834 L 24.44132041931152 28.0433406829834 M 24.02167129516602 22.01083183288574 C 24.58121109008789 22.01083183288574 25.08829116821289 22.23815155029297 25.43800163269043 22.6053409576416 C 25.80520057678223 22.97254180908203 26.03251075744629 23.46213150024414 26.03251075744629 24.02167129516602 C 26.03251075744629 24.58121109008789 25.80520057678223 25.08829116821289 25.43800163269043 25.43800163269043 C 25.08829116821289 25.80520057678223 24.58121109008789 26.03251075744629 24.02167129516602 26.03251075744629 C 23.46213150024414 26.03251075744629 22.97254180908203 25.80520057678223 22.6053409576416 25.43800163269043 C 22.23815155029297 25.08829116821289 22.01083183288574 24.58121109008789 22.01083183288574 24.02167129516602 C 22.01083183288574 23.46213150024414 22.23815155029297 22.97254180908203 22.6053409576416 22.6053409576416 C 22.97254180908203 22.23815155029297 23.46213150024414 22.01083183288574 24.02167129516602 22.01083183288574 M 24.02167129516602 25.84017181396484 C 24.52875137329102 25.84017181396484 24.98337173461914 25.63034057617188 25.31560134887695 25.31560134887695 C 25.63034057617188 24.98337173461914 25.84017181396484 24.52875137329102 25.84017181396484 24.02167129516602 C 25.84017181396484 23.51459121704102 25.63034057617188 23.05997085571289 25.31560134887695 22.72774124145508 C 24.98337173461914 22.41300201416016 24.52875137329102 22.20318222045898 24.02167129516602 22.20318222045898 C 23.51459121704102 22.20318222045898 23.05997085571289 22.41300201416016 22.72774124145508 22.72774124145508 C 22.41300201416016 23.05997085571289 22.20318222045898 23.51459121704102 22.20318222045898 24.02167129516602 C 22.20318222045898 24.52875137329102 22.41300201416016 24.98337173461914 22.72774124145508 25.31560134887695 C 23.05997085571289 25.63034057617188 23.51459121704102 25.84017181396484 24.02167129516602 25.84017181396484 M 24.02167129516602 23.05997085571289 C 24.54624176025391 23.05997085571289 24.98337173461914 23.49711036682129 24.98337173461914 24.02167129516602 C 24.98337173461914 24.54624176025391 24.54624176025391 24.98337173461914 24.02167129516602 24.98337173461914 C 23.49711036682129 24.98337173461914 23.05997085571289 24.54624176025391 23.05997085571289 24.02167129516602 C 23.05997085571289 23.49711036682129 23.49711036682129 23.05997085571289 24.02167129516602 23.05997085571289 M 24.44132041931152 28.5433406829834 L 23.60202217102051 28.5433406829834 C 23.28009223937988 28.5433406829834 23.01446151733398 28.29765129089355 22.98278617858887 27.98393440246582 L 22.8696403503418 27.37297821044922 C 22.73327255249023 27.32633972167969 22.59886169433594 27.26968574523926 22.46523094177246 27.20252227783203 L 21.95522117614746 27.57344055175781 L 21.92173194885254 27.59779167175293 L 21.88469123840332 27.61631202697754 C 21.76911163330078 27.67408180236816 21.66021156311035 27.70217132568359 21.55179214477539 27.70217132568359 C 21.38361740112305 27.70217132568359 21.22642707824707 27.63088226318359 21.11790657043457 27.5083065032959 L 20.52588081359863 26.93320083618164 L 20.52326202392578 26.93066215515137 L 20.52068138122559 26.92808151245117 C 20.44588088989258 26.85326194763184 20.21804046630859 26.57664108276367 20.42706108093262 26.15861129760742 L 20.44436073303223 26.12400054931641 L 20.4667911529541 26.09246063232422 L 20.84551429748535 25.55988311767578 C 20.78411293029785 25.43492889404297 20.72972679138184 25.30728149414062 20.68188095092773 25.17583465576172 L 20.05940818786621 25.06055641174316 C 19.74569129943848 25.02888107299805 19.50000190734863 24.76325035095215 19.50000190734863 24.44132041931152 L 19.50000190734863 23.60202217102051 C 19.50000190734863 23.27969360351562 19.74630355834961 23.01380348205566 20.06057739257812 22.98266792297363 L 20.69045448303223 22.86814117431641 C 20.73491668701172 22.73835372924805 20.7873363494873 22.61011123657227 20.84689140319824 22.48540878295898 L 20.4667911529541 21.95090103149414 L 20.44436073303223 21.91934204101562 L 20.42704200744629 21.88471221923828 C 20.26256942749023 21.55572319030762 20.35861968994141 21.27246284484863 20.5381965637207 21.1152458190918 L 21.11434364318848 20.53909873962402 C 21.22297286987305 20.41403198242188 21.38176155090332 20.34117126464844 21.55179214477539 20.34117126464844 C 21.66021156311035 20.34117126464844 21.76911163330078 20.36926078796387 21.88469123840332 20.42703056335449 L 21.91933059692383 20.44435119628906 L 21.95090103149414 20.4667911529541 L 22.48540878295898 20.84689140319824 C 22.61011123657227 20.7873363494873 22.73835372924805 20.73491668701172 22.86814117431641 20.69045448303223 L 22.98266792297363 20.06057739257812 C 23.01380348205566 19.74630355834961 23.27969360351562 19.50000190734863 23.60202217102051 19.50000190734863 L 24.44132041931152 19.50000190734863 C 24.76364898681641 19.50000190734863 25.02953910827637 19.74630355834961 25.0606746673584 20.06057739257812 L 25.17519950866699 20.69045066833496 C 25.30499076843262 20.73491477966309 25.4332447052002 20.78733825683594 25.55794334411621 20.84689331054688 L 26.09246063232422 20.4667911529541 L 26.12402153015137 20.44435119628906 L 26.15866088867188 20.42703056335449 C 26.27424049377441 20.36926078796387 26.38408088684082 20.34117126464844 26.49444198608398 20.34117126464844 C 26.65832138061523 20.34117126464844 26.81233215332031 20.40493202209473 26.9281120300293 20.52072143554688 L 26.9306812286377 20.52328109741211 L 26.93320083618164 20.52588081359863 L 27.50922584533691 21.11885261535645 C 27.68616485595703 21.27677536010742 27.77952003479004 21.55822944641113 27.61630058288574 21.88471221923828 L 27.5989818572998 21.91934204101562 L 27.57655143737793 21.95090103149414 L 27.19645118713379 22.48540878295898 C 27.25600624084473 22.61011123657227 27.30842590332031 22.73835372924805 27.3528881072998 22.86814117431641 L 27.98276519775391 22.98266792297363 C 28.29703903198242 23.01380348205566 28.5433406829834 23.27969360351562 28.5433406829834 23.60202217102051 L 28.5433406829834 24.44132041931152 C 28.5433406829834 24.76325035095215 28.29765129089355 25.02888107299805 27.98393440246582 25.06055641174316 L 27.3614616394043 25.17583465576172 C 27.3136157989502 25.30728149414062 27.25922966003418 25.43492889404297 27.19782829284668 25.55988311767578 L 27.57655143737793 26.09246063232422 L 27.5989818572998 26.12400054931641 L 27.61628150939941 26.15861129760742 C 27.82530212402344 26.57664108276367 27.59746170043945 26.85326194763184 27.52266120910645 26.92808151245117 L 26.9281120300293 27.52262115478516 C 26.81233215332031 27.6384105682373 26.65832138061523 27.70217132568359 26.49444198608398 27.70217132568359 C 26.3840503692627 27.70217132568359 26.27420043945312 27.67408180236816 26.15861129760742 27.61628150939941 L 26.12160110473633 27.59778213500977 L 26.08813095092773 27.57344055175781 L 25.57811546325684 27.20252227783203 C 25.44448661804199 27.26968765258789 25.31007385253906 27.32634162902832 25.1737003326416 27.37298011779785 L 25.06055641174316 27.98393440246582 C 25.02888107299805 28.29765129089355 24.76325035095215 28.5433406829834 24.44132041931152 28.5433406829834 Z M 24.02167129516602 23.55997085571289 C 23.77140045166016 23.55997085571289 23.55997085571289 23.77140045166016 23.55997085571289 24.02167129516602 C 23.55997085571289 24.27194213867188 23.77140045166016 24.48337173461914 24.02167129516602 24.48337173461914 C 24.27194213867188 24.48337173461914 24.48337173461914 24.27194213867188 24.48337173461914 24.02167129516602 C 24.48337173461914 23.77140045166016 24.27194213867188 23.55997085571289 24.02167129516602 23.55997085571289 Z"/>
        </g>
      </g>
    </g>
  </g>
</svg>
