<svg xmlns="http://www.w3.org/2000/svg" width="24.057" height="23.912" viewBox="0 0 24.057 23.912">
  <defs>
    <style>
      .cls-1, .cls-2 {
        fill: #707070;
      }

      .cls-2 {
        fill-rule: evenodd;
      }

      .cls-3, .cls-4 {
        stroke: none;
      }

      .cls-4 {
        fill: #fff;
      }
    </style>
  </defs>
  <g id="グループ_557" data-name="グループ 557" transform="translate(-28.489 -14.04)">
    <g id="tag-2" transform="translate(28.489 14.04)">
      <path id="パス_109" data-name="パス 109" class="cls-1" d="M59.344,59.575l-.84-.84-1.055,1.055a2.178,2.178,0,1,1-1.68-1.68l1.055-1.055-.84-.84c-.58-.58-6.561-.58-7.141,0L39.566,65.49a1.485,1.485,0,0,0,0,2.1l8.4,8.4a1.485,1.485,0,0,0,2.1,0l9.276-9.276C59.924,66.136,59.924,60.155,59.344,59.575Z" transform="translate(-39.131 -54.955)"/>
      <path id="パス_110" data-name="パス 110" class="cls-1" d="M358.533,44.625a.594.594,0,0,0,.84,0l4.481-4.481a.594.594,0,1,0-.84-.84l-4.481,4.481A.594.594,0,0,0,358.533,44.625Z" transform="translate(-342.556 -39.131)"/>
    </g>
    <g id="Layer_x0020_1" transform="translate(40.484 25.89)">
      <g id="パス_189" data-name="パス 189" class="cls-2" transform="translate(-20 -20)">
        <path class="cls-3" d="M 26.30157852172852 31.73730087280273 L 25.11073684692383 31.73730087280273 C 24.84348106384277 31.73730087280273 24.63157081604004 31.53719329833984 24.61334037780762 31.27536773681641 L 24.40741729736328 30.16340637207031 C 24.0851993560791 30.07355308532715 23.77881050109863 29.94446754455566 23.46623802185059 29.76691055297852 L 22.54805755615234 30.4346809387207 L 22.52628707885742 30.45051002502441 L 22.50220680236816 30.46254920959473 C 22.39280700683594 30.51723098754883 22.29452705383301 30.54380989074707 22.20175743103027 30.54380989074707 C 22.06767272949219 30.54380989074707 21.94745254516602 30.4877758026123 21.86546516418457 30.38856887817383 L 21.01400756835938 29.56143951416016 C 20.91482734680176 29.46228981018066 20.77947807312012 29.25066947937012 20.94977760314941 28.91007041931152 L 20.96102714538574 28.88755989074707 L 20.97560691833496 28.8670597076416 L 21.64900588989258 27.92010498046875 C 21.48937034606934 27.62810516357422 21.3604850769043 27.32646942138672 21.25870513916016 27.0067081451416 L 20.13694000244141 26.7989673614502 C 19.87510681152344 26.78073692321777 19.67499732971191 26.56882667541504 19.67499732971191 26.30157089233398 L 19.67499732971191 25.1107292175293 C 19.67499732971191 24.84323501586914 19.87542533874512 24.63118743896484 20.13760375976562 24.6132869720459 L 21.2763671875 24.4062328338623 C 21.36652565002441 24.09359359741211 21.49314880371094 23.78367233276367 21.64950942993164 23.4929141998291 L 20.97560691833496 22.54524040222168 L 20.96102714538574 22.52473068237305 L 20.94977760314941 22.50222969055176 C 20.7700080871582 22.1426887512207 20.92990493774414 21.94370651245117 21.02476692199707 21.86487197875977 L 21.86344718933105 21.02620124816895 C 21.94547462463379 20.92546081542969 22.06657600402832 20.86849975585938 22.20175743103027 20.86849975585938 C 22.29454803466797 20.86849975585938 22.39283752441406 20.89508056640625 22.50222778320312 20.94977951049805 L 22.52473831176758 20.96103096008301 L 22.54524803161621 20.97561073303223 L 23.49292373657227 21.64951324462891 C 23.78366470336914 21.4931526184082 24.09358596801758 21.36653327941895 24.40624046325684 21.27636909484863 L 24.61329460144043 20.13759613037109 C 24.63119506835938 19.87542533874512 24.84324264526367 19.67499923706055 25.11073684692383 19.67499923706055 L 26.30157852172852 19.67499923706055 C 26.56907272338867 19.67499923706055 26.78112030029297 19.87542533874512 26.79902076721191 20.13759613037109 L 27.00607490539551 21.27636909484863 C 27.31872940063477 21.36653327941895 27.62865829467773 21.49315643310547 27.91939926147461 21.64951705932617 L 28.86708831787109 20.97561073303223 L 28.88758850097656 20.96103096008301 L 28.91008758544922 20.94977951049805 C 29.02099800109863 20.89431953430176 29.11777687072754 20.86849975585938 29.21464729309082 20.86849975585938 C 29.34635734558105 20.86849975585938 29.46512794494629 20.91765022277832 29.55813789367676 21.01066017150879 L 30.38994598388672 21.86687850952148 C 30.48506736755371 21.94706153869629 30.64079093933105 22.14572334289551 30.46253776550293 22.50222969055176 L 30.4512882232666 22.52473068237305 L 30.43670845031738 22.54524040222168 L 29.7628059387207 23.49291229248047 C 29.919189453125 23.78369903564453 30.04578018188477 24.09356689453125 30.13594055175781 24.4062328338623 L 31.27472114562988 24.6132869720459 C 31.53689193725586 24.63118743896484 31.73731803894043 24.84323501586914 31.73731803894043 25.1107292175293 L 31.73731803894043 26.30157089233398 C 31.73731803894043 26.56882667541504 31.53721046447754 26.78073692321777 31.2753849029541 26.7989673614502 L 30.15361022949219 27.0067081451416 C 30.05183029174805 27.32646942138672 29.92294502258301 27.62810516357422 29.76330947875977 27.92010498046875 L 30.43670845031738 28.8670597076416 L 30.4512882232666 28.88755989074707 L 30.46253776550293 28.91007041931152 C 30.63283729553223 29.25066947937012 30.49748802185059 29.46228981018066 30.40165710449219 29.55813026428223 L 29.55813789367676 30.40164947509766 C 29.46513748168945 30.49464988708496 29.34635734558105 30.54380989074707 29.21465682983398 30.54380989074707 C 29.1177978515625 30.54380989074707 29.02101707458496 30.51799011230469 28.91010856628418 30.46253967285156 L 28.88603782653809 30.45051002502441 L 28.86427688598633 30.4346809387207 L 27.94608306884766 29.76690673828125 C 27.63351249694824 29.9444637298584 27.32711601257324 30.07355308532715 27.00489807128906 30.16340637207031 L 26.79897499084473 31.27536773681641 C 26.7807445526123 31.53719329833984 26.56883430480957 31.73730087280273 26.30157852172852 31.73730087280273 Z M 25.70615768432617 24.66663932800293 C 25.14267730712891 24.66663932800293 24.6666374206543 25.14267921447754 24.6666374206543 25.70615005493164 C 24.6666374206543 26.26962089538574 25.14267730712891 26.74566078186035 25.70615768432617 26.74566078186035 C 26.26963806152344 26.74566078186035 26.74567794799805 26.26962089538574 26.74567794799805 25.70615005493164 C 26.74567794799805 25.14267921447754 26.26963806152344 24.66663932800293 25.70615768432617 24.66663932800293 Z"/>
        <path class="cls-4" d="M 26.30157852172852 31.41230010986328 C 26.40081787109375 31.41230010986328 26.47524833679199 31.33786964416504 26.47524833679199 31.23863983154297 L 26.72334861755371 29.89892959594727 C 27.16990852355957 29.7996997833252 27.56685829162598 29.62602996826172 27.96380805969238 29.37793922424316 L 29.05542755126953 30.17184066772461 C 29.1098690032959 30.19905471801758 29.16431427001953 30.21881103515625 29.21465682983398 30.21881103515625 C 29.25608253479004 30.21881103515625 29.29472923278809 30.2054386138916 29.32832717895508 30.17184066772461 L 30.17184829711914 29.32831954956055 C 30.24627685546875 29.25389099121094 30.22146797180176 29.15464973449707 30.17184829711914 29.05541038513184 L 29.3779468536377 27.93899917602539 C 29.60122680664062 27.56685066223145 29.77489852905273 27.16990089416504 29.89894676208496 26.72334098815918 L 31.23865699768066 26.47524070739746 C 31.33788681030273 26.47524070739746 31.41231727600098 26.40081024169922 31.41231727600098 26.30157089233398 L 31.41231727600098 25.1107292175293 C 31.41231727600098 25.01148986816406 31.33788681030273 24.93705940246582 31.23865699768066 24.93705940246582 L 29.8741283416748 24.6889591217041 C 29.77489852905273 24.26721000671387 29.60122680664062 23.84544944763184 29.3779468536377 23.47331047058105 L 30.17184829711914 22.35688972473145 C 30.22146797180176 22.25765037536621 30.24627685546875 22.15840911865234 30.17184829711914 22.10878944396973 L 29.32832717895508 21.24047088623047 C 29.29472923278809 21.20687103271484 29.25607681274414 21.19349479675293 29.21465110778809 21.19349479675293 C 29.164306640625 21.19349479675293 29.1098690032959 21.21324920654297 29.05542755126953 21.24047088623047 L 27.93899726867676 22.03437042236328 C 27.56685829162598 21.81108093261719 27.14509773254395 21.63742065429688 26.72334861755371 21.53817939758301 L 26.47524833679199 20.17366027832031 C 26.47524833679199 20.07443046569824 26.40081787109375 20 26.30157852172852 20 L 25.11073684692383 20 C 25.01149749755859 20 24.93706703186035 20.07443046569824 24.93706703186035 20.17366027832031 L 24.68896675109863 21.53817939758301 C 24.2672176361084 21.63742065429688 23.84545707702637 21.81108093261719 23.47331809997559 22.03437042236328 L 22.35689735412598 21.24047088623047 C 22.30245590209961 21.21325302124023 22.24800682067871 21.19349479675293 22.20176124572754 21.19349479675293 C 22.16369819641113 21.19349479675293 22.13120079040527 21.20686721801758 22.10879707336426 21.24047088623047 L 21.2404670715332 22.10878944396973 C 21.16603851318359 22.15840911865234 21.19084739685059 22.25765037536621 21.2404670715332 22.35688972473145 L 22.03436851501465 23.47331047058105 C 21.81108856201172 23.84544944763184 21.63741683959961 24.26721000671387 21.53817749023438 24.6889591217041 L 20.17366790771484 24.93705940246582 C 20.07442855834961 24.93705940246582 19.99999809265137 25.01148986816406 19.99999809265137 25.1107292175293 L 19.99999809265137 26.30157089233398 C 19.99999809265137 26.40081024169922 20.07442855834961 26.47524070739746 20.17366790771484 26.47524070739746 L 21.51336860656738 26.72334098815918 C 21.63741683959961 27.16990089416504 21.81108856201172 27.56685066223145 22.03436851501465 27.93899917602539 L 21.2404670715332 29.05541038513184 C 21.19084739685059 29.15464973449707 21.16603851318359 29.25389099121094 21.2404670715332 29.32831954956055 L 22.10879707336426 30.17184066772461 C 22.13119316101074 30.20543479919434 22.16370582580566 30.21881103515625 22.20175552368164 30.21881103515625 C 22.24800682067871 30.21881103515625 22.30244445800781 30.19905853271484 22.35689735412598 30.17184066772461 L 23.44850730895996 29.37793922424316 C 23.84545707702637 29.62602996826172 24.24240684509277 29.7996997833252 24.68896675109863 29.89892959594727 L 24.93706703186035 31.23863983154297 C 24.93706703186035 31.33786964416504 25.01149749755859 31.41230010986328 25.11073684692383 31.41230010986328 L 26.30157852172852 31.41230010986328 M 25.70615768432617 22.85306930541992 C 26.50005722045898 22.85306930541992 27.21952819824219 23.17559051513672 27.71571731567383 23.69659996032715 C 28.23671722412109 24.21759033203125 28.55923843383789 24.91225051879883 28.55923843383789 25.70615005493164 C 28.55923843383789 26.50004959106445 28.23671722412109 27.21952056884766 27.71571731567383 27.7157096862793 C 27.21952819824219 28.23670959472656 26.50005722045898 28.55923080444336 25.70615768432617 28.55923080444336 C 24.91225814819336 28.55923080444336 24.21759796142578 28.23670959472656 23.69659805297852 27.7157096862793 C 23.17559814453125 27.21952056884766 22.85307693481445 26.50004959106445 22.85307693481445 25.70615005493164 C 22.85307693481445 24.91225051879883 23.17559814453125 24.21759033203125 23.69659805297852 23.69659996032715 C 24.21759796142578 23.17559051513672 24.91225814819336 22.85306930541992 25.70615768432617 22.85306930541992 M 25.70615768432617 28.28631973266602 C 26.42562675476074 28.28631973266602 27.07067680358887 27.98860931396484 27.54205703735352 27.54203987121582 C 27.98862838745117 27.07065963745117 28.28633689880371 26.42561912536621 28.28633689880371 25.70615005493164 C 28.28633689880371 24.98668098449707 27.98862838745117 24.34164047241211 27.54205703735352 23.87026023864746 C 27.07067680358887 23.42369079589844 26.42562675476074 23.12598037719727 25.70615768432617 23.12598037719727 C 24.9866886138916 23.12598037719727 24.34163856506348 23.42369079589844 23.87025833129883 23.87026023864746 C 23.42369842529297 24.34164047241211 23.12597846984863 24.98668098449707 23.12597846984863 25.70615005493164 C 23.12597846984863 26.42561912536621 23.42369842529297 27.07065963745117 23.87025833129883 27.54203987121582 C 24.34163856506348 27.98860931396484 24.9866886138916 28.28631973266602 25.70615768432617 28.28631973266602 M 25.70615768432617 24.34164047241211 C 26.45043754577637 24.34164047241211 27.07067680358887 24.96187019348145 27.07067680358887 25.70615005493164 C 27.07067680358887 26.45042991638184 26.45043754577637 27.07065963745117 25.70615768432617 27.07065963745117 C 24.96187782287598 27.07065963745117 24.34163856506348 26.45042991638184 24.34163856506348 25.70615005493164 C 24.34163856506348 24.96187019348145 24.96187782287598 24.34164047241211 25.70615768432617 24.34164047241211 M 26.30157852172852 32.06230163574219 L 25.11073684692383 32.06230163574219 C 24.67553520202637 32.06230163574219 24.32917976379395 31.74105262756348 24.29063415527344 31.31756210327148 L 24.1236743927002 30.41600227355957 C 23.91046905517578 30.34499931335449 23.70079612731934 30.25661849975586 23.49224853515625 30.14985275268555 L 22.73920822143555 30.69751930236816 L 22.69568824768066 30.72916984558105 L 22.64754676818848 30.75324058532715 C 22.49197769165039 30.83101081848145 22.34615707397461 30.86881065368652 22.20175743103027 30.86881065368652 C 21.97480392456055 30.86881065368652 21.77007675170898 30.77555084228516 21.62687873840332 30.60988998413086 L 20.78755760192871 29.7945499420166 L 20.78417778015137 29.79126930236816 L 20.78084754943848 29.78794097900391 C 20.68179702758789 29.68889045715332 20.38026809692383 29.32236099243164 20.65908813476562 28.76472091674805 L 20.68158721923828 28.7197208404541 L 20.71074676513672 28.67872047424316 L 21.26869964599609 27.89410781860352 C 21.17103576660156 27.69856643676758 21.08573532104492 27.49843406677246 21.0118465423584 27.29151153564453 L 20.09474563598633 27.12167358398438 C 19.67125511169434 27.08312797546387 19.34999847412109 26.73677253723145 19.34999847412109 26.30157089233398 L 19.34999847412109 25.1107292175293 C 19.34999847412109 24.67502021789551 19.67196083068848 24.32836723327637 20.0961856842041 24.29049491882324 L 21.02471160888672 24.12166786193848 C 21.09304237365723 23.91750717163086 21.17548179626465 23.71580505371094 21.27039337158203 23.52057838439941 L 20.71074676513672 22.73357963562012 L 20.68158721923828 22.69257926940918 L 20.65908813476562 22.64757919311523 C 20.42597389221191 22.18135452270508 20.57943344116211 21.81968116760254 20.80524253845215 21.62477493286133 L 21.62248802185059 20.80753898620605 C 21.76587104797363 20.6386833190918 21.97246551513672 20.54350090026855 22.20175743103027 20.54350090026855 C 22.34618759155273 20.54350090026855 22.49202728271484 20.5813102722168 22.64758682250977 20.65909004211426 L 22.69258689880371 20.68158912658691 L 22.73358726501465 20.71075057983398 L 23.52058029174805 21.27038955688477 C 23.71580123901367 21.17547988891602 23.91750717163086 21.09304046630859 24.12167549133301 21.02470779418945 L 24.29050254821777 20.09617805480957 C 24.3283748626709 19.67195510864258 24.67502784729004 19.35000038146973 25.11073684692383 19.35000038146973 L 26.30157852172852 19.35000038146973 C 26.7372875213623 19.35000038146973 27.08394050598145 19.67195510864258 27.12181282043457 20.09617805480957 L 27.29063987731934 21.02470779418945 C 27.49480819702148 21.09304046630859 27.6965160369873 21.17547988891602 27.89173698425293 21.2703914642334 L 28.67873764038086 20.71075057983398 L 28.7197380065918 20.68158912658691 L 28.76473808288574 20.65909004211426 C 28.92029762268066 20.5813102722168 29.06746673583984 20.54350090026855 29.21464729309082 20.54350090026855 C 29.43128776550293 20.54350090026855 29.6348876953125 20.6277904510498 29.78794860839844 20.78084945678711 L 29.7912769317627 20.7841796875 L 29.79455757141113 20.78755950927734 L 30.61219596862793 21.62923622131348 C 30.83519172668457 21.82516860961914 30.98457717895508 22.18488311767578 30.75322723388672 22.64757919311523 L 30.73072814941406 22.69257926940918 L 30.70156860351562 22.73357963562012 L 30.14192390441895 23.52057838439941 C 30.23683547973633 23.71580696105957 30.31927108764648 23.91749572753906 30.38759803771973 24.12165832519531 L 31.31624984741211 24.29050636291504 C 31.74043083190918 24.32841491699219 32.06231689453125 24.675048828125 32.06231689453125 25.1107292175293 L 32.06231689453125 26.30157089233398 C 32.06231689453125 26.73677253723145 31.74106979370117 27.08312797546387 31.31757926940918 27.12167358398438 L 30.40046882629395 27.29151344299316 C 30.32658004760742 27.49843406677246 30.24127960205078 27.69856643676758 30.14361572265625 27.89410781860352 L 30.70156860351562 28.67872047424316 L 30.73072814941406 28.7197208404541 L 30.75322723388672 28.76472091674805 C 31.03204727172852 29.32236099243164 30.73051834106445 29.68889045715332 30.63146781921387 29.78794097900391 L 29.78794860839844 30.63146018981934 C 29.6348876953125 30.78451919555664 29.43128776550293 30.86881065368652 29.21465682983398 30.86881065368652 C 29.06746673583984 30.86881065368652 28.92029762268066 30.83099937438965 28.76473808288574 30.75321960449219 L 28.71662712097168 30.72916030883789 L 28.67311859130859 30.69751930236816 L 27.92006874084473 30.14985084533691 C 27.71152114868164 30.25661849975586 27.50184631347656 30.34499931335449 27.28864097595215 30.41600227355957 L 27.12168121337891 31.31756210327148 C 27.0831356048584 31.74105262756348 26.73678016662598 32.06230163574219 26.30157852172852 32.06230163574219 Z M 25.70615768432617 24.99164009094238 C 25.31884765625 24.99164009094238 24.99163818359375 25.31884956359863 24.99163818359375 25.70615005493164 C 24.99163818359375 26.09345054626465 25.31884765625 26.4206600189209 25.70615768432617 26.4206600189209 C 26.09346771240234 26.4206600189209 26.42067718505859 26.09345054626465 26.42067718505859 25.70615005493164 C 26.42067718505859 25.31884956359863 26.09346771240234 24.99164009094238 25.70615768432617 24.99164009094238 Z"/>
      </g>
    </g>
  </g>
</svg>
