<svg xmlns="http://www.w3.org/2000/svg" width="21.107" height="18.927" viewBox="0 0 21.107 18.927">
  <defs>
    <style>
      .cls-1 {
        fill: #707070;
      }
    </style>
  </defs>
  <g id="鍵マークのアイコン素材_1" data-name="鍵マークのアイコン素材 1" transform="translate(0 -26.445)">
    <path id="パス_352" data-name="パス 352" class="cls-1" d="M19.267,39.634l-2.181,2.181-1.207-1.207,2.18-2.181-1.841-1.841-2.181,2.181-2.57-2.57a6.277,6.277,0,1,0-8.151,2.036h0c.175.093.353.177.534.253l.036.015q.265.109.538.192l.027.008a6.285,6.285,0,0,0,3.631,0l.01,0q.21-.064.416-.143l.037-.015c.133-.052.264-.107.393-.168l.039-.02a6.2,6.2,0,0,0,.775-.437l7.458,7.458.981-.981.735-.735,2.181-2.181ZM4.044,30.489a3.14,3.14,0,1,1,0,4.441A3.143,3.143,0,0,1,4.044,30.489Z" transform="translate(0 0)"/>
  </g>
</svg>
