<svg xmlns="http://www.w3.org/2000/svg" width="14.218" height="18.443" viewBox="0 0 14.218 18.443"><defs><style>.a{fill:#707070;}</style></defs><path class="a" d="M135.19,34.806l-2.022,3.122.215,1.021,1.018-.218,2.021-3.12A8.025,8.025,0,0,1,135.19,34.806Zm8.561-1.09c.013-.028.022-.059.035-.088a2.9,2.9,0,0,0,.133-.343c.006-.021.009-.042.015-.061q.056-.194.094-.392v-.02a4.984,4.984,0,0,0-.887-3.507l1.066-1.646a2.777,2.777,0,0,0,2.8-.943c.887-1.367-.192-3.643-2.406-5.084s-4.729-1.5-5.614-.138a2.792,2.792,0,0,0,.281,2.952L138.2,26.089a4.947,4.947,0,0,0-3.557.615.043.043,0,0,0-.016.008,3.59,3.59,0,0,0-.319.244c-.016.013-.036.026-.049.039a2.9,2.9,0,0,0-.26.261c-.019.023-.046.043-.064.067a2.977,2.977,0,0,0-.279.37c-1.329,2.049-.2,5.15,2.529,6.925s6.013,1.55,7.34-.5A3.2,3.2,0,0,0,143.751,33.715Zm-.783-9.566c-.852-.554-1.268-1.428-.927-1.956s1.307-.5,2.157.053,1.266,1.43.927,1.956S143.821,24.7,142.968,24.15Z" transform="translate(-133.101 -20.506)"/></svg>