<svg xmlns="http://www.w3.org/2000/svg" width="17.061" height="22.131" viewBox="0 0 17.061 22.131"><defs><style>.a{fill:#707070;}</style></defs><path class="a" d="M135.608,37.665l-2.426,3.746.258,1.225,1.222-.262,2.425-3.744A9.629,9.629,0,0,1,135.608,37.665Zm10.273-1.308c.016-.033.027-.07.042-.106a3.486,3.486,0,0,0,.159-.412c.007-.025.01-.051.018-.074q.067-.232.113-.47v-.024a5.98,5.98,0,0,0-1.064-4.208l1.279-1.976a3.333,3.333,0,0,0,3.362-1.132c1.064-1.64-.231-4.371-2.887-6.1s-5.675-1.8-6.736-.166a3.351,3.351,0,0,0,.338,3.542l-1.282,1.976a5.936,5.936,0,0,0-4.268.738.051.051,0,0,0-.02.009,4.309,4.309,0,0,0-.383.293c-.02.016-.043.031-.059.047a3.485,3.485,0,0,0-.312.314c-.023.028-.055.052-.077.081a3.573,3.573,0,0,0-.334.444c-1.6,2.459-.234,6.18,3.035,8.31s7.216,1.86,8.808-.6A3.838,3.838,0,0,0,145.88,36.357Zm-.939-11.478c-1.022-.665-1.522-1.714-1.112-2.347s1.569-.6,2.589.063,1.519,1.716,1.112,2.347S145.965,25.543,144.941,24.878Z" transform="translate(-133.101 -20.506)"/></svg>