<svg xmlns="http://www.w3.org/2000/svg" width="18.989" height="24.631" viewBox="0 0 18.989 24.631"><defs><style>.a{fill:#707070;}</style></defs><path class="a" d="M135.891,39.6l-2.7,4.169.287,1.364,1.36-.291,2.7-4.167A10.716,10.716,0,0,1,135.891,39.6Zm11.433-1.456c.018-.037.029-.078.046-.118a3.879,3.879,0,0,0,.177-.458c.008-.028.012-.056.021-.082q.075-.259.126-.523v-.027a6.656,6.656,0,0,0-1.184-4.684l1.424-2.2c1.641.209,3.06-.2,3.742-1.26,1.184-1.826-.257-4.865-3.214-6.79s-6.316-2.008-7.5-.185c-.685,1.057-.485,2.523.376,3.942l-1.427,2.2a6.607,6.607,0,0,0-4.751.821.057.057,0,0,0-.022.01,4.8,4.8,0,0,0-.426.326c-.022.018-.047.035-.065.053a3.878,3.878,0,0,0-.348.349c-.026.031-.062.058-.086.09a3.978,3.978,0,0,0-.372.494c-1.776,2.736-.26,6.878,3.378,9.248s8.031,2.071,9.8-.666A4.271,4.271,0,0,0,147.324,38.147Zm-1.046-12.775c-1.138-.74-1.693-1.908-1.238-2.612s1.746-.67,2.881.071,1.691,1.91,1.238,2.612S147.418,26.113,146.278,25.372Z" transform="translate(-133.101 -20.506)"/></svg>