<svg xmlns="http://www.w3.org/2000/svg" width="273.902" height="50.601" viewBox="0 0 273.902 50.601">
  <defs>
    <style>
      .cls-1 {
        fill: #3a7cac;
      }

      .cls-2 {
        fill: #fff;
      }
    </style>
  </defs>
  <g id="グループ_436" data-name="グループ 436" transform="translate(-50.467 -214.659)">
    <g id="グループ_295" data-name="グループ 295" transform="translate(105.928 215)">
      <g id="グループ_293" data-name="グループ 293" transform="translate(0 0)">
        <path id="パス_156" data-name="パス 156" class="cls-1" d="M17.466-.177A17.044,17.044,0,0,1,34.755,17.112,17.9,17.9,0,0,1,17.112,34.755,17.044,17.044,0,0,1-.177,17.466,17.9,17.9,0,0,1,17.466-.177Z" transform="translate(0 24.951) rotate(-45)"/>
      </g>
      <g id="グループ_294" data-name="グループ 294" transform="translate(15.051 17.674)">
        <path id="パス_135" data-name="パス 135" class="cls-2" d="M50.761,191.3a1.606,1.606,0,0,0,1.1-.415l-5.326-5.326-.369.265q-.6.44-.97.687a5.959,5.959,0,0,1-.991.5,3.019,3.019,0,0,1-1.154.257h-.021a3.019,3.019,0,0,1-1.154-.257,5.951,5.951,0,0,1-.991-.5q-.372-.246-.97-.687l-.368-.266-5.327,5.327a1.607,1.607,0,0,0,1.1.415Z" transform="translate(-33.643 -176.748)"/>
        <path id="パス_136" data-name="パス 136" class="cls-2" d="M32.14,149.458a5.559,5.559,0,0,1-1.06-.913v8.1l4.694-4.694Q34.365,150.97,32.14,149.458Z" transform="translate(-30.864 -143.999)"/>
        <path id="パス_137" data-name="パス 137" class="cls-2" d="M153.379,149.458q-2.143,1.451-3.643,2.5l4.692,4.692v-8.1A5.78,5.78,0,0,1,153.379,149.458Z" transform="translate(-135.847 -143.999)"/>
        <path id="パス_138" data-name="パス 138" class="cls-2" d="M46.323,109.1H30.882a1.5,1.5,0,0,0-1.243.545A2.117,2.117,0,0,0,29.2,111a2.451,2.451,0,0,0,.577,1.432,5.2,5.2,0,0,0,1.227,1.211q.357.252,2.15,1.495c.646.447,1.207.837,1.689,1.174.411.287.766.535,1.059.741l.157.112.289.208q.341.246.566.4t.546.341a3.19,3.19,0,0,0,.6.283,1.671,1.671,0,0,0,.524.094h.021a1.67,1.67,0,0,0,.524-.094,3.182,3.182,0,0,0,.6-.283q.32-.189.546-.341t.566-.4l.289-.208.157-.112,1.061-.738,3.848-2.672a4.989,4.989,0,0,0,1.28-1.29A2.775,2.775,0,0,0,48,110.773a1.692,1.692,0,0,0-1.679-1.678Z" transform="translate(-29.204 -109.095)"/>
      </g>
    </g>
    <g id="グループ_301" data-name="グループ 301" transform="translate(50.467 215.358)">
      <g id="グループ_298" data-name="グループ 298" transform="translate(0 0)">
        <circle id="楕円形_83" data-name="楕円形 83" class="cls-1" cx="17.643" cy="17.643" r="17.643" transform="translate(0 24.951) rotate(-45)"/>
      </g>
      <g id="グループ_300" data-name="グループ 300" transform="translate(15.165 15.188)">
        <g id="グループ_299" data-name="グループ 299">
          <path id="パス_140" data-name="パス 140" class="cls-2" d="M750.854-239.986l-3.022-3.023a1.577,1.577,0,0,0-2.222.042l-1.522,1.523-.3-.168a15.156,15.156,0,0,1-3.663-2.649,15.238,15.238,0,0,1-2.654-3.669c-.057-.1-.111-.2-.164-.294l1.022-1.02.5-.5a1.574,1.574,0,0,0,.041-2.222l-3.022-3.023a1.574,1.574,0,0,0-2.222.042l-.852.857.023.023a4.915,4.915,0,0,0-.7,1.238,5.13,5.13,0,0,0-.312,1.256c-.4,3.309,1.113,6.332,5.216,10.435,5.672,5.671,10.242,5.243,10.439,5.222a5.1,5.1,0,0,0,1.259-.316,4.916,4.916,0,0,0,1.234-.7l.018.016.863-.845A1.577,1.577,0,0,0,750.854-239.986Z" transform="translate(-731.723 255.431)"/>
        </g>
      </g>
    </g>
    <g id="グループ_306" data-name="グループ 306" transform="translate(162.541 215.058)">
      <g id="グループ_305" data-name="グループ 305" transform="translate(0 0)">
        <g id="グループ_304" data-name="グループ 304" transform="translate(0)">
          <circle id="楕円形_84" data-name="楕円形 84" class="cls-1" cx="17.643" cy="17.643" r="17.643" transform="translate(0 24.951) rotate(-45)"/>
        </g>
      </g>
      <path id="パス_143" data-name="パス 143" class="cls-2" d="M515.15,466.439a7.644,7.644,0,0,0-5.368-2.241,7.465,7.465,0,0,0-5.368,2.241c-3.168,3.3-3.459,7.677.022,12.3,2.57,3.417,4.046,5.177,5.126,5.878a.3.3,0,0,0,.44,0c1.08-.7,2.4-2.584,5.126-5.878C517.935,475.354,518.14,469.43,515.15,466.439Zm-5.368,8.74a3.339,3.339,0,1,1,3.34-3.339A3.339,3.339,0,0,1,509.782,475.179Z" transform="translate(-484.649 -449.576)"/>
    </g>
    <g id="グループ_312" data-name="グループ 312" transform="translate(218.467 214.659)">
      <g id="グループ_310" data-name="グループ 310" transform="translate(0 0)">
        <g id="グループ_309" data-name="グループ 309" transform="translate(0 0)">
          <circle id="楕円形_85" data-name="楕円形 85" class="cls-1" cx="17.643" cy="17.643" r="17.643" transform="translate(0 24.951) rotate(-45)"/>
        </g>
      </g>
      <g id="グループ_311" data-name="グループ 311" transform="translate(15.584 15.747)">
        <path id="パス_145" data-name="パス 145" class="cls-2" d="M1089.164,98.085l-.741-.741-.93.93a1.921,1.921,0,1,1-1.482-1.482l.93-.93-.741-.741c-.512-.511-5.787-.511-6.3,0l-8.182,8.183a1.31,1.31,0,0,0,0,1.853l7.411,7.411a1.31,1.31,0,0,0,1.853,0l8.182-8.182C1089.676,103.872,1089.676,98.6,1089.164,98.085Z" transform="translate(-1071.335 -94.01)"/>
        <path id="パス_146" data-name="パス 146" class="cls-2" d="M1192.464,93.274a.524.524,0,0,0,.741,0l3.952-3.952a.524.524,0,0,0-.741-.741l-3.952,3.952A.524.524,0,0,0,1192.464,93.274Z" transform="translate(-1178.371 -88.427)"/>
      </g>
    </g>
    <g id="グループ_318" data-name="グループ 318" transform="translate(274.467 214.659)">
      <g id="グループ_316" data-name="グループ 316" transform="translate(0 0)">
        <g id="グループ_315" data-name="グループ 315">
          <circle id="楕円形_86" data-name="楕円形 86" class="cls-1" cx="17.643" cy="17.643" r="17.643" transform="translate(0 24.951) rotate(-45)"/>
        </g>
      </g>
      <g id="グループ_317" data-name="グループ 317" transform="translate(16.041 16.713)">
        <path id="パス_149" data-name="パス 149" class="cls-2" d="M1084.419,440.846l2.466-5.631.205-.468a.411.411,0,0,1,.376-.246h11.6a.411.411,0,0,0,.411-.411v-1.659h0v-1.975a.411.411,0,0,0-.411-.411h-5.8a.411.411,0,0,0-.35.2l-.72,1.168a.411.411,0,0,1-.35.2h-7.807a.411.411,0,0,0-.411.411v8.667a.408.408,0,0,0,.015.086v.01A.408.408,0,0,0,1084.419,440.846Z" transform="translate(-1083.632 -430.046)"/>
        <path id="パス_150" data-name="パス 150" class="cls-2" d="M1104.864,479.063h-14.951a.411.411,0,0,0-.376.246l-3.221,7.353-.765,1.747a.411.411,0,0,0,.376.575h14.951a.411.411,0,0,0,.376-.246l3.986-9.1A.411.411,0,0,0,1104.864,479.063Z" transform="translate(-1085.298 -473.415)"/>
      </g>
    </g>
  </g>
</svg>
