<svg xmlns="http://www.w3.org/2000/svg" width="30" height="36.722" viewBox="0 0 30 36.722">
  <defs>
    <style>
      .cls-1, .cls-2 {
        fill: #3a7cac;
      }

      .cls-2 {
        font-size: 10px;
        font-family: HiraKakuProN-W6, Hiragino Kaku Gothic ProN;
      }
    </style>
  </defs>
  <g id="グループ_448" data-name="グループ 448" transform="translate(-23 -704.278)">
    <g id="home" transform="translate(24.77 704.278)">
      <g id="グループ_105" data-name="グループ 105" transform="translate(0 0)">
        <path id="パス_24" data-name="パス 24" class="cls-1" d="M74.894,120.939l-9.18,7.568a.217.217,0,0,1-.008.048.218.218,0,0,0-.008.048v7.663a1.037,1.037,0,0,0,1.022,1.022h6.13v-6.131h4.087v6.131h6.13a1.038,1.038,0,0,0,1.022-1.022V128.6a.225.225,0,0,0-.016-.1Z" transform="translate(-62.024 -116.804)"/>
        <path id="パス_25" data-name="パス 25" class="cls-1" d="M25.561,56.972l-3.5-2.906V47.553a.492.492,0,0,0-.511-.511H18.489a.491.491,0,0,0-.511.511v3.113l-3.9-3.257a1.981,1.981,0,0,0-2.426,0L.177,56.972A.464.464,0,0,0,0,57.315a.517.517,0,0,0,.112.375l.99,1.181a.545.545,0,0,0,.335.176.593.593,0,0,0,.383-.112l11.048-9.212,11.048,9.212a.492.492,0,0,0,.335.111H24.3a.545.545,0,0,0,.335-.175l.99-1.181a.517.517,0,0,0,.111-.376A.465.465,0,0,0,25.561,56.972Z" transform="translate(0.001 -46.994)"/>
      </g>
    </g>
    <text id="ホーム" class="cls-2" transform="translate(23 740)"><tspan x="0" y="0">ホーム</tspan></text>
  </g>
</svg>
