<svg xmlns="http://www.w3.org/2000/svg" width="13.102" height="18.716" viewBox="0 0 13.102 18.716">
  <defs>
    <style>
      .cls-1 {
        fill: #707070;
      }
    </style>
  </defs>
  <g id="radio-microphone" transform="translate(-3 0)">
    <g id="グループ_469" data-name="グループ 469" transform="translate(3)">
      <path id="パス_337" data-name="パス 337" class="cls-1" d="M9.743,13.1a3.748,3.748,0,0,0,3.743-3.743V3.743A3.743,3.743,0,0,0,6,3.743V9.358A3.748,3.748,0,0,0,9.743,13.1Z" transform="translate(-3.193)"/>
      <path id="パス_338" data-name="パス 338" class="cls-1" d="M16.1,9.807V7.936a.936.936,0,0,0-1.872,0V9.807a4.679,4.679,0,0,1-9.358,0V7.936A.936.936,0,0,0,3,7.936V9.807a6.555,6.555,0,0,0,5.615,6.476v1.011H5.807a.936.936,0,0,0,0,1.872h7.487a.936.936,0,0,0,0-1.872H10.487V16.283A6.555,6.555,0,0,0,16.1,9.807Z" transform="translate(-3 -0.449)"/>
    </g>
  </g>
</svg>
