<svg xmlns="http://www.w3.org/2000/svg" width="53.74" height="53.74" viewBox="0 0 53.74 53.74">
  <defs>
    <style>
      .cls-1 {
        fill: #3a7cac;
      }

      .cls-2 {
        fill: #fff;
      }
    </style>
  </defs>
  <g id="グループ_560" data-name="グループ 560" transform="translate(0.252 1.705)">
    <g id="グループ_293" data-name="グループ 293" transform="translate(-0.252 0.249)">
      <path id="パス_156" data-name="パス 156" class="cls-1" d="M19.193,0A18.541,18.541,0,0,1,38,18.807,19.471,19.471,0,0,1,18.807,38,18.541,18.541,0,0,1,0,19.193,19.471,19.471,0,0,1,19.193,0Z" transform="translate(0 24.916) rotate(-45)"/>
    </g>
    <g id="グループ_294" data-name="グループ 294" transform="translate(17.121 17.826)">
      <path id="パス_135" data-name="パス 135" class="cls-2" d="M50.905,191.351a1.62,1.62,0,0,0,1.11-.419l-5.372-5.372-.372.267q-.6.444-.979.693a6.013,6.013,0,0,1-1,.508,3.046,3.046,0,0,1-1.164.259h-.021a3.045,3.045,0,0,1-1.164-.259,6,6,0,0,1-1-.508q-.376-.248-.979-.693l-.371-.269-5.373,5.373a1.621,1.621,0,0,0,1.11.419Z" transform="translate(-33.638 -176.672)"/>
      <path id="パス_136" data-name="パス 136" class="cls-2" d="M32.149,149.466a5.606,5.606,0,0,1-1.069-.921v8.173l4.735-4.735Q34.394,150.991,32.149,149.466Z" transform="translate(-30.862 -143.96)"/>
      <path id="パス_137" data-name="パス 137" class="cls-2" d="M153.411,149.466q-2.162,1.463-3.675,2.52l4.733,4.733v-8.173A5.83,5.83,0,0,1,153.411,149.466Z" transform="translate(-135.727 -143.96)"/>
      <path id="パス_138" data-name="パス 138" class="cls-2" d="M46.471,109.095H30.9a1.511,1.511,0,0,0-1.254.55,2.135,2.135,0,0,0-.439,1.376,2.473,2.473,0,0,0,.582,1.444,5.248,5.248,0,0,0,1.238,1.222q.36.254,2.169,1.508c.651.451,1.217.845,1.7,1.184.415.289.772.539,1.068.747l.158.113.292.21q.344.249.571.4t.55.344a3.218,3.218,0,0,0,.608.286,1.685,1.685,0,0,0,.529.1H38.7a1.685,1.685,0,0,0,.529-.1,3.21,3.21,0,0,0,.608-.286q.323-.191.55-.344t.571-.4l.292-.21.158-.113,1.071-.744,3.881-2.695a5.032,5.032,0,0,0,1.291-1.3,2.8,2.8,0,0,0,.518-1.6,1.707,1.707,0,0,0-1.693-1.693Z" transform="translate(-29.204 -109.095)"/>
    </g>
  </g>
</svg>
