<svg xmlns="http://www.w3.org/2000/svg" width="17" height="24.927" viewBox="0 0 17 24.927"><defs><style>.a{fill:#fff;}</style></defs><g transform="translate(-79.931)"><g transform="translate(79.931)"><g transform="translate(0)"><path class="a" d="M96.931,8.5a8.5,8.5,0,1,0-11.815,7.828l-1.983,8.6,5.494-3.871,5.491,3.871L92.3,16.057A8.506,8.506,0,0,0,96.931,8.5Zm-8.5,6.139A6.137,6.137,0,1,1,94.568,8.5,6.139,6.139,0,0,1,88.428,14.639Z" transform="translate(-79.931)"/><path class="a" d="M157.053,68.912l-1.174-3.617L154.7,68.912H150.9l3.077,2.237L152.8,74.764l3.076-2.233,3.076,2.233-1.173-3.615,3.077-2.237Z" transform="translate(-147.379 -62.057)"/></g></g></g></svg>