<svg xmlns="http://www.w3.org/2000/svg" width="16.913" height="20.892" viewBox="0 0 16.913 20.892"><defs><style>.a{fill:#3a7cac;}</style></defs><path class="a" d="M151.323,81.908h13.928V82.9H151.323Zm14.923,2.985H151.82a2.487,2.487,0,0,1-2.487-2.487V65.99a1.99,1.99,0,0,1,1.99-1.99h12.933a1.99,1.99,0,0,1,1.99,1.99V80.913H151.82a1.492,1.492,0,0,0,0,2.985h14.426ZM151.82,79.918h13.431V65.99a1,1,0,0,0-.995-.995H151.323a1,1,0,0,0-.995.995V80.426A2.467,2.467,0,0,1,151.82,79.918Zm5.055-6.375c0-.116,0-.075,0-.336a2.752,2.752,0,0,1-.763-1.956c0-1.313.341-2.272,1.672-2.272s1.671.959,1.671,2.272a2.751,2.751,0,0,1-.762,1.956c0,.261,0,.219,0,.336.012.667,2.119,1.4,2.55,2.061a1.652,1.652,0,0,1-.006.653l-.241.173h-6.424l-.242-.173a1.652,1.652,0,0,1-.006-.653C154.757,74.944,156.863,74.209,156.875,73.543Z" transform="translate(-149.333 -64)"/></svg>