<svg xmlns="http://www.w3.org/2000/svg" width="35.5" height="35.5" viewBox="0 0 35.5 35.5">
  <defs>
    <style>
      .cls-1 {
        fill: #ac3a59;
      }

      .cls-2 {
        fill: #fff;
      }
    </style>
  </defs>
  <g id="グループ_642" data-name="グループ 642" transform="translate(-317.5 -168.4)">
    <circle id="楕円形_123" data-name="楕円形 123" class="cls-1" cx="17.75" cy="17.75" r="17.75" transform="translate(317.5 168.4)"/>
    <g id="ターン_バックするの矢印アイコン素材_2" data-name="ターン・バックするの矢印アイコン素材 2" transform="translate(328.8 139.733)">
      <path id="パス_284" data-name="パス 284" class="cls-2" d="M9.61,41.349H1.4a.355.355,0,0,0-.375.328v1.566a.355.355,0,0,0,.375.328H9.648a2.447,2.447,0,0,1,2.547,1.96A1.988,1.988,0,0,1,11.56,47.2a2.657,2.657,0,0,1-1.833.711H5.754V46.123a.266.266,0,0,0-.282-.246.309.309,0,0,0-.151.039L.13,48.814a.231.231,0,0,0,0,.415l5.191,2.9a.311.311,0,0,0,.151.039.266.266,0,0,0,.282-.246v-1.79H9.727a5.343,5.343,0,0,0,3.614-1.348,4.07,4.07,0,0,0,1.4-3.214C14.642,43.243,12.339,41.349,9.61,41.349Z"/>
    </g>
  </g>
</svg>
