<svg xmlns="http://www.w3.org/2000/svg" width="30" height="37.131" viewBox="0 0 30 37.131">
  <defs>
    <style>
      .cls-1, .cls-2 {
        fill: #707070;
      }

      .cls-1 {
        font-size: 10px;
        font-family: HiraKakuProN-W6, Hiragino Kaku Gothic ProN;
      }
    </style>
  </defs>
  <g id="グループ_446" data-name="グループ 446" transform="translate(-126 -702.869)">
    <text id="リスト" class="cls-1" transform="translate(126 739)"><tspan x="0" y="0">リスト</tspan></text>
    <path id="_Pngtree_roster_236064" data-name="—Pngtree—roster_236064" class="cls-2" d="M151.323,81.908h13.928V82.9H151.323Zm14.923,2.985H151.82a2.487,2.487,0,0,1-2.487-2.487V65.99a1.99,1.99,0,0,1,1.99-1.99h12.933a1.99,1.99,0,0,1,1.99,1.99V80.913H151.82a1.492,1.492,0,0,0,0,2.985h14.426ZM151.82,79.918h13.431V65.99a1,1,0,0,0-.995-.995H151.323a1,1,0,0,0-.995.995V80.426A2.467,2.467,0,0,1,151.82,79.918Zm5.055-6.375c0-.116,0-.075,0-.336a2.752,2.752,0,0,1-.763-1.956c0-1.313.341-2.272,1.672-2.272s1.671.959,1.671,2.272a2.751,2.751,0,0,1-.762,1.956c0,.261,0,.219,0,.336.012.667,2.119,1.4,2.55,2.061a1.652,1.652,0,0,1-.006.653l-.241.173h-6.424l-.242-.173a1.652,1.652,0,0,1-.006-.653C154.757,74.944,156.863,74.209,156.875,73.543Z" transform="translate(-16.474 638.869)"/>
  </g>
</svg>
