<svg xmlns="http://www.w3.org/2000/svg" xmlns:xlink="http://www.w3.org/1999/xlink" width="74" height="74" viewBox="0 0 74 74">
  <defs>
    <style>
      .cls-1 {
        fill: #3a7cac;
        opacity: 0.98;
      }

      .cls-2 {
        fill: #fff;
      }

      .cls-3 {
        filter: url(#楕円形_106);
      }
    </style>
    <filter id="楕円形_106" x="0" y="0" width="74" height="74" filterUnits="userSpaceOnUse">
      <feOffset dy="2.3" input="SourceAlpha"/>
      <feGaussianBlur stdDeviation="3" result="blur"/>
      <feFlood flood-opacity="0.294"/>
      <feComposite operator="in" in2="blur"/>
      <feComposite in="SourceGraphic"/>
    </filter>
  </defs>
  <g id="グループ_441" data-name="グループ 441" transform="translate(-287 -623.3)">
    <g class="cls-3" transform="matrix(1, 0, 0, 1, 287, 623.3)">
      <circle id="楕円形_106-2" data-name="楕円形 106" class="cls-1" cx="28" cy="28" r="28" transform="translate(9 6.7)"/>
    </g>
    <g id="グループ_375" data-name="グループ 375" transform="translate(317.314 646.545)">
      <path id="パス_193" data-name="パス 193" class="cls-2" d="M522.811,124.077a9.093,9.093,0,0,0-1.382,1.751V115h4.489v6.949A10.941,10.941,0,0,0,522.811,124.077Z" transform="translate(-521.429 -115)"/>
      <path id="パス_194" data-name="パス 194" class="cls-2" d="M169.963,198.085a11.538,11.538,0,0,1,5.966-2.9,18.357,18.357,0,0,1,2.51-.329v-3.7l8.019,5.888-8.019,5.888v-3.575a13.894,13.894,0,0,0-1.618.228,7.543,7.543,0,0,0-3.7,1.692,3.342,3.342,0,0,0-.983,2.535v7.332h-4.489v-7.332A7.867,7.867,0,0,1,169.963,198.085Z" transform="translate(-167.651 -188.07)"/>
    </g>
  </g>
</svg>
