<svg xmlns="http://www.w3.org/2000/svg" width="19.005" height="21.003" viewBox="0 0 19.005 21.003">
  <defs>
    <style>
      .cls-1 {
        fill: #707070;
      }
    </style>
  </defs>
  <g id="ログアウト_サインアウトのアイコン素材_1" data-name="ログアウト・サインアウトのアイコン素材 1" transform="translate(-24.358)">
    <path id="パス_289" data-name="パス 289" class="cls-1" d="M40.234,17.123v-.009L40,17.353a3,3,0,0,1-1.559.827,2.887,2.887,0,0,1-.573.057,2.977,2.977,0,0,1-.366-.025h-.013v.041H27.107V2.749H37.485V4.723h0v.006A2.991,2.991,0,0,1,40,5.585l.138.138.095.1V5.817l.006.006V0H24.358V21h0V21H40.234V18.724l0-1.605Z"/>
    <path id="パス_290" data-name="パス 290" class="cls-1" d="M187.183,149.956l-3.761-3.761a1.734,1.734,0,0,0-1.232-.509,1.518,1.518,0,0,0-.379.045,1.7,1.7,0,0,0-.853.465,1.621,1.621,0,0,0-.312.423,1.515,1.515,0,0,0-.127.315,1.734,1.734,0,0,0-.073.5,1.766,1.766,0,0,0,.073.5,1.693,1.693,0,0,0,.439.735l.454.454.313.319H176.6a1.744,1.744,0,0,0,0,3.488h3.007l2.118,0-.769.769a1.624,1.624,0,0,0-.312.423,1.515,1.515,0,0,0-.127.315,1.732,1.732,0,0,0-.073.5,1.766,1.766,0,0,0,.073.5,1.747,1.747,0,0,0,1.015,1.117,1.46,1.46,0,0,0,.277.086.24.24,0,0,0,.044.013,1.979,1.979,0,0,0,.334.032,1.909,1.909,0,0,0,.331-.032,1.721,1.721,0,0,0,.9-.481l1.139-1.139,2.622-2.619a1.732,1.732,0,0,0,0-2.447Z" transform="translate(-144.326 -139.709)"/>
  </g>
</svg>
