<svg xmlns="http://www.w3.org/2000/svg" width="22.956" height="20.086" viewBox="0 0 22.956 20.086">
  <defs>
    <style>
      .cls-1 {
        fill: #707070;
      }
    </style>
  </defs>
  <path id="map-7" class="cls-1" d="M9.368,45.41,9.9,46.741a9.267,9.267,0,0,1-1.531.468l-.293-1.4A7.93,7.93,0,0,0,9.368,45.41ZM5.1,47.129a6.281,6.281,0,0,0,1.645.241l.022-1.435A4.868,4.868,0,0,1,5.5,45.75Zm11.3-2.5a4.512,4.512,0,0,1,1.2.42l.659-1.275a5.958,5.958,0,0,0-1.58-.552ZM13.4,43.448l.429,1.367a5.918,5.918,0,0,1,1.289-.258l-.115-1.429A7.316,7.316,0,0,0,13.4,43.448Zm-2.3,1.079c-.161.1-.319.193-.475.28l.7,1.253c.175-.1.354-.2.534-.314q.37-.229.724-.409l-.651-1.278C11.66,44.2,11.383,44.352,11.1,44.527Zm3.965-8.94a3.569,3.569,0,0,1-.39,1.628l-3.2,6.263s-3.223-6.315-3.235-6.341a3.587,3.587,0,1,1,6.822-1.55Zm-1.435,0a2.152,2.152,0,1,0-2.152,2.152A2.153,2.153,0,0,0,13.63,35.587Zm5.022,3.587H15.286l-.733,1.435h3.064l1.548,4.646-.495.546a4.867,4.867,0,0,1,.8.916l.151-.091,1.341,4.025H1.99l1.438-4.308c.05.035.09.069.146.1l.762-1.213a4.522,4.522,0,0,1-.434-.314l1.438-4.311H8.4c-.3-.594-.544-1.063-.733-1.435H4.3L0,52.086H22.956Z" transform="translate(0 -32)"/>
</svg>
