<svg xmlns="http://www.w3.org/2000/svg" width="28.487" height="27.845" viewBox="0 0 28.487 27.845">
  <defs>
    <style>
      .cls-1 {
        fill: #3a7cac;
        stroke: #3a7cac;
        stroke-linecap: round;
        stroke-linejoin: round;
      }

      .cls-2 {
        fill: #fff;
      }
    </style>
  </defs>
  <g id="グループ_546" data-name="グループ 546" transform="translate(-224.31 -53.5)">
    <path id="パス_355" data-name="パス 355" class="cls-1" d="M1549.512,53.521H1577V80.366l-27.487-26.845" transform="translate(-1324.701 0.479)"/>
    <g id="星アイコン6" transform="translate(238.921 45.653)">
      <path id="パス_356" data-name="パス 356" class="cls-2" d="M8.7,14.5a.462.462,0,0,0-.439-.32H5.607L4.8,11.667a.461.461,0,0,0-.878,0l-.808,2.514H.462a.461.461,0,0,0-.269.836l2.15,1.544-.828,2.513a.461.461,0,0,0,.711.517L4.36,18.027l2.134,1.564a.462.462,0,0,0,.711-.517l-.828-2.513,2.15-1.544A.461.461,0,0,0,8.7,14.5Z" transform="translate(0)"/>
    </g>
  </g>
</svg>
