<svg xmlns="http://www.w3.org/2000/svg" width="10" height="15.863" viewBox="0 0 10 15.863">
  <defs>
    <style>
      .cls-1 {
        fill: #d4d4d4;
      }
    </style>
  </defs>
  <g id="歩くアイコン" transform="translate(-94.615)">
    <path id="パス_235" data-name="パス 235" class="cls-1" d="M232.786,2.942a1.471,1.471,0,1,0-1.471-1.471A1.471,1.471,0,0,0,232.786,2.942Z" transform="translate(-132.465 0)"/>
    <path id="パス_236" data-name="パス 236" class="cls-1" d="M104.32,114.226l-1.685-.886-.71-1.459a2.58,2.58,0,0,0-1.849-1.408l-.731-.136a1.781,1.781,0,0,0-1.085.141l-2.128,1a1.067,1.067,0,0,0-.526.545l-.946,2.209a.57.57,0,0,0,.308.752l.021.009a.57.57,0,0,0,.733-.289l.868-1.881,1.375-.444L96.6,118.438l-1.327,3.308a.695.695,0,0,0,.458.927l.057.016a.694.694,0,0,0,.788-.321l1.572-2.716.937-1.859,1.71,1.887,1.263,2.675a.694.694,0,0,0,.8.376l.014,0a.694.694,0,0,0,.482-.9l-.929-2.693a3.56,3.56,0,0,0-.572-1.047l-1.509-2,.554-2.879.714.908a.892.892,0,0,0,.333.261l1.879.849a.552.552,0,0,0,.736-.291l.006-.014A.552.552,0,0,0,104.32,114.226Z" transform="translate(0 -106.891)"/>
  </g>
</svg>
