<svg xmlns="http://www.w3.org/2000/svg" width="24.441" height="36.438" viewBox="0 0 24.441 36.438">
  <defs>
    <style>
      .cls-1, .cls-2 {
        fill: #3a7cac;
      }

      .cls-1 {
        font-size: 10px;
        font-family: HiraKakuProN-W6, Hiragino Kaku Gothic ProN;
      }
    </style>
  </defs>
  <g id="グループ_449" data-name="グループ 449" transform="translate(-325 -704.562)">
    <text id="活動" class="cls-1" transform="translate(325 740)"><tspan x="0" y="0">活動</tspan></text>
    <g id="ブログ記事投稿_メモをとるアイコン素材_2" data-name="ブログ記事投稿・メモをとるアイコン素材 2" transform="translate(327.058 661.658)">
      <path id="パス_248" data-name="パス 248" class="cls-2" d="M15.825,54.206V54.2l-1.456,1.456v3.426A1.027,1.027,0,0,1,13.342,60.1H6.818a5.386,5.386,0,0,1-1.092-.11V56.5a.66.66,0,0,0-.661-.661h-3.5a5.2,5.2,0,0,1-.11-1.092V45.41a1.024,1.024,0,0,1,1.025-1.025H13.342a1.027,1.027,0,0,1,1.028,1.025v.48l0,.339,0,0v.01l1.391-1.391a2.488,2.488,0,0,0-2.419-1.913H2.483A2.485,2.485,0,0,0,0,45.41v9.333a6.938,6.938,0,0,0,.14,1.388,6.825,6.825,0,0,0,6.678,5.429h6.524a2.485,2.485,0,0,0,2.483-2.483V56.213l0-2.012Z" transform="translate(0 -0.025)"/>
      <path id="パス_249" data-name="パス 249" class="cls-2" d="M188.941,45.4,186.6,43.059a.5.5,0,0,0-.058-.039.532.532,0,0,0-.059-.04.969.969,0,0,0-.252-.077.476.476,0,0,0-.339.138l-10.32,10.32L174.347,57.3a.288.288,0,0,0,.273.367.271.271,0,0,0,.081-.012l3.937-1.229,10.32-10.32A.5.5,0,0,0,188.941,45.4ZM178.388,55.8l-.08.08-2.467.77-.489-.488.77-2.467.08-.08.371-.019a.417.417,0,0,1,.438.438.91.91,0,0,0,.957.957.417.417,0,0,1,.438.438Zm8.389-9.259.009-.009.087.087.124.134.058.067Zm-1.1-1.1.009-.01.177.177.254.263.121.131Zm-.654-.654.009-.009.087.087.124.134.058.067Zm.229-.228h0l.987-.987,2.185,2.185-.987.987-2.176-2.176Z" transform="translate(-166.713)"/>
    </g>
  </g>
</svg>
