<svg xmlns="http://www.w3.org/2000/svg" width="154.072" height="117.551" viewBox="0 0 154.072 117.551">
  <defs>
    <style>
      .cls-1 {
        fill: #999;
      }

      .cls-2 {
        fill: #686868;
      }
    </style>
  </defs>
  <g id="グループ_498" data-name="グループ 498" transform="translate(-123 -53.521)">
    <g id="picture" transform="translate(120 46.521)">
      <path id="パス_48" data-name="パス 48" d="M127.534,6H2.237A2.15,2.15,0,0,0,0,8.052v90.3A2.15,2.15,0,0,0,2.237,100.4h125.3a2.15,2.15,0,0,0,2.237-2.052V8.052A2.15,2.15,0,0,0,127.534,6ZM125.3,96.3H4.475V10.1H125.3Z" transform="translate(3 1)"/>
      <path id="パス_49" data-name="パス 49" d="M22.891,41.921a12.46,12.46,0,1,0-12.46-12.46A12.473,12.473,0,0,0,22.891,41.921Zm0-20.446a7.985,7.985,0,1,1-7.985,7.988A8,8,0,0,1,22.891,21.475Z" transform="translate(15.908 11.923)"/>
      <path id="パス_50" data-name="パス 50" d="M8.238,74.46A2.232,2.232,0,0,0,9.715,73.9l36.5-32.134,23.05,23.048a2.237,2.237,0,0,0,3.164-3.164L61.673,50.9,82.214,28.4l25.2,23.1a2.238,2.238,0,0,0,3.023-3.3L83.584,23.588A2.308,2.308,0,0,0,81.973,23a2.242,2.242,0,0,0-1.553.727l-21.913,24L47.894,37.117a2.24,2.24,0,0,0-3.061-.1L6.759,70.542A2.238,2.238,0,0,0,8.238,74.46Z" transform="translate(10.424 13.516)"/>
    </g>
    <g id="グループ_210" data-name="グループ 210" transform="translate(-1084.809 -169.913)">
      <g id="グループ_208" data-name="グループ 208" transform="translate(1305.898 285.002)">
        <g id="グループ_207" data-name="グループ 207" transform="translate(0 0)">
          <circle id="楕円形_57" data-name="楕円形 57" class="cls-1" cx="19.793" cy="19.793" r="19.793" transform="translate(0 27.991) rotate(-45)"/>
        </g>
      </g>
      <g id="グループ_209" data-name="グループ 209" transform="translate(1321.984 302.465)">
        <path id="パス_88" data-name="パス 88" class="cls-2" d="M1452.839,423.18H1447.3v-.823a2.27,2.27,0,0,0-2.265-2.264h-5.593a2.27,2.27,0,0,0-2.265,2.264v.823h-5.535a1.323,1.323,0,0,0-1.315,1.315v13.884a1.323,1.323,0,0,0,1.315,1.315h21.181a1.323,1.323,0,0,0,1.315-1.315V424.5A1.285,1.285,0,0,0,1452.839,423.18Z" transform="translate(-1430.331 -420.092)"/>
        <rect id="長方形_566" data-name="長方形 566" class="cls-1" width="2.951" height="1.567" transform="translate(19.305 5.432)"/>
        <path id="パス_89" data-name="パス 89" class="cls-1" d="M1480.381,471.974a6.256,6.256,0,1,1,6.256-6.256A6.257,6.257,0,0,1,1480.381,471.974Zm0-10.876a4.609,4.609,0,1,0,4.609,4.609A4.617,4.617,0,0,0,1480.381,461.1Z" transform="translate(-1468.464 -454.373)"/>
      </g>
    </g>
  </g>
</svg>
