<svg xmlns="http://www.w3.org/2000/svg" width="10.398" height="13.871" viewBox="0 0 10.398 13.871">
  <defs>
    <style>
      .cls-1 {
        fill: #dd3b3b;
      }
    </style>
  </defs>
  <path id="パス_143" data-name="パス 143" class="cls-1" d="M510.867,465.713a5.167,5.167,0,0,0-3.628-1.515,5.046,5.046,0,0,0-3.628,1.515c-2.141,2.232-2.338,5.189.015,8.317,1.737,2.31,2.735,3.5,3.465,3.973a.2.2,0,0,0,.3,0c.73-.474,1.622-1.747,3.465-3.973C512.749,471.739,512.888,467.735,510.867,465.713Zm-3.628,5.908a2.257,2.257,0,1,1,2.257-2.257A2.257,2.257,0,0,1,507.238,471.621Z" transform="translate(-501.931 -464.198)"/>
</svg>
