<svg xmlns="http://www.w3.org/2000/svg" width="168.676" height="34.422" viewBox="0 0 168.676 34.422">
  <defs>
    <style>
      .cls-1 {
        fill: #3a7cac;
      }

      .cls-2, .cls-5 {
        fill: #fff;
      }

      .cls-2 {
        font-size: 12.5px;
        font-family: HiraKakuProN-W6, Hiragino Kaku Gothic ProN;
      }

      .cls-3, .cls-4 {
        fill: rgba(0,0,0,0);
      }

      .cls-4 {
        stroke: #fff;
        stroke-linecap: round;
        stroke-linejoin: round;
        stroke-width: 1.5px;
      }
    </style>
  </defs>
  <g id="グループ_527" data-name="グループ 527" transform="translate(0 -5)">
    <rect id="長方形_605" data-name="長方形 605" class="cls-1" width="168.676" height="34.422" rx="17.211" transform="translate(0 5)"/>
    <g id="グループ_425" data-name="グループ 425" transform="translate(16.832 10.809)">
      <text id="結果を地図で表示" class="cls-2" transform="translate(28.524 16.553)"><tspan x="0" y="0">結果を地図で表示</tspan></text>
      <g id="グループ_424" data-name="グループ 424" transform="translate(4.783 -0.217)">
        <g id="_809_pin_f" data-name="809_pin_f">
          <rect id="長方形_674" data-name="長方形 674" class="cls-3" width="19.987" height="19.987"/>
          <path id="パス_169" data-name="パス 169" class="cls-4" d="M22.161,13.58c0,3.331-4.58,7.912-4.58,7.912S13,16.912,13,13.58a4.58,4.58,0,1,1,9.161,0Z" transform="translate(-7.587 -5.252)"/>
          <ellipse id="楕円形_100" data-name="楕円形 100" class="cls-5" cx="1.249" cy="1.249" rx="1.249" ry="1.249" transform="translate(8.744 7.079)"/>
          <path id="パス_170" data-name="パス 170" class="cls-4" d="M18.772,37.06c1.553.391,2.553.974,2.553,1.641,0,1.149-2.981,2.082-6.662,2.082S8,39.85,8,38.7c0-.666,1-1.249,2.553-1.641" transform="translate(-4.669 -21.628)"/>
        </g>
      </g>
    </g>
  </g>
</svg>
