<svg xmlns="http://www.w3.org/2000/svg" width="168.676" height="34.422" viewBox="0 0 168.676 34.422">
  <defs>
    <style>
      .cls-1 {
        fill: #bf254f;
      }

      .cls-2, .cls-3 {
        fill: #fff;
      }

      .cls-2 {
        font-size: 12px;
        font-family: HiraKakuProN-W6, Hiragino Kaku Gothic ProN;
        letter-spacing: 0.15em;
      }
    </style>
  </defs>
  <g id="グループ_661" data-name="グループ 661" transform="translate(-105.324 -646.959)">
    <g id="グループ_527" data-name="グループ 527" transform="translate(105.324 641.959)">
      <rect id="長方形_605" data-name="長方形 605" class="cls-1" width="168.676" height="34.422" rx="17.211" transform="translate(0 5)"/>
    </g>
    <g id="グループ_425" data-name="グループ 425" transform="translate(182.885 658.259)">
      <text id="編集" class="cls-2" transform="translate(0 11)"><tspan x="0" y="0">編集</tspan></text>
    </g>
    <g id="edit-button" transform="translate(157.617 654.013)">
      <path id="パス_371" data-name="パス 371" class="cls-3" d="M107.715.638l-.023-.021a2.483,2.483,0,0,0-3.434.151L95.572,9.995a.808.808,0,0,0-.176.291l-1.021,2.971a1.1,1.1,0,0,0,.159,1.016,1.179,1.179,0,0,0,.944.471h0a1.19,1.19,0,0,0,.468-.1L98.9,13.394a.838.838,0,0,0,.283-.2l8.686-9.227A2.312,2.312,0,0,0,107.715.638ZM96.331,12.708l.6-1.743.051-.054,1.136,1.007-.051.054Zm10.3-9.836-7.384,7.844L98.112,9.71,105.5,1.866a.756.756,0,0,1,.557-.238.764.764,0,0,1,.508.192l.023.021A.716.716,0,0,1,106.632,2.872Z" transform="translate(-89.083 0)"/>
      <path id="パス_372" data-name="パス 372" class="cls-3" d="M17.7,38.023a.827.827,0,0,0-.839.814v6.909a2.1,2.1,0,0,1-2.133,2.07H4.567a2.1,2.1,0,0,1-2.133-2.07V35.963a2.1,2.1,0,0,1,2.133-2.07h7.357a.814.814,0,1,0,0-1.628H4.567a3.759,3.759,0,0,0-3.81,3.7v9.783a3.759,3.759,0,0,0,3.81,3.7H14.732a3.759,3.759,0,0,0,3.81-3.7V38.837A.826.826,0,0,0,17.7,38.023Z" transform="translate(-0.757 -30.516)"/>
    </g>
  </g>
</svg>
