<svg xmlns="http://www.w3.org/2000/svg" width="19.835" height="13.943" viewBox="0 0 19.835 13.943">
  <defs>
    <style>
      .cls-1 {
        fill: #d4d4d4;
      }
    </style>
  </defs>
  <g id="自転車の無料アイコン4" transform="translate(0 -76.039)">
    <path id="パス_246" data-name="パス 246" class="cls-1" d="M15.516,81.345a4.307,4.307,0,0,0-1.133.156l-.78-1.969H6.825l.568-1.739A1.152,1.152,0,0,1,8.488,77H9.971v-.96H8.488a2.112,2.112,0,0,0-2.008,1.456L5.195,81.434a4.341,4.341,0,1,0,.911.3l.406-1.244h6.438l.538,1.359a4.318,4.318,0,1,0,2.027-.506Zm-9.048,2.17a3.105,3.105,0,1,1-1.675-.849l-.93,2.85.912.3.931-2.852A3.067,3.067,0,0,1,6.468,83.514Zm11.2,4.3a3.039,3.039,0,0,1-4.3-4.3,3.073,3.073,0,0,1,.6-.461l1.1,2.787.892-.354L14.857,82.7a3.039,3.039,0,0,1,2.808,5.115Z"/>
    <path id="パス_247" data-name="パス 247" class="cls-1" d="M312.742,123.3l.373-1.146h-3.439l.4,1.146Z" transform="translate(-297.679 -44.327)"/>
  </g>
</svg>
