<svg xmlns="http://www.w3.org/2000/svg" width="19.257" height="14.8" viewBox="0 0 19.257 14.8">
  <defs>
    <style>
      .cls-1 {
        fill: #fff;
      }
    </style>
  </defs>
  <g id="グループ_393" data-name="グループ 393" transform="translate(-32 -302)">
    <g id="_20180310_kurumaicon" data-name="20180310_kurumaicon" transform="translate(32 302)">
      <path id="パス_231" data-name="パス 231" class="cls-1" d="M355.556,347.935H354.42a.919.919,0,0,1-.92-.92v-2.2a.919.919,0,0,1,.92-.92h1.136a.919.919,0,0,1,.92.92v2.2A.919.919,0,0,1,355.556,347.935Z" transform="translate(-352.148 -333.135)"/>
      <path id="パス_232" data-name="パス 232" class="cls-1" d="M481.156,347.935H480.02a.919.919,0,0,1-.92-.92v-2.2a.919.919,0,0,1,.92-.92h1.136a.919.919,0,0,1,.92.92v2.2A.919.919,0,0,1,481.156,347.935Z" transform="translate(-464.159 -333.135)"/>
      <path id="パス_233" data-name="パス 233" class="cls-1" d="M358.829,300.932h-16.4A1.427,1.427,0,0,1,341,299.5v-4.176a1.427,1.427,0,0,1,1.428-1.428h16.4a1.427,1.427,0,0,1,1.428,1.428V299.5A1.434,1.434,0,0,1,358.829,300.932Zm-14.443-5.139a1.244,1.244,0,1,0,1.244,1.244A1.244,1.244,0,0,0,344.386,295.793Zm12.442,0a1.244,1.244,0,1,0,1.244,1.244A1.244,1.244,0,0,0,356.828,295.793Z" transform="translate(-341 -288.545)"/>
      <g id="グループ_384" data-name="グループ 384" transform="translate(1.352 0)">
        <path id="パス_234" data-name="パス 234" class="cls-1" d="M357.719,245.817h8.33a.755.755,0,0,1,.757.7l1.58,3.992h1.655l-2.153-5a1.729,1.729,0,0,0-1.623-1.114h-8.871a2.313,2.313,0,0,0-1.893,1.515c-.433,1.363-2,4.6-2,4.6h1.688c.411-1.071,1.341-3.494,1.536-4.046A.99.99,0,0,1,357.719,245.817Z" transform="translate(-353.5 -244.4)"/>
      </g>
    </g>
  </g>
</svg>
