<svg xmlns="http://www.w3.org/2000/svg" width="33.5" height="33.5" viewBox="0 0 33.5 33.5"><defs><style>.a{fill:#5bb0ed;}</style></defs><path class="a" d="M156.494,149.753a.861.861,0,0,0-1.217,0l-1.049,1.049a.861.861,0,0,1-1.135.072,25.384,25.384,0,0,1-4.945-4.946.86.86,0,0,1,.072-1.135l1.049-1.049a.859.859,0,0,0,0-1.217l-2.312-2.312a.86.86,0,0,0-1.217,0l-1.394,1.395c-1.479,1.478.477,6.008,3.767,9.3s7.821,5.245,9.3,3.767l1.394-1.395a.859.859,0,0,0,0-1.216Z" transform="translate(-134.433 -130.806)"/><path class="a" d="M16.75,0A16.75,16.75,0,1,0,33.5,16.75,16.75,16.75,0,0,0,16.75,0Zm0,30.883A14.133,14.133,0,1,1,30.883,16.75,14.149,14.149,0,0,1,16.75,30.883Z"/></svg>