<svg xmlns="http://www.w3.org/2000/svg" width="35.5" height="35.5" viewBox="0 0 35.5 35.5">
  <defs>
    <style>
      .cls-1 {
        fill: #3aaca3;
      }

      .cls-2 {
        fill: #fff;
      }
    </style>
  </defs>
  <g id="グループ_455" data-name="グループ 455" transform="translate(-317.5 -483)">
    <circle id="楕円形_95" data-name="楕円形 95" class="cls-1" cx="17.75" cy="17.75" r="17.75" transform="translate(317.5 483)"/>
    <g id="グループ_450" data-name="グループ 450" transform="translate(0 40)">
      <g id="はがきの無料アイコン_1" data-name="はがきの無料アイコン 1" transform="translate(281.448 452.139)">
        <path id="パス_321" data-name="パス 321" class="cls-2" d="M59.185,0H48.847a1.486,1.486,0,0,0-1.484,1.485V14.843a1.486,1.486,0,0,0,1.484,1.484H59.185a1.486,1.486,0,0,0,1.484-1.484V1.485A1.486,1.486,0,0,0,59.185,0Zm-10.4,1.485a.058.058,0,0,1,.058-.059H59.185a.059.059,0,0,1,.059.059V14.843a.059.059,0,0,1-.059.059H48.847a.059.059,0,0,1-.058-.059Z" transform="translate(0 0)"/>
      </g>
      <path id="person-1824147" class="cls-2" d="M584.5,564.509a2.279,2.279,0,1,0,2.279,2.279A2.279,2.279,0,0,0,584.5,564.509Zm2.046,4.511a3.018,3.018,0,0,1-4.089,0,4.174,4.174,0,0,0-1.822,3.482q0,.03,0,.061h7.726q0-.03,0-.061a4.174,4.174,0,0,0-1.819-3.484Z" transform="translate(-248.839 -108.238)"/>
    </g>
  </g>
</svg>
