<svg xmlns="http://www.w3.org/2000/svg" width="53.74" height="53.74" viewBox="0 0 53.74 53.74">
  <defs>
    <style>
      .cls-1 {
        fill: #3a7cac;
      }

      .cls-2 {
        fill: #fff;
      }
    </style>
  </defs>
  <g id="グループ_557" data-name="グループ 557" transform="translate(0 2.492)">
    <g id="グループ_298" data-name="グループ 298" transform="translate(0 0)">
      <circle id="楕円形_83" data-name="楕円形 83" class="cls-1" cx="19" cy="19" r="19" transform="translate(0 24.378) rotate(-45)"/>
    </g>
    <g id="グループ_300" data-name="グループ 300" transform="translate(17.372 15.581)">
      <g id="グループ_299" data-name="グループ 299">
        <path id="パス_140" data-name="パス 140" class="cls-2" d="M749.515-241.068l-2.811-2.811a1.466,1.466,0,0,0-2.066.039l-1.416,1.416-.28-.156a14.089,14.089,0,0,1-3.406-2.463,14.168,14.168,0,0,1-2.468-3.412c-.053-.095-.1-.186-.152-.273l.951-.949.467-.468a1.464,1.464,0,0,0,.038-2.066l-2.811-2.811a1.464,1.464,0,0,0-2.066.039l-.792.8.022.022a4.577,4.577,0,0,0-.653,1.151,4.78,4.78,0,0,0-.29,1.168c-.371,3.077,1.035,5.889,4.851,9.7,5.274,5.274,9.525,4.876,9.708,4.856a4.744,4.744,0,0,0,1.171-.294,4.57,4.57,0,0,0,1.147-.65l.017.015.8-.786A1.467,1.467,0,0,0,749.515-241.068Z" transform="translate(-731.723 255.431)"/>
      </g>
    </g>
  </g>
</svg>
